Fruktur-Regular.ufo
<glyph name="exclam" format="1">
  <advance width="691"/>
  <unicode hex="0021"/>
  <outline>
    <contour>
      <point x="573" y="1566" type="line" name="hr00"/>
      <point x="537" y="1596"/>
      <point x="480" y="1615"/>
      <point x="423" y="1613" type="curve" smooth="yes"/>
      <point x="288" y="1609"/>
      <point x="150" y="1553"/>
      <point x="85" y="1467" type="curve"/>
      <point x="117" y="1223"/>
      <point x="159" y="1136"/>
      <point x="217" y="913" type="curve"/>
      <point x="193" y="831"/>
      <point x="176" y="745"/>
      <point x="165" y="655" type="curve"/>
      <point x="249" y="550"/>
      <point x="481" y="599"/>
      <point x="521" y="687" type="curve"/>
      <point x="457" y="964" type="line"/>
    </contour>
    <contour>
      <point x="612" y="251" type="curve"/>
      <point x="581" y="119"/>
      <point x="408" y="-4"/>
      <point x="318" y="-34" type="curve"/>
      <point x="214" y="11"/>
      <point x="120" y="83"/>
      <point x="81" y="195" type="curve"/>
      <point x="97" y="244"/>
      <point x="259" y="441"/>
      <point x="310" y="475" type="curve"/>
      <point x="438" y="439"/>
      <point x="544" y="346"/>
    </contour>
  </outline>
</glyph>
<glyph name="ampersand" format="1">
  <advance width="1444"/>
  <unicode hex="0026"/>
  <outline>
    <contour>
      <point x="434" y="838" type="line" name="hr00"/>
      <point x="446" y="600" type="line"/>
      <point x="481" y="570"/>
      <point x="575" y="524"/>
      <point x="618" y="517" type="curve"/>
      <point x="699" y="553"/>
      <point x="770" y="753"/>
      <point x="693" y="876" type="curve"/>
      <point x="649" y="873"/>
      <point x="587" y="859"/>
      <point x="556" y="837" type="curve"/>
    </contour>
    <contour>
      <point x="563" y="1235" type="line"/>
      <point x="669" y="1124"/>
      <point x="940" y="1014"/>
      <point x="1027" y="1010" type="curve"/>
      <point x="1082" y="1037"/>
      <point x="1210" y="1227"/>
      <point x="1156" y="1481" type="curve"/>
      <point x="813" y="1450" type="line"/>
      <point x="751" y="1482"/>
      <point x="509" y="1540"/>
      <point x="448" y="1549" type="curve"/>
      <point x="323" y="1522"/>
      <point x="121" y="1341"/>
      <point x="101" y="1232" type="curve"/>
      <point x="179" y="1027"/>
      <point x="227" y="919"/>
      <point x="372" y="725" type="curve"/>
      <point x="290" y="689"/>
      <point x="202" y="621"/>
      <point x="150" y="561" type="curve"/>
      <point x="103" y="475"/>
      <point x="105" y="283"/>
      <point x="148" y="147" type="curve"/>
      <point x="244" y="73"/>
      <point x="546" y="-10"/>
      <point x="727" y="-20" type="curve"/>
      <point x="883" y="0"/>
      <point x="1059" y="100"/>
      <point x="1138" y="201" type="curve"/>
      <point x="1138" y="332"/>
      <point x="1131" y="462"/>
      <point x="1110" y="593" type="curve"/>
      <point x="1123" y="605" type="line"/>
      <point x="1185" y="563"/>
      <point x="1247" y="529"/>
      <point x="1311" y="503" type="curve"/>
      <point x="1346" y="521"/>
      <point x="1410" y="629"/>
      <point x="1410" y="766" type="curve" smooth="yes"/>
      <point x="1410" y="823"/>
      <point x="1398" y="884"/>
      <point x="1363" y="945" type="curve"/>
      <point x="1100" y="875" type="line"/>
      <point x="912" y="945" type="line"/>
      <point x="832" y="906"/>
      <point x="782" y="784"/>
      <point x="767" y="702" type="curve"/>
      <point x="785" y="552"/>
      <point x="825" y="402"/>
      <point x="864" y="250" type="curve"/>
      <point x="750" y="240"/>
      <point x="546" y="289"/>
      <point x="466" y="331" type="curve"/>
      <point x="459" y="398"/>
      <point x="461" y="518"/>
      <point x="470" y="587" type="curve"/>
      <point x="624" y="605" type="line"/>
      <point x="596" y="796" type="line"/>
      <point x="501" y="1187" type="line"/>
    </contour>
    <contour>
      <point x="434" y="501" type="line"/>
      <point x="588" y="659" type="line"/>
      <point x="379" y="641" type="line"/>
    </contour>
  </outline>
</glyph>
<glyph name="quotesingle" format="1">
  <advance width="453"/>
  <unicode hex="0027"/>
  <outline>
    <contour>
      <point x="398" y="1531" type="curve" name="hr00"/>
      <point x="389" y="1352"/>
      <point x="346" y="1110"/>
      <point x="280" y="940" type="curve"/>
      <point x="108" y="940" type="line"/>
      <point x="22" y="1561" type="line"/>
      <point x="71" y="1582"/>
      <point x="147" y="1595"/>
      <point x="210" y="1595" type="curve" smooth="yes"/>
      <point x="280" y="1595"/>
      <point x="357" y="1576"/>
    </contour>
  </outline>
</glyph>
<glyph name="asterisk" format="1">
  <advance width="1081"/>
  <unicode hex="002A"/>
  <outline>
    <contour>
      <point x="528" y="963" type="line" name="hr00"/>
      <point x="569" y="836"/>
      <point x="625" y="701"/>
      <point x="678" y="612" type="curve"/>
      <point x="799" y="627"/>
      <point x="903" y="686"/>
      <point x="964" y="787" type="curve"/>
      <point x="656" y="1031" type="line"/>
      <point x="659" y="1037"/>
      <point x="658" y="1036"/>
      <point x="661" y="1041" type="curve"/>
      <point x="718" y="1033"/>
      <point x="801" y="1022"/>
      <point x="874" y="1022" type="curve" smooth="yes"/>
      <point x="919" y="1022"/>
      <point x="976" y="1026"/>
      <point x="1025" y="1037" type="curve"/>
      <point x="1038" y="1075"/>
      <point x="1044" y="1117"/>
      <point x="1044" y="1159" type="curve" smooth="yes"/>
      <point x="1044" y="1245"/>
      <point x="1018" y="1328"/>
      <point x="967" y="1376" type="curve"/>
      <point x="650" y="1151" type="line"/>
      <point x="645" y="1155"/>
      <point x="644" y="1158"/>
      <point x="638" y="1162" type="curve"/>
      <point x="776" y="1618" type="line"/>
      <point x="732" y="1640"/>
      <point x="663" y="1649"/>
      <point x="619" y="1649" type="curve" smooth="yes"/>
      <point x="541" y="1649"/>
      <point x="467" y="1619"/>
      <point x="414" y="1570" type="curve"/>
      <point x="420" y="1483"/>
      <point x="448" y="1264"/>
      <point x="487" y="1170" type="curve"/>
      <point x="482" y="1167"/>
      <point x="478" y="1165"/>
      <point x="474" y="1162" type="curve"/>
      <point x="199" y="1403" type="line"/>
      <point x="103" y="1338"/>
      <point x="46" y="1200"/>
      <point x="37" y="1080" type="curve"/>
      <point x="135" y="1049"/>
      <point x="265" y="1037"/>
      <point x="376" y="1037" type="curve" smooth="yes"/>
      <point x="387" y="1037"/>
      <point x="414" y="1038"/>
      <point x="425" y="1038" type="curve"/>
      <point x="427" y="1027" type="line"/>
      <point x="313" y="962"/>
      <point x="208" y="878"/>
      <point x="119" y="770" type="curve"/>
      <point x="166" y="689"/>
      <point x="269" y="596"/>
      <point x="385" y="596" type="curve"/>
      <point x="520" y="965" type="line"/>
    </contour>
  </outline>
</glyph>
<glyph name="slash" format="1">
  <advance width="788"/>
  <unicode hex="002F"/>
  <outline>
    <contour>
      <point x="721" y="1605" type="line" name="hr00"/>
      <point x="643" y="1654"/>
      <point x="449" y="1686"/>
      <point x="375" y="1660" type="curve"/>
      <point x="103" y="-166" type="line"/>
      <point x="179" y="-219"/>
      <point x="257" y="-242"/>
      <point x="360" y="-239" type="curve"/>
    </contour>
  </outline>
</glyph>
<glyph name="one" format="1">
  <advance width="748"/>
  <unicode hex="0031"/>
  <outline>
    <contour>
      <point x="464" y="1180" type="curve" name="hr00"/>
      <point x="280" y="1139"/>
      <point x="99" y="1005"/>
      <point x="3" y="884" type="curve"/>
      <point x="72" y="735" type="line"/>
      <point x="263" y="768" type="line"/>
      <point x="293" y="565" type="line"/>
      <point x="216" y="22" type="line"/>
      <point x="257" y="-7"/>
      <point x="389" y="-21"/>
      <point x="460" y="-20" type="curve" smooth="yes"/>
      <point x="523" y="-19"/>
      <point x="586" y="-8"/>
      <point x="626" y="22" type="curve"/>
      <point x="606" y="182"/>
      <point x="560" y="314"/>
      <point x="542" y="371" type="curve"/>
      <point x="591" y="588"/>
      <point x="623" y="894"/>
      <point x="630" y="1058" type="curve"/>
      <point x="579" y="1104"/>
      <point x="523" y="1145"/>
    </contour>
  </outline>
</glyph>
<glyph name="two" format="1">
  <advance width="1135"/>
  <unicode hex="0032"/>
  <outline>
    <contour>
      <point x="559" y="367" type="line" name="hr01"/>
      <point x="669" y="429"/>
      <point x="941" y="619"/>
      <point x="1035" y="743" type="curve"/>
      <point x="1054" y="855"/>
      <point x="1039" y="945"/>
      <point x="1022" y="1012" type="curve"/>
      <point x="906" y="1134"/>
      <point x="665" y="1201"/>
      <point x="548" y="1208" type="curve"/>
      <point x="429" y="1208"/>
      <point x="202" y="1102"/>
      <point x="127" y="1028" type="curve"/>
      <point x="64" y="919"/>
      <point x="143" y="680"/>
      <point x="185" y="595" type="curve"/>
      <point x="217" y="586"/>
      <point x="246" y="580"/>
      <point x="275" y="580" type="curve" smooth="yes"/>
      <point x="309" y="580"/>
      <point x="345" y="586"/>
      <point x="387" y="601" type="curve"/>
      <point x="424" y="878" type="line"/>
      <point x="455" y="890" type="line"/>
      <point x="664" y="815" type="line"/>
      <point x="667" y="762" type="line"/>
      <point x="613" y="681"/>
      <point x="434" y="477"/>
      <point x="344" y="392" type="curve"/>
      <point x="487" y="130" type="line"/>
      <point x="499" y="150" type="line"/>
      <point x="592" y="338" type="line"/>
      <point x="560" y="349" type="line"/>
    </contour>
    <contour>
      <point x="376" y="404" type="line"/>
      <point x="314" y="457"/>
      <point x="274" y="479"/>
      <point x="232" y="491" type="curve"/>
      <point x="177" y="473"/>
      <point x="126" y="443"/>
      <point x="81" y="403" type="curve"/>
      <point x="75" y="268"/>
      <point x="144" y="37"/>
      <point x="233" y="-17" type="curve"/>
      <point x="320" y="-14"/>
      <point x="391" y="28"/>
      <point x="442" y="105" type="curve" smooth="yes"/>
      <point x="449" y="115"/>
      <point x="458" y="131"/>
      <point x="469" y="150" type="curve"/>
      <point x="537" y="80"/>
      <point x="705" y="-20"/>
      <point x="829" y="-20" type="curve" name="hr02" smooth="yes"/>
      <point x="899" y="-20"/>
      <point x="963" y="12"/>
      <point x="1014" y="80" type="curve" smooth="yes"/>
      <point x="1102" y="200"/>
      <point x="1071" y="347"/>
      <point x="1036" y="441" type="curve"/>
      <point x="888" y="469" type="line"/>
      <point x="798" y="327" type="line"/>
      <point x="453" y="371" type="line"/>
    </contour>
  </outline>
</glyph>
<glyph name="three" format="1">
  <advance width="1075"/>
  <unicode hex="0033"/>
  <outline>
    <contour>
      <point x="426" y="520" type="line" name="hr01"/>
      <point x="275" y="566" type="line"/>
      <point x="183" y="530" type="line"/>
      <point x="99" y="393"/>
      <point x="193" y="210"/>
      <point x="286" y="189" type="curve"/>
      <point x="357" y="203"/>
      <point x="456" y="274"/>
      <point x="495" y="347" type="curve"/>
      <point x="531" y="379"/>
      <point x="494" y="350"/>
      <point x="531" y="391" type="curve"/>
    </contour>
    <contour>
      <point x="379" y="890" type="line"/>
      <point x="595" y="810" type="line"/>
      <point x="598" y="787" type="line"/>
      <point x="544" y="706"/>
      <point x="367" y="477"/>
      <point x="277" y="392" type="curve"/>
      <point x="447" y="429" type="line"/>
      <point x="521" y="467"/>
      <point x="763" y="533"/>
      <point x="940" y="740" type="curve"/>
      <point x="962" y="853"/>
      <point x="953" y="937"/>
      <point x="930" y="1012" type="curve"/>
      <point x="841" y="1104"/>
      <point x="571" y="1208"/>
      <point x="481" y="1208" type="curve" smooth="yes"/>
      <point x="457" y="1208"/>
      <point x="400" y="1194"/>
      <point x="336" y="1172" type="curve"/>
      <point x="233" y="1141"/>
      <point x="114" y="1091"/>
      <point x="60" y="1028" type="curve"/>
      <point x="-3" y="919"/>
      <point x="53" y="795"/>
      <point x="87" y="692" type="curve"/>
      <point x="166" y="658"/>
      <point x="241" y="664"/>
      <point x="320" y="691" type="curve"/>
      <point x="348" y="874" type="line"/>
    </contour>
    <contour>
      <point x="810" y="-217" type="curve" name="hr02" smooth="yes"/>
      <point x="949" y="-137"/>
      <point x="1039" y="19"/>
      <point x="1039" y="258" type="curve"/>
      <point x="1041" y="359"/>
      <point x="815" y="483"/>
      <point x="608" y="508" type="curve"/>
      <point x="533" y="507"/>
      <point x="467" y="482"/>
      <point x="399" y="465" type="curve"/>
      <point x="358" y="353"/>
      <point x="379" y="388"/>
      <point x="430" y="365" type="curve" smooth="yes"/>
      <point x="516" y="326"/>
      <point x="628" y="280"/>
      <point x="683" y="191" type="curve"/>
      <point x="675" y="137"/>
      <point x="657" y="44"/>
      <point x="633" y="-3" type="curve"/>
      <point x="596" y="-10"/>
      <point x="559" y="-15"/>
      <point x="523" y="-15" type="curve" smooth="yes"/>
      <point x="378" y="-13"/>
      <point x="244" y="46"/>
      <point x="121" y="107" type="curve"/>
      <point x="78" y="71"/>
      <point x="54" y="34"/>
      <point x="54" y="-24" type="curve" smooth="yes"/>
      <point x="54" y="-40"/>
      <point x="56" y="-59"/>
      <point x="60" y="-79" type="curve"/>
      <point x="143" y="-199"/>
      <point x="289" y="-291"/>
      <point x="494" y="-291" type="curve" smooth="yes"/>
      <point x="592" y="-291"/>
      <point x="728" y="-264"/>
    </contour>
  </outline>
</glyph>
<glyph name="four" format="1">
  <advance width="1198"/>
  <unicode hex="0034"/>
  <outline>
    <contour>
      <point x="702" y="1126" type="line" name="hr00"/>
      <point x="665" y="1174"/>
      <point x="563" y="1181"/>
      <point x="521" y="1181" type="curve" smooth="yes"/>
      <point x="417" y="1181"/>
      <point x="307" y="1147"/>
      <point x="245" y="1066" type="curve"/>
      <point x="160" y="184" type="line"/>
      <point x="163" y="181" type="line"/>
      <point x="160" y="177" type="line"/>
      <point x="164" y="174" type="line"/>
      <point x="791" y="66" type="line"/>
      <point x="896" y="333" type="line"/>
      <point x="435" y="366" type="line"/>
    </contour>
    <contour>
      <point x="311" y="370" type="line"/>
      <point x="68" y="400" type="line"/>
      <point x="-16" y="263"/>
      <point x="78" y="60"/>
      <point x="171" y="39" type="curve"/>
      <point x="242" y="53"/>
      <point x="341" y="124"/>
      <point x="380" y="197" type="curve"/>
      <point x="416" y="229"/>
      <point x="379" y="200"/>
      <point x="416" y="241" type="curve"/>
    </contour>
    <contour>
      <point x="1075" y="-251" type="curve"/>
      <point x="1055" y="-91"/>
      <point x="1009" y="137"/>
      <point x="991" y="194" type="curve"/>
      <point x="1054" y="472"/>
      <point x="1087" y="866"/>
      <point x="1078" y="940" type="curve"/>
      <point x="1055" y="950"/>
      <point x="1029" y="955"/>
      <point x="1003" y="955" type="curve" smooth="yes"/>
      <point x="779" y="955"/>
      <point x="631" y="776"/>
      <point x="652" y="777" type="curve"/>
      <point x="752" y="292" type="line"/>
      <point x="675" y="-251" type="line"/>
      <point x="716" y="-280"/>
      <point x="838" y="-294"/>
      <point x="909" y="-293" type="curve" smooth="yes"/>
      <point x="972" y="-292"/>
      <point x="1035" y="-281"/>
    </contour>
  </outline>
</glyph>
<glyph name="six" format="1">
  <advance width="1158"/>
  <unicode hex="0036"/>
  <outline>
    <contour>
      <point x="680" y="654" type="curve" name="hr00"/>
      <point x="712" y="513"/>
      <point x="717" y="405"/>
      <point x="690" y="272" type="curve"/>
      <point x="627" y="229" type="line"/>
      <point x="577" y="235"/>
      <point x="491" y="271"/>
      <point x="451" y="307" type="curve"/>
      <point x="427" y="389"/>
      <point x="421" y="399"/>
      <point x="420" y="501" type="curve"/>
      <point x="498" y="568"/>
      <point x="581" y="629"/>
    </contour>
    <contour>
      <point x="370" y="674" type="line"/>
      <point x="512" y="906"/>
      <point x="765" y="1185"/>
      <point x="930" y="1365" type="curve"/>
      <point x="884" y="1464"/>
      <point x="849" y="1509"/>
      <point x="769" y="1549" type="curve"/>
      <point x="526" y="1373"/>
      <point x="164" y="1069"/>
      <point x="73" y="682" type="curve"/>
      <point x="49" y="279"/>
      <point x="183" y="-20"/>
      <point x="557" y="-20" type="curve" smooth="yes"/>
      <point x="925" y="-20"/>
      <point x="1076" y="213"/>
      <point x="1087" y="541" type="curve" smooth="yes"/>
      <point x="1095" y="782"/>
      <point x="1040" y="930"/>
      <point x="791" y="926" type="curve" smooth="yes"/>
      <point x="641" y="924"/>
      <point x="482" y="762"/>
      <point x="392" y="662" type="curve"/>
    </contour>
  </outline>
</glyph>
<glyph name="eight" format="1">
  <advance width="1087"/>
  <unicode hex="0038"/>
  <outline>
    <contour>
      <point x="731" y="776" type="line" name="hr01"/>
      <point x="848" y="867"/>
      <point x="970" y="1017"/>
      <point x="1012" y="1107" type="curve"/>
      <point x="1025" y="1220"/>
      <point x="1006" y="1309"/>
      <point x="985" y="1375" type="curve"/>
      <point x="863" y="1491"/>
      <point x="619" y="1546"/>
      <point x="502" y="1547" type="curve"/>
      <point x="383" y="1541"/>
      <point x="162" y="1424"/>
      <point x="91" y="1346" type="curve"/>
      <point x="33" y="1234"/>
      <point x="78" y="1004"/>
      <point x="124" y="921" type="curve"/>
      <point x="124" y="920" type="line"/>
      <point x="323" y="751" type="line"/>
      <point x="209" y="662"/>
      <point x="84" y="544"/>
      <point x="60" y="406" type="curve" name="hr02"/>
      <point x="47" y="293"/>
      <point x="66" y="204"/>
      <point x="87" y="138" type="curve"/>
      <point x="209" y="22"/>
      <point x="453" y="-33"/>
      <point x="570" y="-34" type="curve"/>
      <point x="696" y="3"/>
      <point x="896" y="73"/>
      <point x="995" y="185" type="curve"/>
      <point x="1045" y="306"/>
      <point x="1040" y="422"/>
      <point x="1015" y="538" type="curve"/>
    </contour>
    <contour>
      <point x="386" y="1218" type="line"/>
      <point x="425" y="1236" type="line"/>
      <point x="510" y="1235"/>
      <point x="583" y="1210"/>
      <point x="649" y="1169" type="curve"/>
      <point x="636" y="1046"/>
      <point x="624" y="985"/>
      <point x="589" y="896" type="curve"/>
      <point x="571" y="914"/>
      <point x="534" y="951"/>
      <point x="507" y="980" type="curve" smooth="yes"/>
      <point x="467" y="1023"/>
      <point x="415" y="1077"/>
      <point x="376" y="1115" type="curve"/>
    </contour>
    <contour>
      <point x="647" y="278" type="line"/>
      <point x="546" y="269"/>
      <point x="448" y="294"/>
      <point x="355" y="341" type="curve"/>
      <point x="347" y="433" type="line"/>
      <point x="367" y="464"/>
      <point x="438" y="581"/>
      <point x="481" y="631" type="curve"/>
      <point x="696" y="418" type="line"/>
      <point x="687" y="296" type="line"/>
    </contour>
  </outline>
</glyph>
<glyph name="nine" format="1">
  <advance width="1153"/>
  <unicode hex="0039"/>
  <outline>
    <contour>
      <point x="473" y="527" type="line" name="hr00"/>
      <point x="441" y="668"/>
      <point x="436" y="805"/>
      <point x="463" y="938" type="curve"/>
      <point x="526" y="981" type="line"/>
      <point x="576" y="975"/>
      <point x="662" y="939"/>
      <point x="702" y="903" type="curve"/>
      <point x="726" y="821"/>
      <point x="732" y="782"/>
      <point x="733" y="680" type="curve"/>
    </contour>
    <contour>
      <point x="783" y="536" type="line"/>
      <point x="641" y="304"/>
      <point x="401" y="73"/>
      <point x="236" y="-107" type="curve"/>
      <point x="282" y="-206"/>
      <point x="317" y="-251"/>
      <point x="397" y="-291" type="curve"/>
      <point x="640" y="-115"/>
      <point x="989" y="141"/>
      <point x="1080" y="528" type="curve"/>
      <point x="1104" y="931"/>
      <point x="970" y="1230"/>
      <point x="596" y="1230" type="curve" smooth="yes"/>
      <point x="228" y="1230"/>
      <point x="38" y="997"/>
      <point x="66" y="669" type="curve" smooth="yes"/>
      <point x="86" y="429"/>
      <point x="219" y="282"/>
      <point x="362" y="284" type="curve" smooth="yes"/>
      <point x="512" y="286"/>
      <point x="671" y="448"/>
      <point x="761" y="548" type="curve"/>
    </contour>
  </outline>
</glyph>
<glyph name="equal" format="1">
  <advance width="1093"/>
  <unicode hex="003D"/>
  <outline>
    <contour>
      <point x="921" y="603" type="line" name="hr00"/>
      <point x="975" y="709"/>
      <point x="1012" y="810"/>
      <point x="989" y="906" type="curve"/>
      <point x="157" y="841" type="line"/>
      <point x="111" y="763"/>
      <point x="89" y="715"/>
      <point x="101" y="602" type="curve"/>
    </contour>
    <contour>
      <point x="921" y="211" type="line"/>
      <point x="975" y="317"/>
      <point x="1012" y="418"/>
      <point x="989" y="514" type="curve"/>
      <point x="157" y="449" type="line"/>
      <point x="111" y="371"/>
      <point x="89" y="323"/>
      <point x="101" y="210" type="curve"/>
    </contour>
  </outline>
</glyph>
<glyph name="A" format="1">
  <advance width="1272"/>
  <unicode hex="0041"/>
  <outline>
    <contour>
      <point x="692" y="1158" type="line" name="hr00"/>
      <point x="873" y="333" type="line"/>
      <point x="792" y="61" type="line"/>
      <point x="840" y="10"/>
      <point x="938" y="-21"/>
      <point x="1041" y="-20" type="curve" smooth="yes"/>
      <point x="1112" y="-19"/>
      <point x="1185" y="-3"/>
      <point x="1245" y="34" type="curve"/>
      <point x="1251" y="136"/>
      <point x="1253" y="230"/>
      <point x="1025" y="1366" type="curve"/>
    </contour>
    <contour>
      <point x="1012" y="674" type="line"/>
      <point x="918" y="664"/>
      <point x="524" y="633"/>
      <point x="437" y="617" type="curve"/>
      <point x="419" y="453" type="line"/>
      <point x="492" y="440"/>
      <point x="690" y="427"/>
      <point x="800" y="420" type="curve"/>
      <point x="1027" y="420" type="line"/>
    </contour>
    <contour>
      <point x="361" y="1187" type="line"/>
      <point x="183" y="292" type="line"/>
      <point x="51" y="303" type="line"/>
      <point x="6" y="140" type="line"/>
      <point x="44" y="41"/>
      <point x="154" y="-18"/>
      <point x="266" y="-20" type="curve" smooth="yes"/>
      <point x="515" y="-24"/>
      <point x="524" y="272"/>
      <point x="555" y="517" type="curve" smooth="yes"/>
      <point x="589" y="783"/>
      <point x="611" y="1095"/>
      <point x="613" y="1167" type="curve"/>
    </contour>
    <contour>
      <point x="1025" y="1366" type="line"/>
      <point x="775" y="1442"/>
      <point x="521" y="1505"/>
      <point x="255" y="1549" type="curve"/>
      <point x="172" y="1474"/>
      <point x="130" y="1319"/>
      <point x="127" y="1216" type="curve"/>
      <point x="248" y="1170"/>
      <point x="536" y="1145"/>
      <point x="715" y="1129" type="curve"/>
    </contour>
    <contour>
      <point x="671" y="0" type="move" name="top"/>
    </contour>
  </outline>
</glyph>
<glyph name="B" format="1">
  <advance width="1316"/>
  <unicode hex="0042"/>
  <outline>
    <contour>
      <point x="464" y="969" type="line" name="hr00"/>
      <point x="435" y="983" type="line"/>
      <point x="530" y="1480" type="line"/>
      <point x="480" y="1514"/>
      <point x="422" y="1529"/>
      <point x="365" y="1529" type="curve" smooth="yes"/>
      <point x="256" y="1529"/>
      <point x="148" y="1474"/>
      <point x="88" y="1393" type="curve" smooth="yes"/>
      <point x="87" y="1391"/>
      <point x="87" y="1387"/>
      <point x="87" y="1381" type="curve" smooth="yes"/>
      <point x="87" y="1268"/>
      <point x="166" y="476"/>
      <point x="219" y="370" type="curve"/>
      <point x="191" y="278"/>
      <point x="179" y="237"/>
      <point x="159" y="163" type="curve" smooth="yes"/>
      <point x="154" y="146"/>
      <point x="152" y="133"/>
      <point x="152" y="123" type="curve" smooth="yes"/>
      <point x="152" y="34"/>
      <point x="601" y="-23"/>
      <point x="827" y="-23" type="curve" smooth="yes"/>
      <point x="864" y="-23"/>
      <point x="900" y="-21"/>
      <point x="936" y="-17" type="curve"/>
      <point x="1145" y="59"/>
      <point x="1289" y="276"/>
      <point x="1289" y="497" type="curve" smooth="yes"/>
      <point x="1289" y="535"/>
      <point x="1285" y="573"/>
      <point x="1276" y="611" type="curve"/>
      <point x="1229" y="670"/>
      <point x="971" y="695"/>
      <point x="901" y="697" type="curve"/>
      <point x="734" y="640" type="line"/>
      <point x="742" y="612" type="line"/>
      <point x="889" y="538" type="line"/>
      <point x="895" y="492"/>
      <point x="898" y="457"/>
      <point x="898" y="427" type="curve" smooth="yes"/>
      <point x="898" y="363"/>
      <point x="885" y="317"/>
      <point x="866" y="222" type="curve"/>
      <point x="739" y="230"/>
      <point x="582" y="277"/>
      <point x="465" y="344" type="curve"/>
      <point x="486" y="594"/>
      <point x="543" y="836"/>
      <point x="614" y="1075" type="curve"/>
    </contour>
    <contour>
      <point x="515" y="673" type="line"/>
      <point x="552" y="758"/>
      <point x="684" y="1036"/>
      <point x="740" y="1151" type="curve"/>
      <point x="787" y="1143" type="line"/>
      <point x="786" y="1056"/>
      <point x="774" y="832"/>
      <point x="762" y="689" type="curve" smooth="yes"/>
      <point x="762" y="685"/>
      <point x="761" y="682"/>
      <point x="761" y="678" type="curve"/>
      <point x="1070" y="659" type="line"/>
      <point x="1087" y="737" type="line" smooth="yes"/>
      <point x="1134" y="954"/>
      <point x="1175" y="1215"/>
      <point x="1179" y="1404" type="curve"/>
      <point x="1058" y="1506"/>
      <point x="897" y="1548"/>
      <point x="821" y="1548" type="curve" smooth="yes"/>
      <point x="763" y="1548"/>
      <point x="712" y="1536"/>
      <point x="691" y="1531" type="curve"/>
      <point x="355" y="699" type="line"/>
    </contour>
    <contour>
      <point x="461" y="750" type="curve"/>
      <point x="461" y="750"/>
      <point x="461" y="750"/>
      <point x="461" y="749" type="curve" smooth="yes"/>
      <point x="461" y="737"/>
      <point x="427" y="587"/>
      <point x="427" y="587" type="curve"/>
      <point x="427" y="587"/>
      <point x="900" y="489"/>
      <point x="900" y="489" type="curve"/>
      <point x="900" y="489"/>
      <point x="859" y="700"/>
      <point x="859" y="728" type="curve" smooth="yes"/>
      <point x="859" y="730"/>
      <point x="860" y="731"/>
      <point x="860" y="731" type="curve"/>
      <point x="866" y="734"/>
      <point x="458" y="750"/>
    </contour>
    <contour>
      <point x="617" y="0" type="move" name="top"/>
    </contour>
  </outline>
</glyph>
<glyph name="C" format="1">
  <advance width="1011"/>
  <unicode hex="0043"/>
  <outline>
    <contour>
      <point x="534" y="1192" type="line" name="hr00"/>
      <point x="634" y="1103"/>
      <point x="724" y="1048"/>
      <point x="815" y="1010" type="curve"/>
      <point x="870" y="1037"/>
      <point x="998" y="1227"/>
      <point x="944" y="1481" type="curve"/>
      <point x="628" y="1459" type="line"/>
      <point x="566" y="1491"/>
      <point x="430" y="1537"/>
      <point x="369" y="1549" type="curve"/>
      <point x="250" y="1505"/>
      <point x="108" y="1380"/>
      <point x="83" y="1286" type="curve"/>
      <point x="83" y="1271"/>
      <point x="83" y="1205"/>
      <point x="89" y="1171" type="curve" smooth="yes"/>
      <point x="111" y="1055"/>
      <point x="128" y="830"/>
      <point x="142" y="613" type="curve" smooth="yes"/>
      <point x="153" y="452"/>
      <point x="161" y="295"/>
      <point x="166" y="192" type="curve"/>
      <point x="171" y="159"/>
      <point x="187" y="131"/>
      <point x="233" y="95" type="curve" smooth="yes"/>
      <point x="292" y="49"/>
      <point x="394" y="-20"/>
      <point x="465" y="-20" type="curve"/>
      <point x="701" y="6"/>
      <point x="905" y="188"/>
      <point x="973" y="305" type="curve"/>
      <point x="898" y="472" type="line"/>
      <point x="702" y="399"/>
      <point x="550" y="332"/>
      <point x="470" y="320" type="curve"/>
      <point x="493" y="516"/>
      <point x="528" y="976"/>
      <point x="510" y="1170" type="curve"/>
    </contour>
    <contour>
      <point x="554" y="0" type="move" name="top"/>
    </contour>
  </outline>
</glyph>
<glyph name="F" format="1">
  <advance width="1075"/>
  <unicode hex="0046"/>
  <outline>
    <contour>
      <point x="373" y="1475" type="line" name="hr00"/>
      <point x="127" y="1541" type="line"/>
      <point x="64" y="1477"/>
      <point x="21" y="1357"/>
      <point x="21" y="1275" type="curve" smooth="yes"/>
      <point x="21" y="1267"/>
      <point x="21" y="1260"/>
      <point x="22" y="1253" type="curve"/>
      <point x="330" y="311" type="line"/>
      <point x="97" y="311" type="line"/>
      <point x="32" y="174" type="line"/>
      <point x="71" y="98"/>
      <point x="180" y="-20"/>
      <point x="305" y="-20" type="curve" smooth="yes"/>
      <point x="425" y="-20"/>
      <point x="613" y="65"/>
      <point x="624" y="194" type="curve" smooth="yes"/>
      <point x="638" y="348"/>
      <point x="594" y="488"/>
      <point x="545" y="627" type="curve"/>
      <point x="550" y="632" type="line"/>
      <point x="645" y="578"/>
      <point x="753" y="547"/>
      <point x="858" y="547" type="curve" smooth="yes"/>
      <point x="883" y="547"/>
      <point x="908" y="548"/>
      <point x="932" y="552" type="curve"/>
      <point x="955" y="577"/>
      <point x="983" y="660"/>
      <point x="983" y="746" type="curve" smooth="yes"/>
      <point x="983" y="800"/>
      <point x="971" y="860"/>
      <point x="942" y="904" type="curve"/>
      <point x="800" y="875"/>
      <point x="714" y="855"/>
      <point x="532" y="828" type="curve"/>
      <point x="441" y="1233" type="line"/>
    </contour>
    <contour>
      <point x="218" y="1251" type="line"/>
      <point x="433" y="1184"/>
      <point x="688" y="1109"/>
      <point x="921" y="1075" type="curve"/>
      <point x="989" y="1121"/>
      <point x="1024" y="1228"/>
      <point x="1024" y="1330" type="curve" smooth="yes"/>
      <point x="1024" y="1425"/>
      <point x="994" y="1516"/>
      <point x="930" y="1549" type="curve"/>
      <point x="576" y="1447" type="line"/>
      <point x="127" y="1541" type="line"/>
    </contour>
    <contour>
      <point x="579" y="0" type="move" name="top"/>
    </contour>
  </outline>
</glyph>
<glyph name="G" format="1">
  <advance width="1171"/>
  <unicode hex="0047"/>
  <outline>
    <contour>
      <point x="534" y="1192" type="line" name="hr01"/>
      <point x="634" y="1103"/>
      <point x="814" y="1029"/>
      <point x="905" y="1010" type="curve"/>
      <point x="960" y="1037"/>
      <point x="1088" y="1227"/>
      <point x="1034" y="1481" type="curve"/>
      <point x="691" y="1450" type="line"/>
      <point x="629" y="1482"/>
      <point x="430" y="1540"/>
      <point x="369" y="1549" type="curve"/>
      <point x="250" y="1505"/>
      <point x="108" y="1380"/>
      <point x="83" y="1286" type="curve"/>
      <point x="83" y="1271"/>
      <point x="89" y="1205"/>
      <point x="93" y="1171" type="curve" smooth="yes"/>
      <point x="107" y="1048"/>
      <point x="128" y="830"/>
      <point x="142" y="613" type="curve" smooth="yes"/>
      <point x="153" y="452"/>
      <point x="161" y="295"/>
      <point x="166" y="192" type="curve"/>
      <point x="171" y="159"/>
      <point x="187" y="131"/>
      <point x="233" y="95" type="curve" smooth="yes"/>
      <point x="282" y="57"/>
      <point x="361" y="2"/>
      <point x="427" y="-15" type="curve"/>
      <point x="440" y="-18"/>
      <point x="453" y="-20"/>
      <point x="465" y="1" type="curve"/>
      <point x="470" y="320" type="line"/>
      <point x="493" y="516"/>
      <point x="528" y="976"/>
      <point x="510" y="1170" type="curve"/>
    </contour>
    <contour>
      <point x="781" y="336" type="line"/>
      <point x="767" y="217"/>
      <point x="751" y="135"/>
      <point x="745" y="48" type="curve" name="hr02"/>
      <point x="795" y="-2"/>
      <point x="882" y="-19"/>
      <point x="965" y="-20" type="curve" smooth="yes"/>
      <point x="1021" y="-20"/>
      <point x="1084" y="2"/>
      <point x="1114" y="23" type="curve"/>
      <point x="1050" y="499" type="line"/>
      <point x="1148" y="720" type="line"/>
      <point x="1079" y="804"/>
      <point x="994" y="842"/>
      <point x="871" y="842" type="curve" smooth="yes"/>
      <point x="794" y="842"/>
      <point x="726" y="827"/>
      <point x="703" y="815" type="curve"/>
      <point x="703" y="778"/>
      <point x="710" y="655"/>
      <point x="764" y="497" type="curve"/>
      <point x="691" y="435"/>
      <point x="521" y="280"/>
      <point x="472" y="282" type="curve"/>
      <point x="208" y="346" type="line"/>
      <point x="208" y="214"/>
      <point x="167" y="174"/>
      <point x="261" y="95" type="curve" smooth="yes"/>
      <point x="317" y="49"/>
      <point x="375" y="-20"/>
      <point x="446" y="-20" type="curve" smooth="yes"/>
      <point x="574" y="-20"/>
      <point x="703" y="223"/>
      <point x="757" y="347" type="curve"/>
    </contour>
    <contour>
      <point x="634" y="0" type="move" name="top"/>
    </contour>
    <contour>
      <point x="666" y="-20" type="move" name="btm"/>
    </contour>
  </outline>
</glyph>
<glyph name="H" format="1">
  <advance width="1335"/>
  <unicode hex="0048"/>
  <outline>
    <contour>
      <point x="489" y="609" type="line" name="hr00"/>
      <point x="575" y="597"/>
      <point x="739" y="587"/>
      <point x="839" y="581" type="curve"/>
      <point x="820" y="456"/>
      <point x="799" y="345"/>
      <point x="801" y="228" type="curve" smooth="yes"/>
      <point x="803" y="73"/>
      <point x="902" y="-20"/>
      <point x="1043" y="-20" type="curve" smooth="yes"/>
      <point x="1174" y="-20"/>
      <point x="1277" y="98"/>
      <point x="1309" y="177" type="curve"/>
      <point x="1274" y="319" type="line"/>
      <point x="1138" y="316" type="line"/>
      <point x="1216" y="1490" type="line"/>
      <point x="1169" y="1519"/>
      <point x="1110" y="1530"/>
      <point x="1047" y="1530" type="curve" smooth="yes"/>
      <point x="898" y="1530"/>
      <point x="769" y="1457"/>
      <point x="730" y="1400" type="curve"/>
      <point x="751" y="1244"/>
      <point x="793" y="1032"/>
      <point x="838" y="844" type="curve"/>
      <point x="752" y="835"/>
      <point x="601" y="815"/>
      <point x="507" y="800" type="curve"/>
      <point x="306" y="801" type="line"/>
      <point x="283" y="652" type="line"/>
    </contour>
    <contour>
      <point x="230" y="656" type="curve"/>
      <point x="181" y="513"/>
      <point x="143" y="258"/>
      <point x="133" y="62" type="curve"/>
      <point x="186" y="12"/>
      <point x="272" y="-20"/>
      <point x="391" y="-20" type="curve" smooth="yes"/>
      <point x="462" y="-20"/>
      <point x="515" y="-9"/>
      <point x="558" y="19" type="curve"/>
      <point x="547" y="208"/>
      <point x="525" y="444"/>
      <point x="491" y="607" type="curve"/>
      <point x="566" y="1489" type="line"/>
      <point x="518" y="1518"/>
      <point x="463" y="1529"/>
      <point x="400" y="1529" type="curve" smooth="yes"/>
      <point x="251" y="1529"/>
      <point x="119" y="1456"/>
      <point x="82" y="1399" type="curve"/>
      <point x="118" y="1189"/>
      <point x="160" y="868"/>
    </contour>
    <contour>
      <point x="670" y="0" type="move" name="top"/>
    </contour>
  </outline>
</glyph>
<glyph name="J" format="1">
  <advance width="999"/>
  <unicode hex="004A"/>
  <outline>
    <contour>
      <point x="444" y="1164" type="line" name="hr01"/>
      <point x="441" y="726" type="line"/>
      <point x="506" y="79" type="line"/>
      <point x="459" y="95"/>
      <point x="289" y="216"/>
      <point x="190" y="276" type="curve"/>
      <point x="133" y="225"/>
      <point x="94" y="55"/>
      <point x="94" y="-3" type="curve" smooth="yes"/>
      <point x="94" y="-15"/>
      <point x="95" y="-27"/>
      <point x="96" y="-40" type="curve"/>
      <point x="140" y="-98"/>
      <point x="338" y="-159"/>
      <point x="488" y="-160" type="curve" smooth="yes"/>
      <point x="503" y="-160"/>
      <point x="517" y="-159"/>
      <point x="531" y="-157" type="curve"/>
      <point x="707" y="-97"/>
      <point x="833" y="50"/>
      <point x="876" y="216" type="curve"/>
      <point x="715" y="818" type="line"/>
      <point x="784" y="1191" type="line"/>
    </contour>
    <contour>
      <point x="782" y="1153" type="line"/>
      <point x="801" y="1139"/>
      <point x="836" y="1133"/>
      <point x="871" y="1133" type="curve" smooth="yes"/>
      <point x="904" y="1133"/>
      <point x="938" y="1139"/>
      <point x="957" y="1150" type="curve"/>
      <point x="968" y="1180"/>
      <point x="973" y="1216"/>
      <point x="973" y="1253" type="curve" smooth="yes"/>
      <point x="973" y="1367"/>
      <point x="923" y="1494"/>
      <point x="848" y="1549" type="curve"/>
      <point x="747" y="1545"/>
      <point x="666" y="1452"/>
      <point x="628" y="1395" type="curve"/>
      <point x="538" y="1454"/>
      <point x="338" y="1529"/>
      <point x="227" y="1529" type="curve" smooth="yes"/>
      <point x="107" y="1529"/>
      <point x="7" y="1444"/>
      <point x="7" y="1284" type="curve" name="hr02" smooth="yes"/>
      <point x="7" y="1148"/>
      <point x="87" y="986"/>
      <point x="146" y="924" type="curve"/>
      <point x="312" y="960" type="line"/>
      <point x="312" y="1176" type="line"/>
      <point x="497" y="1153" type="line"/>
    </contour>
  </outline>
</glyph>
<glyph name="K" format="1">
  <advance width="1324"/>
  <unicode hex="004B"/>
  <outline>
    <contour>
      <point x="842" y="1549" type="curve" name="hr01"/>
      <point x="746" y="1505"/>
      <point x="687" y="1375"/>
      <point x="672" y="1233" type="curve"/>
      <point x="813" y="1183" type="line"/>
      <point x="781" y="1038"/>
      <point x="632" y="713"/>
      <point x="559" y="594" type="curve"/>
      <point x="692" y="544" type="line"/>
      <point x="725" y="472" type="line"/>
      <point x="821" y="571"/>
      <point x="1195" y="1078"/>
      <point x="1228" y="1372" type="curve"/>
      <point x="1124" y="1504"/>
      <point x="927" y="1549"/>
    </contour>
    <contour>
      <point x="230" y="656" type="curve"/>
      <point x="181" y="513"/>
      <point x="133" y="258"/>
      <point x="123" y="62" type="curve" name="hr02"/>
      <point x="176" y="12"/>
      <point x="272" y="-20"/>
      <point x="391" y="-20" type="curve" smooth="yes"/>
      <point x="462" y="-20"/>
      <point x="525" y="-9"/>
      <point x="568" y="19" type="curve"/>
      <point x="557" y="208"/>
      <point x="522" y="420"/>
      <point x="488" y="583" type="curve"/>
      <point x="566" y="1489" type="line"/>
      <point x="518" y="1518"/>
      <point x="463" y="1529"/>
      <point x="400" y="1529" type="curve" smooth="yes"/>
      <point x="251" y="1529"/>
      <point x="119" y="1456"/>
      <point x="82" y="1399" type="curve"/>
      <point x="118" y="1189"/>
      <point x="160" y="868"/>
    </contour>
    <contour>
      <point x="693" y="532" type="line"/>
      <point x="699" y="483"/>
      <point x="722" y="317"/>
      <point x="765" y="201" type="curve" smooth="yes"/>
      <point x="800" y="109"/>
      <point x="849" y="27"/>
      <point x="929" y="2" type="curve" smooth="yes"/>
      <point x="972" y="-12"/>
      <point x="1013" y="-19"/>
      <point x="1051" y="-19" type="curve" smooth="yes"/>
      <point x="1126" y="-19"/>
      <point x="1189" y="9"/>
      <point x="1230" y="69" type="curve" smooth="yes"/>
      <point x="1274" y="133"/>
      <point x="1324" y="245"/>
      <point x="1324" y="350" type="curve"/>
      <point x="1206" y="452" type="line"/>
      <point x="1162" y="415"/>
      <point x="1116" y="382"/>
      <point x="1071" y="366" type="curve"/>
      <point x="995" y="440"/>
      <point x="910" y="603"/>
      <point x="870" y="680" type="curve"/>
    </contour>
    <contour>
      <point x="841" y="691" type="line"/>
      <point x="747" y="681"/>
      <point x="531" y="663"/>
      <point x="444" y="647" type="curve"/>
      <point x="432" y="489" type="line"/>
      <point x="505" y="476"/>
      <point x="683" y="463"/>
      <point x="793" y="456" type="curve"/>
      <point x="932" y="454" type="line"/>
    </contour>
    <contour>
      <point x="689" y="0" type="move" name="btm"/>
    </contour>
  </outline>
</glyph>
<glyph name="L" format="1">
  <advance width="1142"/>
  <unicode hex="004C"/>
  <outline>
    <contour>
      <point x="55" y="299" type="line" name="hr00"/>
      <point x="64" y="186"/>
      <point x="174" y="20"/>
      <point x="258" y="-20" type="curve"/>
      <point x="374" y="-13"/>
      <point x="452" y="61"/>
      <point x="504" y="150" type="curve"/>
      <point x="602" y="72"/>
      <point x="739" y="-20"/>
      <point x="862" y="-20" type="curve" smooth="yes"/>
      <point x="1064" y="-20"/>
      <point x="1111" y="181"/>
      <point x="1111" y="369" type="curve" smooth="yes"/>
      <point x="1111" y="476"/>
      <point x="1096" y="579"/>
      <point x="1079" y="625" type="curve"/>
      <point x="895" y="649" type="line"/>
      <point x="800" y="360" type="line"/>
      <point x="547" y="408" type="line"/>
      <point x="288" y="437" type="line"/>
      <point x="279" y="437"/>
      <point x="250" y="437"/>
      <point x="241" y="437" type="curve" smooth="yes"/>
      <point x="207" y="437"/>
      <point x="171" y="433"/>
      <point x="144" y="423" type="curve"/>
    </contour>
    <contour>
      <point x="527" y="332" type="line"/>
      <point x="639" y="1489" type="line"/>
      <point x="591" y="1518"/>
      <point x="541" y="1529"/>
      <point x="478" y="1529" type="curve" smooth="yes"/>
      <point x="329" y="1529"/>
      <point x="197" y="1456"/>
      <point x="160" y="1399" type="curve"/>
      <point x="196" y="1189"/>
      <point x="194" y="871"/>
      <point x="285" y="373" type="curve"/>
    </contour>
    <contour>
      <point x="423" y="0" type="move" name="top"/>
    </contour>
  </outline>
</glyph>
<glyph name="M" format="1">
  <advance width="1859"/>
  <unicode hex="004D"/>
  <outline>
    <contour>
      <point x="179" y="9" type="line" name="hr01"/>
      <point x="217" y="-9"/>
      <point x="261" y="-20"/>
      <point x="314" y="-20" type="curve" smooth="yes"/>
      <point x="489" y="-20"/>
      <point x="547" y="103"/>
      <point x="545" y="248" type="curve"/>
      <point x="540" y="507"/>
      <point x="461" y="1069"/>
      <point x="440" y="1168" type="curve"/>
      <point x="459" y="1175" type="line"/>
      <point x="748" y="286" type="line"/>
      <point x="714" y="236"/>
      <point x="707" y="103"/>
      <point x="707" y="62" type="curve" name="hr02"/>
      <point x="767" y="12"/>
      <point x="870" y="-19"/>
      <point x="970" y="-19" type="curve" smooth="yes"/>
      <point x="1044" y="-19"/>
      <point x="1116" y="-3"/>
      <point x="1168" y="35" type="curve"/>
      <point x="1150" y="137"/>
      <point x="1137" y="231"/>
      <point x="1094" y="323" type="curve"/>
      <point x="1288" y="1174" type="line"/>
      <point x="1307" y="1171" type="line"/>
      <point x="1302" y="1019"/>
      <point x="1303" y="729"/>
      <point x="1315" y="494" type="curve" smooth="yes"/>
      <point x="1321" y="366"/>
      <point x="1328" y="237"/>
      <point x="1336" y="174" type="curve" smooth="yes"/>
      <point x="1352" y="45"/>
      <point x="1458" y="-20"/>
      <point x="1575" y="-20" type="curve" name="hr03" smooth="yes"/>
      <point x="1746" y="-20"/>
      <point x="1808" y="136"/>
      <point x="1829" y="168" type="curve"/>
      <point x="1797" y="334" type="line"/>
      <point x="1611" y="307" type="line"/>
      <point x="1676" y="645"/>
      <point x="1694" y="1101"/>
      <point x="1702" y="1299" type="curve"/>
      <point x="1615" y="1392"/>
      <point x="1313" y="1534"/>
      <point x="1207" y="1549" type="curve"/>
      <point x="1072" y="1496"/>
      <point x="1003" y="1367"/>
      <point x="992" y="1247" type="curve"/>
      <point x="1017" y="1232"/>
      <point x="1052" y="1216"/>
      <point x="1090" y="1200" type="curve"/>
      <point x="1072" y="1110"/>
      <point x="1037" y="925"/>
      <point x="1012" y="777" type="curve"/>
      <point x="986" y="557" type="line"/>
      <point x="978" y="556" type="line"/>
      <point x="806" y="1346" type="line"/>
      <point x="667" y="1452"/>
      <point x="374" y="1537"/>
      <point x="280" y="1549" type="curve"/>
      <point x="140" y="1478"/>
      <point x="102" y="1346"/>
      <point x="93" y="1226" type="curve"/>
      <point x="262" y="1175" type="line"/>
      <point x="193" y="305" type="line"/>
    </contour>
    <contour>
      <point x="222" y="294" type="line"/>
      <point x="82" y="305" type="line"/>
      <point x="37" y="142" type="line"/>
      <point x="75" y="43"/>
      <point x="183" y="-18"/>
      <point x="295" y="-20" type="curve" smooth="yes"/>
      <point x="410" y="-22"/>
      <point x="474" y="41"/>
      <point x="512" y="133" type="curve" smooth="yes"/>
      <point x="557" y="240"/>
      <point x="465" y="294"/>
      <point x="482" y="426" type="curve"/>
    </contour>
    <contour>
      <point x="896" y="0" type="move" name="top"/>
    </contour>
  </outline>
</glyph>
<glyph name="N" format="1">
  <advance width="1371"/>
  <unicode hex="004E"/>
  <outline>
    <contour>
      <point x="642" y="1385" type="line" name="hr01"/>
      <point x="493" y="1491"/>
      <point x="282" y="1537"/>
      <point x="187" y="1549" type="curve"/>
      <point x="52" y="1477"/>
      <point x="28" y="1346"/>
      <point x="28" y="1226" type="curve"/>
      <point x="78" y="1194"/>
      <point x="144" y="1179"/>
      <point x="201" y="1175" type="curve"/>
      <point x="209" y="296" type="line"/>
      <point x="98" y="305" type="line"/>
      <point x="67" y="142" type="line"/>
      <point x="114" y="43"/>
      <point x="227" y="-20"/>
      <point x="346" y="-20" type="curve" smooth="yes"/>
      <point x="499" y="-20"/>
      <point x="558" y="78"/>
      <point x="558" y="203" type="curve" smooth="yes"/>
      <point x="558" y="218"/>
      <point x="557" y="233"/>
      <point x="556" y="248" type="curve" smooth="yes"/>
      <point x="529" y="507"/>
      <point x="381" y="1069"/>
      <point x="351" y="1168" type="curve"/>
      <point x="356" y="1170" type="line"/>
      <point x="793" y="245" type="line"/>
      <point x="775" y="207"/>
      <point x="767" y="141"/>
      <point x="767" y="93" type="curve" smooth="yes"/>
      <point x="767" y="75"/>
      <point x="768" y="60"/>
      <point x="770" y="49" type="curve" name="hr02"/>
      <point x="829" y="2"/>
      <point x="959" y="-21"/>
      <point x="1049" y="-21" type="curve" smooth="yes"/>
      <point x="1168" y="-21"/>
      <point x="1272" y="24"/>
      <point x="1316" y="131" type="curve"/>
      <point x="1299" y="228"/>
      <point x="1261" y="283"/>
      <point x="1208" y="348" type="curve"/>
      <point x="1294" y="1486" type="line"/>
      <point x="1253" y="1514"/>
      <point x="1179" y="1529"/>
      <point x="1126" y="1529" type="curve" smooth="yes"/>
      <point x="1020" y="1529"/>
      <point x="907" y="1483"/>
      <point x="882" y="1430" type="curve"/>
      <point x="882" y="1280"/>
      <point x="993" y="633"/>
      <point x="1034" y="395" type="curve"/>
      <point x="1030" y="391" type="line"/>
    </contour>
    <contour>
      <point x="721" y="0" type="move" name="top"/>
    </contour>
  </outline>
</glyph>
<glyph name="O" format="1">
  <advance width="1291"/>
  <unicode hex="004F"/>
  <outline>
    <contour>
      <point x="628" y="1549" type="curve" name="hr00" smooth="yes"/>
      <point x="559" y="1549"/>
      <point x="213" y="1435"/>
      <point x="138" y="1337" type="curve" smooth="yes"/>
      <point x="101" y="1288"/>
      <point x="102" y="1154"/>
      <point x="102" y="1081" type="curve" smooth="yes"/>
      <point x="102" y="879"/>
      <point x="148" y="386"/>
      <point x="185" y="147" type="curve"/>
      <point x="274" y="67"/>
      <point x="551" y="-12"/>
      <point x="699" y="-21" type="curve"/>
      <point x="771" y="-14"/>
      <point x="837" y="11"/>
      <point x="929" y="58" type="curve" smooth="yes"/>
      <point x="991" y="90"/>
      <point x="1086" y="132"/>
      <point x="1101" y="190" type="curve" smooth="yes"/>
      <point x="1139" y="325"/>
      <point x="1189" y="841"/>
      <point x="1189" y="1060" type="curve" smooth="yes"/>
      <point x="1189" y="1183"/>
      <point x="1182" y="1240"/>
      <point x="1173" y="1321" type="curve"/>
      <point x="1078" y="1436"/>
      <point x="726" y="1549"/>
    </contour>
    <contour>
      <point x="566" y="1209" type="line"/>
      <point x="777" y="1118" type="line"/>
      <point x="789" y="991"/>
      <point x="797" y="782"/>
      <point x="797" y="586" type="curve" smooth="yes"/>
      <point x="797" y="466"/>
      <point x="794" y="354"/>
      <point x="786" y="280" type="curve"/>
      <point x="725" y="238" type="line"/>
      <point x="655" y="253"/>
      <point x="555" y="299"/>
      <point x="500" y="331" type="curve"/>
      <point x="490" y="444"/>
      <point x="486" y="612"/>
      <point x="486" y="786" type="curve" smooth="yes"/>
      <point x="486" y="935"/>
      <point x="490" y="1085"/>
      <point x="497" y="1174" type="curve"/>
    </contour>
    <contour>
      <point x="643" y="0" type="move" name="top"/>
    </contour>
  </outline>
</glyph>
<glyph name="Q" format="1">
  <advance width="1291"/>
  <unicode hex="0051"/>
  <outline>
    <contour>
      <point x="925" y="273" type="line" name="hr00"/>
      <point x="421" y="-69" type="line"/>
      <point x="366" y="-20" type="line"/>
      <point x="313" y="-28"/>
      <point x="269" y="-51"/>
      <point x="221" y="-77" type="curve"/>
      <point x="215" y="-212"/>
      <point x="265" y="-356"/>
      <point x="353" y="-410" type="curve"/>
      <point x="425" y="-405"/>
      <point x="475" y="-367"/>
      <point x="513" y="-318" type="curve"/>
      <point x="692" y="-386"/>
      <point x="939" y="-434"/>
      <point x="1040" y="-446" type="curve"/>
      <point x="1054" y="-442"/>
      <point x="1063" y="-434"/>
      <point x="1068" y="-424" type="curve"/>
      <point x="1150" y="-367"/>
      <point x="1217" y="-176"/>
      <point x="1177" y="-76" type="curve"/>
      <point x="1069" y="-90"/>
      <point x="799" y="-111"/>
      <point x="627" y="-123" type="curve"/>
      <point x="623" y="-94" type="line"/>
      <point x="626" y="-82"/>
      <point x="896" y="23"/>
      <point x="1008" y="99" type="curve"/>
    </contour>
    <contour>
      <point x="628" y="1549" type="curve" smooth="yes"/>
      <point x="559" y="1549"/>
      <point x="213" y="1435"/>
      <point x="138" y="1337" type="curve" smooth="yes"/>
      <point x="101" y="1288"/>
      <point x="102" y="1154"/>
      <point x="102" y="1081" type="curve" smooth="yes"/>
      <point x="102" y="879"/>
      <point x="148" y="386"/>
      <point x="185" y="147" type="curve"/>
      <point x="274" y="67"/>
      <point x="559" y="25"/>
      <point x="707" y="16" type="curve"/>
      <point x="779" y="23"/>
      <point x="837" y="11"/>
      <point x="929" y="58" type="curve" smooth="yes"/>
      <point x="991" y="90"/>
      <point x="1086" y="132"/>
      <point x="1101" y="190" type="curve" smooth="yes"/>
      <point x="1139" y="325"/>
      <point x="1189" y="841"/>
      <point x="1189" y="1060" type="curve" smooth="yes"/>
      <point x="1189" y="1183"/>
      <point x="1182" y="1240"/>
      <point x="1173" y="1321" type="curve"/>
      <point x="1078" y="1436"/>
      <point x="726" y="1549"/>
    </contour>
    <contour>
      <point x="566" y="1209" type="line"/>
      <point x="777" y="1118" type="line"/>
      <point x="789" y="991"/>
      <point x="797" y="782"/>
      <point x="797" y="586" type="curve" smooth="yes"/>
      <point x="797" y="466"/>
      <point x="794" y="354"/>
      <point x="786" y="280" type="curve"/>
      <point x="725" y="238" type="line"/>
      <point x="655" y="253"/>
      <point x="555" y="299"/>
      <point x="500" y="331" type="curve"/>
      <point x="490" y="444"/>
      <point x="486" y="612"/>
      <point x="486" y="786" type="curve" smooth="yes"/>
      <point x="486" y="935"/>
      <point x="490" y="1085"/>
      <point x="497" y="1174" type="curve"/>
    </contour>
  </outline>
</glyph>
<glyph name="R" format="1">
  <advance width="1364"/>
  <unicode hex="0052"/>
  <outline>
    <contour>
      <point x="737" y="498" type="line" name="hr00"/>
      <point x="747" y="410"/>
      <point x="772" y="58"/>
      <point x="948" y="2" type="curve" smooth="yes"/>
      <point x="991" y="-12"/>
      <point x="1032" y="-20"/>
      <point x="1070" y="-20" type="curve" smooth="yes"/>
      <point x="1145" y="-20"/>
      <point x="1208" y="9"/>
      <point x="1251" y="69" type="curve" smooth="yes"/>
      <point x="1297" y="133"/>
      <point x="1351" y="245"/>
      <point x="1355" y="350" type="curve"/>
      <point x="1241" y="452" type="line"/>
      <point x="1195" y="415"/>
      <point x="1149" y="382"/>
      <point x="1104" y="366" type="curve"/>
      <point x="1030" y="440"/>
      <point x="982" y="535"/>
      <point x="944" y="612" type="curve"/>
    </contour>
    <contour>
      <point x="465" y="344" type="line"/>
      <point x="486" y="594"/>
      <point x="439" y="749"/>
      <point x="510" y="988" type="curve"/>
      <point x="464" y="969" type="line"/>
      <point x="435" y="983" type="line"/>
      <point x="530" y="1480" type="line"/>
      <point x="384" y="1579"/>
      <point x="179" y="1517"/>
      <point x="88" y="1393" type="curve"/>
      <point x="79" y="1354"/>
      <point x="163" y="482"/>
      <point x="219" y="370" type="curve"/>
    </contour>
    <contour>
      <point x="482" y="654" type="line"/>
      <point x="519" y="739"/>
      <point x="705" y="1037"/>
      <point x="780" y="1151" type="curve"/>
      <point x="827" y="1143" type="line"/>
      <point x="838" y="1043"/>
      <point x="831" y="819"/>
      <point x="795" y="633" type="curve"/>
      <point x="1123" y="723" type="line"/>
      <point x="1192" y="950"/>
      <point x="1222" y="1216"/>
      <point x="1219" y="1404" type="curve"/>
      <point x="1099" y="1506"/>
      <point x="937" y="1549"/>
      <point x="861" y="1548" type="curve" smooth="yes"/>
      <point x="803" y="1547"/>
      <point x="752" y="1537"/>
      <point x="731" y="1531" type="curve"/>
      <point x="335" y="699" type="line"/>
    </contour>
    <contour>
      <point x="1028" y="709" type="line"/>
      <point x="461" y="670" type="line" smooth="yes"/>
      <point x="458" y="670"/>
      <point x="427" y="507"/>
      <point x="427" y="507" type="curve"/>
      <point x="830" y="453" type="line"/>
      <point x="945" y="530"/>
      <point x="1049" y="614"/>
      <point x="1123" y="723" type="curve"/>
    </contour>
    <contour>
      <point x="219" y="371" type="line"/>
      <point x="190" y="291"/>
      <point x="170" y="230"/>
      <point x="137" y="69" type="curve"/>
      <point x="187" y="11"/>
      <point x="294" y="-22"/>
      <point x="396" y="-20" type="curve" smooth="yes"/>
      <point x="458" y="-19"/>
      <point x="519" y="-4"/>
      <point x="563" y="27" type="curve"/>
      <point x="552" y="161"/>
      <point x="511" y="417"/>
      <point x="470" y="507" type="curve"/>
    </contour>
    <contour>
      <point x="665" y="0" type="move" name="top"/>
    </contour>
    <contour>
      <point x="700" y="-20" type="move" name="btm"/>
    </contour>
  </outline>
</glyph>
<glyph name="S" format="1">
  <advance width="1050"/>
  <unicode hex="0053"/>
  <outline>
    <contour>
      <point x="594" y="243" type="line" name="hr00"/>
      <point x="465" y="331"/>
      <point x="310" y="410"/>
      <point x="148" y="422" type="curve"/>
      <point x="132" y="383"/>
      <point x="48" y="247"/>
      <point x="169" y="37" type="curve"/>
      <point x="159" y="36"/>
      <point x="677" y="-22"/>
      <point x="667" y="-20" type="curve"/>
      <point x="772" y="24"/>
      <point x="852" y="92"/>
      <point x="928" y="168" type="curve"/>
      <point x="950" y="238"/>
      <point x="1002" y="431"/>
      <point x="993" y="528" type="curve"/>
      <point x="877" y="698"/>
      <point x="526" y="936"/>
      <point x="418" y="998" type="curve"/>
      <point x="456" y="1208" type="line"/>
      <point x="469" y="1208" type="line"/>
      <point x="591" y="1088"/>
      <point x="765" y="1009"/>
      <point x="856" y="990" type="curve"/>
      <point x="911" y="1017"/>
      <point x="1050" y="1201"/>
      <point x="986" y="1455" type="curve"/>
      <point x="666" y="1440" type="line"/>
      <point x="625" y="1460"/>
      <point x="509" y="1527"/>
      <point x="436" y="1549" type="curve"/>
      <point x="286" y="1485"/>
      <point x="165" y="1399"/>
      <point x="69" y="1244" type="curve"/>
      <point x="81" y="1129"/>
      <point x="89" y="870"/>
      <point x="113" y="779" type="curve"/>
      <point x="180" y="663"/>
      <point x="531" y="489"/>
      <point x="658" y="454" type="curve"/>
      <point x="675" y="396"/>
      <point x="666" y="328"/>
      <point x="654" y="268" type="curve"/>
    </contour>
    <contour>
      <point x="617" y="0" type="move" name="top"/>
    </contour>
    <contour>
      <point x="617" y="-20" type="move" name="btm"/>
    </contour>
  </outline>
</glyph>
<glyph name="X" format="1">
  <advance width="1345"/>
  <unicode hex="0058"/>
  <outline>
    <contour>
      <point x="621" y="560" type="line" name="hr01"/>
      <point x="632" y="440"/>
      <point x="671" y="236"/>
      <point x="755" y="84" type="curve" smooth="yes"/>
      <point x="794" y="13"/>
      <point x="878" y="-20"/>
      <point x="959" y="-20" type="curve" name="hr02" smooth="yes"/>
      <point x="1065" y="-20"/>
      <point x="1144" y="16"/>
      <point x="1184" y="89" type="curve" smooth="yes"/>
      <point x="1235" y="181"/>
      <point x="1270" y="285"/>
      <point x="1290" y="405" type="curve"/>
      <point x="1155" y="505" type="line"/>
      <point x="1013" y="379" type="line"/>
      <point x="778" y="786" type="line"/>
      <point x="937" y="1126" type="line"/>
      <point x="1050" y="940" type="line"/>
      <point x="1159" y="964"/>
      <point x="1243" y="1013"/>
      <point x="1302" y="1097" type="curve"/>
      <point x="1299" y="1258"/>
      <point x="1198" y="1430"/>
      <point x="1088" y="1529" type="curve"/>
      <point x="970" y="1524"/>
      <point x="851" y="1462"/>
      <point x="804" y="1408" type="curve" smooth="yes"/>
      <point x="780" y="1381"/>
      <point x="734" y="1182"/>
      <point x="702" y="936" type="curve"/>
      <point x="695" y="1036"/>
      <point x="677" y="1193"/>
      <point x="599" y="1362" type="curve" smooth="yes"/>
      <point x="547" y="1474"/>
      <point x="471" y="1527"/>
      <point x="356" y="1527" type="curve" smooth="yes"/>
      <point x="313" y="1527"/>
      <point x="264" y="1520"/>
      <point x="209" y="1505" type="curve"/>
      <point x="108" y="1450"/>
      <point x="43" y="1268"/>
      <point x="26" y="1157" type="curve"/>
      <point x="163" y="1023" type="line"/>
      <point x="318" y="1120" type="line"/>
      <point x="505" y="746" type="line"/>
      <point x="381" y="433" type="line"/>
      <point x="240" y="575" type="line"/>
      <point x="151" y="543"/>
      <point x="86" y="499"/>
      <point x="32" y="421" type="curve"/>
      <point x="56" y="254"/>
      <point x="175" y="-19"/>
      <point x="293" y="-19" type="curve" name="hr03" smooth="yes"/>
      <point x="401" y="-19"/>
      <point x="477" y="121"/>
      <point x="531" y="271" type="curve" smooth="yes"/>
      <point x="570" y="379"/>
      <point x="597" y="493"/>
      <point x="615" y="562" type="curve"/>
    </contour>
  </outline>
</glyph>
<glyph name="Y" format="1">
  <advance width="1168"/>
  <unicode hex="0059"/>
  <outline>
    <contour>
      <point x="0" y="1269" type="curve" name="hr00"/>
      <point x="120" y="1131" type="line"/>
      <point x="262" y="621" type="line"/>
      <point x="411" y="505" type="line"/>
      <point x="401" y="423"/>
      <point x="372" y="343"/>
      <point x="374" y="228" type="curve" smooth="yes"/>
      <point x="376" y="73"/>
      <point x="532" y="-20"/>
      <point x="673" y="-20" type="curve" smooth="yes"/>
      <point x="804" y="-20"/>
      <point x="993" y="118"/>
      <point x="1044" y="236" type="curve"/>
      <point x="969" y="382" type="line"/>
      <point x="904" y="355"/>
      <point x="778" y="315"/>
      <point x="723" y="307" type="curve"/>
      <point x="692" y="498" type="line"/>
      <point x="828" y="574" type="line"/>
      <point x="974" y="739"/>
      <point x="1111" y="1026"/>
      <point x="1165" y="1165" type="curve"/>
      <point x="1159" y="1317"/>
      <point x="1109" y="1459"/>
      <point x="1000" y="1549" type="curve"/>
      <point x="856" y="1531"/>
      <point x="676" y="1463"/>
      <point x="611" y="1308" type="curve"/>
      <point x="661" y="1198"/>
      <point x="716" y="1137"/>
      <point x="783" y="1078" type="curve"/>
      <point x="630" y="640" type="line"/>
      <point x="585" y="640" type="line"/>
      <point x="452" y="1480" type="line"/>
      <point x="399" y="1517"/>
      <point x="337" y="1530"/>
      <point x="265" y="1529" type="curve" smooth="yes"/>
      <point x="201" y="1528"/>
      <point x="9" y="1494"/>
    </contour>
    <contour>
      <point x="600" y="0" type="move" name="top"/>
    </contour>
  </outline>
</glyph>
<glyph name="Z" format="1">
  <advance width="1208"/>
  <unicode hex="005A"/>
  <outline>
    <contour>
      <point x="541" y="419" type="curve" name="hr00"/>
      <point x="679" y="603"/>
      <point x="944" y="1011"/>
      <point x="1011" y="1120" type="curve"/>
      <point x="1134" y="1116" type="line"/>
      <point x="1208" y="1274"/>
      <point x="1183" y="1512"/>
      <point x="1030" y="1549" type="curve"/>
      <point x="940" y="1529"/>
      <point x="878" y="1476"/>
      <point x="826" y="1423" type="curve"/>
      <point x="682" y="1476"/>
      <point x="502" y="1529"/>
      <point x="356" y="1549" type="curve"/>
      <point x="314" y="1551"/>
      <point x="88" y="1465"/>
      <point x="65" y="1351" type="curve"/>
      <point x="34" y="1186"/>
      <point x="112" y="928"/>
      <point x="186" y="847" type="curve"/>
      <point x="371" y="887" type="line"/>
      <point x="416" y="1190" type="line"/>
      <point x="653" y="1154" type="line"/>
      <point x="288" y="469" type="line"/>
      <point x="247" y="491"/>
      <point x="205" y="503"/>
      <point x="168" y="511" type="curve"/>
      <point x="128" y="489"/>
      <point x="73" y="439"/>
      <point x="30" y="381" type="curve"/>
      <point x="20" y="251"/>
      <point x="110" y="40"/>
      <point x="206" y="-20" type="curve"/>
      <point x="334" y="-20"/>
      <point x="425" y="119"/>
      <point x="457" y="249" type="curve"/>
      <point x="487" y="226"/>
      <point x="559" y="191"/>
    </contour>
    <contour>
      <point x="377" y="282" type="line"/>
      <point x="504" y="163"/>
      <point x="738" y="-20"/>
      <point x="912" y="-20" type="curve" smooth="yes"/>
      <point x="1114" y="-20"/>
      <point x="1161" y="181"/>
      <point x="1161" y="369" type="curve" smooth="yes"/>
      <point x="1161" y="476"/>
      <point x="1146" y="579"/>
      <point x="1129" y="625" type="curve"/>
      <point x="945" y="649" type="line"/>
      <point x="850" y="360" type="line"/>
      <point x="529" y="421" type="line"/>
    </contour>
    <contour>
      <point x="648" y="0" type="move" name="top"/>
    </contour>
  </outline>
</glyph>
<glyph name="bracketright" format="1">
  <advance width="710"/>
  <unicode hex="005D"/>
  <outline>
    <contour>
      <point x="252" y="-52" type="line" name="hr00"/>
      <point x="190" y="-23"/>
      <point x="118" y="-12"/>
      <point x="56" y="-18" type="curve"/>
      <point x="33" y="-106"/>
      <point x="27" y="-158"/>
      <point x="31" y="-246" type="curve"/>
      <point x="353" y="-292" type="line"/>
      <point x="504" y="-167" type="line"/>
      <point x="507" y="1802" type="line"/>
      <point x="60" y="1849" type="line"/>
      <point x="11" y="1633" type="line"/>
      <point x="61" y="1595"/>
      <point x="131" y="1576"/>
      <point x="179" y="1565" type="curve"/>
    </contour>
  </outline>
</glyph>
<glyph name="asciicircum" format="1">
  <advance width="1209"/>
  <unicode hex="005E"/>
  <outline>
    <contour>
      <point x="942" y="332" type="line" name="hr00"/>
      <point x="1016" y="341"/>
      <point x="1121" y="415"/>
      <point x="1144" y="470" type="curve"/>
      <point x="782" y="1445" type="line"/>
      <point x="696" y="1460"/>
      <point x="490" y="1430"/>
      <point x="443" y="1389" type="curve"/>
      <point x="386" y="1297"/>
      <point x="101" y="583"/>
      <point x="62" y="460" type="curve"/>
      <point x="94" y="406"/>
      <point x="190" y="339"/>
      <point x="268" y="332" type="curve"/>
      <point x="575" y="1017" type="line"/>
    </contour>
  </outline>
</glyph>
<glyph name="underscore" format="1">
  <advance width="1698"/>
  <unicode hex="005F"/>
  <outline>
    <contour>
      <point x="1647" y="-371" type="line" name="hr00"/>
      <point x="1697" y="-304"/>
      <point x="1738" y="-196"/>
      <point x="1715" y="-112" type="curve"/>
      <point x="15" y="-111" type="line"/>
      <point x="-31" y="-189"/>
      <point x="-59" y="-291"/>
      <point x="-41" y="-373" type="curve"/>
    </contour>
  </outline>
</glyph>
<glyph name="grave" format="1">
  <advance width="692"/>
  <unicode hex="0060"/>
  <outline>
    <contour>
      <point x="290" y="1732" type="curve" name="hr00"/>
      <point x="401" y="1602"/>
      <point x="473" y="1508"/>
      <point x="598" y="1402" type="curve"/>
      <point x="574" y="1336"/>
      <point x="531" y="1274"/>
      <point x="499" y="1247" type="curve"/>
      <point x="364" y="1274"/>
      <point x="163" y="1369"/>
      <point x="75" y="1446" type="curve"/>
      <point x="76" y="1559"/>
      <point x="172" y="1691"/>
    </contour>
    <contour>
      <point x="423" y="0" type="move" name="_top"/>
    </contour>
  </outline>
</glyph>
<glyph name="b" format="1">
  <advance width="1140"/>
  <unicode hex="0062"/>
  <outline>
    <contour>
      <point x="133" y="163" type="curve" name="hr00" smooth="yes"/>
      <point x="119" y="105"/>
      <point x="131" y="96"/>
      <point x="167" y="77" type="curve" smooth="yes"/>
      <point x="301" y="5"/>
      <point x="536" y="-22"/>
      <point x="676" y="-20" type="curve" smooth="yes"/>
      <point x="756" y="-19"/>
      <point x="870" y="-9"/>
      <point x="915" y="23" type="curve"/>
      <point x="999" y="258"/>
      <point x="1097" y="726"/>
      <point x="1104" y="1038" type="curve"/>
      <point x="984" y="1140"/>
      <point x="822" y="1183"/>
      <point x="746" y="1182" type="curve" smooth="yes"/>
      <point x="688" y="1181"/>
      <point x="657" y="1171"/>
      <point x="636" y="1165" type="curve"/>
      <point x="414" y="517" type="line"/>
      <point x="399" y="523" type="line"/>
      <point x="183" y="370" type="line"/>
      <point x="183" y="369"/>
      <point x="182" y="369"/>
      <point x="182" y="368" type="curve"/>
      <point x="184" y="368" type="line"/>
      <point x="161" y="277"/>
      <point x="150" y="236"/>
    </contour>
    <contour>
      <point x="712" y="777" type="line"/>
      <point x="710" y="651"/>
      <point x="687" y="366"/>
      <point x="671" y="215" type="curve"/>
      <point x="625" y="218"/>
      <point x="511" y="253"/>
      <point x="457" y="300" type="curve"/>
      <point x="489" y="376"/>
      <point x="627" y="667"/>
      <point x="685" y="785" type="curve"/>
    </contour>
    <contour>
      <point x="412" y="516" type="line"/>
      <point x="404" y="518" type="line"/>
      <point x="448" y="875"/>
      <point x="505" y="1229"/>
      <point x="523" y="1566" type="curve"/>
      <point x="481" y="1600"/>
      <point x="428" y="1613"/>
      <point x="371" y="1613" type="curve" smooth="yes"/>
      <point x="250" y="1613"/>
      <point x="115" y="1548"/>
      <point x="48" y="1466" type="curve"/>
      <point x="38" y="1427"/>
      <point x="128" y="490"/>
      <point x="183" y="370" type="curve"/>
      <point x="183" y="369"/>
      <point x="182" y="369"/>
      <point x="182" y="368" type="curve"/>
      <point x="468" y="352" type="line"/>
      <point x="466" y="360" type="line"/>
    </contour>
  </outline>
</glyph>
<glyph name="c" format="1">
  <advance width="902"/>
  <unicode hex="0063"/>
  <outline>
    <contour>
      <point x="121" y="319" type="curve" name="hr00" smooth="yes"/>
      <point x="121" y="215"/>
      <point x="83" y="199"/>
      <point x="167" y="127" type="curve" smooth="yes"/>
      <point x="194" y="105"/>
      <point x="338" y="-20"/>
      <point x="426" y="-20" type="curve" smooth="yes"/>
      <point x="583" y="-20"/>
      <point x="827" y="204"/>
      <point x="874" y="290" type="curve"/>
      <point x="773" y="443" type="line"/>
      <point x="661" y="383"/>
      <point x="503" y="304"/>
      <point x="455" y="284" type="curve"/>
      <point x="436" y="300" type="line"/>
      <point x="473" y="475"/>
      <point x="478" y="745"/>
      <point x="462" y="889" type="curve"/>
      <point x="524" y="805"/>
      <point x="594" y="693"/>
      <point x="696" y="633" type="curve"/>
      <point x="747" y="648"/>
      <point x="912" y="828"/>
      <point x="877" y="1059" type="curve"/>
      <point x="691" y="1107" type="line"/>
      <point x="641" y="1130"/>
      <point x="521" y="1204"/>
      <point x="461" y="1204" type="curve" smooth="yes"/>
      <point x="398" y="1204"/>
      <point x="276" y="1143"/>
      <point x="224" y="1112" type="curve" smooth="yes"/>
      <point x="172" y="1081"/>
      <point x="45" y="987"/>
      <point x="45" y="930" type="curve" smooth="yes"/>
      <point x="45" y="917"/>
      <point x="52" y="897"/>
      <point x="61" y="869" type="curve" smooth="yes"/>
      <point x="100" y="755"/>
      <point x="121" y="504"/>
    </contour>
    <contour>
      <point x="469" y="0" type="move" name="top"/>
    </contour>
  </outline>
</glyph>
<glyph name="f" format="1">
  <advance width="744"/>
  <unicode hex="0066"/>
  <outline>
    <contour>
      <point x="-2" y="-112" type="line" name="hr00"/>
      <point x="-23" y="-172"/>
      <point x="-38" y="-212"/>
      <point x="-36" y="-288" type="curve"/>
      <point x="-3" y="-334"/>
      <point x="62" y="-416"/>
      <point x="181" y="-438" type="curve"/>
      <point x="296" y="-431"/>
      <point x="450" y="-328"/>
      <point x="469" y="-214" type="curve"/>
      <point x="479" y="29"/>
      <point x="462" y="431"/>
      <point x="443" y="792" type="curve"/>
      <point x="488" y="768"/>
      <point x="576" y="728"/>
      <point x="659" y="731" type="curve"/>
      <point x="691" y="778"/>
      <point x="749" y="1000"/>
      <point x="685" y="1098" type="curve"/>
      <point x="425" y="1021" type="line"/>
      <point x="405" y="1366" type="line"/>
      <point x="447" y="1308"/>
      <point x="486" y="1241"/>
      <point x="660" y="1229" type="curve"/>
      <point x="730" y="1294"/>
      <point x="789" y="1494"/>
      <point x="752" y="1568" type="curve"/>
      <point x="645" y="1557"/>
      <point x="540" y="1576"/>
      <point x="377" y="1613" type="curve"/>
      <point x="124" y="1510"/>
      <point x="36" y="1300"/>
      <point x="19" y="1262" type="curve"/>
      <point x="20" y="1078"/>
      <point x="158" y="305"/>
      <point x="201" y="-143" type="curve"/>
    </contour>
    <contour>
      <point x="310" y="0" type="move" name="top"/>
    </contour>
  </outline>
</glyph>
<glyph name="g" format="1">
  <advance width="1143"/>
  <unicode hex="0067"/>
  <outline>
    <contour>
      <point x="420" y="353" type="line" name="hr01"/>
      <point x="446" y="474"/>
      <point x="462" y="591"/>
      <point x="462" y="713" type="curve" smooth="yes"/>
      <point x="462" y="820" type="line"/>
      <point x="526" y="805"/>
      <point x="592" y="794"/>
      <point x="672" y="774" type="curve"/>
      <point x="672" y="690"/>
      <point x="673" y="734"/>
      <point x="670" y="694" type="curve"/>
      <point x="637" y="624"/>
      <point x="525" y="412"/>
      <point x="450" y="339" type="curve"/>
    </contour>
    <contour>
      <point x="1108" y="1061" type="line"/>
      <point x="1037" y="1145"/>
      <point x="953" y="1182"/>
      <point x="831" y="1182" type="curve" smooth="yes" name="hr02"/>
      <point x="754" y="1182"/>
      <point x="684" y="1168"/>
      <point x="663" y="1154" type="curve"/>
      <point x="663" y="1122"/>
      <point x="669" y="1026"/>
      <point x="671" y="908" type="curve"/>
      <point x="611" y="1011"/>
      <point x="542" y="1130"/>
      <point x="436" y="1204" type="curve" name="hr03"/>
      <point x="397" y="1199"/>
      <point x="195" y="1162"/>
      <point x="71" y="1005" type="curve" smooth="yes"/>
      <point x="52" y="980"/>
      <point x="45" y="966"/>
      <point x="45" y="950" type="curve" smooth="yes"/>
      <point x="45" y="937"/>
      <point x="48" y="922"/>
      <point x="56" y="895" type="curve" smooth="yes"/>
      <point x="102" y="738"/>
      <point x="122" y="478"/>
      <point x="122" y="320" type="curve" smooth="yes"/>
      <point x="122" y="266"/>
      <point x="116" y="175"/>
      <point x="116" y="147" type="curve" smooth="yes"/>
      <point x="116" y="94"/>
      <point x="198" y="66"/>
      <point x="247" y="31" type="curve" smooth="yes"/>
      <point x="286" y="3"/>
      <point x="321" y="-21"/>
      <point x="357" y="-19" type="curve" smooth="yes"/>
      <point x="375" y="-18"/>
      <point x="393" y="-11"/>
      <point x="413" y="5" type="curve"/>
      <point x="508" y="87"/>
      <point x="620" y="311"/>
      <point x="699" y="537" type="curve"/>
      <point x="712" y="528" type="line"/>
      <point x="710" y="340"/>
      <point x="735" y="41"/>
      <point x="726" y="-154" type="curve"/>
      <point x="633" y="-154"/>
      <point x="428" y="-128"/>
      <point x="330" y="-106" type="curve"/>
      <point x="312" y="-166"/>
      <point x="299" y="-202"/>
      <point x="305" y="-278" type="curve"/>
      <point x="349" y="-336"/>
      <point x="531" y="-437"/>
      <point x="681" y="-438" type="curve" smooth="yes"/>
      <point x="696" y="-438"/>
      <point x="710" y="-437"/>
      <point x="724" y="-435" type="curve"/>
      <point x="900" y="-375"/>
      <point x="1056" y="-228"/>
      <point x="1099" y="-62" type="curve"/>
      <point x="967" y="696" type="line"/>
      <point x="1082" y="897"/>
      <point x="1092" y="983"/>
      <point x="1108" y="1060" type="curve"/>
      <point x="1107" y="1060" type="line"/>
    </contour>
    <contour>
      <point x="542" y="0" type="move" name="top"/>
    </contour>
  </outline>
</glyph>
<glyph name="h" format="1">
  <advance width="1198"/>
  <unicode hex="0068"/>
  <outline>
    <contour>
      <point x="671" y="221" type="line" name="hr00" smooth="yes"/>
      <point x="668" y="162"/>
      <point x="685" y="121"/>
      <point x="732" y="72" type="curve" smooth="yes"/>
      <point x="781" y="20"/>
      <point x="859" y="-20"/>
      <point x="922" y="-20" type="curve" smooth="yes"/>
      <point x="1037" y="-20"/>
      <point x="1154" y="151"/>
      <point x="1197" y="279" type="curve"/>
      <point x="1108" y="400" type="line"/>
      <point x="938" y="311" type="line"/>
      <point x="1029" y="533"/>
      <point x="1100" y="867"/>
      <point x="1100" y="1038" type="curve"/>
      <point x="965" y="1146"/>
      <point x="821" y="1182"/>
      <point x="747" y="1182" type="curve" smooth="yes"/>
      <point x="690" y="1182"/>
      <point x="638" y="1170"/>
      <point x="617" y="1165" type="curve"/>
      <point x="529" y="953"/>
      <point x="483" y="733"/>
      <point x="415" y="514" type="curve"/>
      <point x="411" y="515" type="line"/>
      <point x="398" y="518" type="line"/>
      <point x="430" y="875"/>
      <point x="475" y="1229"/>
      <point x="481" y="1566" type="curve"/>
      <point x="435" y="1601"/>
      <point x="382" y="1614"/>
      <point x="323" y="1614" type="curve" smooth="yes"/>
      <point x="203" y="1614"/>
      <point x="72" y="1545"/>
      <point x="11" y="1466" type="curve"/>
      <point x="11" y="1464"/>
      <point x="10" y="1462"/>
      <point x="10" y="1458" type="curve" smooth="yes"/>
      <point x="10" y="1362"/>
      <point x="126" y="486"/>
      <point x="183" y="370" type="curve"/>
      <point x="183" y="369"/>
      <point x="182" y="369"/>
      <point x="182" y="368" type="curve" smooth="yes"/>
      <point x="155" y="288"/>
      <point x="139" y="227"/>
      <point x="112" y="66" type="curve"/>
      <point x="163" y="9"/>
      <point x="279" y="-20"/>
      <point x="378" y="-20" type="curve" smooth="yes"/>
      <point x="443" y="-20"/>
      <point x="506" y="-8"/>
      <point x="550" y="24" type="curve"/>
      <point x="535" y="158"/>
      <point x="499" y="263"/>
      <point x="466" y="360" type="curve"/>
      <point x="542" y="506"/>
      <point x="603" y="638"/>
      <point x="669" y="781" type="curve"/>
      <point x="696" y="772" type="line"/>
    </contour>
    <contour>
      <point x="771" y="0" type="move" name="top"/>
    </contour>
  </outline>
</glyph>
<glyph name="l" format="1">
  <advance width="626"/>
  <unicode hex="006C"/>
  <outline>
    <contour>
      <point x="353" y="-20" type="curve" name="hr00" smooth="yes"/>
      <point x="479" y="-20"/>
      <point x="594" y="138"/>
      <point x="632" y="254" type="curve"/>
      <point x="552" y="381" type="line"/>
      <point x="409" y="314" type="line"/>
      <point x="468" y="919"/>
      <point x="494" y="1250"/>
      <point x="505" y="1566" type="curve"/>
      <point x="462" y="1601"/>
      <point x="407" y="1614"/>
      <point x="350" y="1613" type="curve" smooth="yes"/>
      <point x="231" y="1612"/>
      <point x="101" y="1547"/>
      <point x="37" y="1466" type="curve"/>
      <point x="32" y="1437"/>
      <point x="89" y="921"/>
      <point x="149" y="606" type="curve"/>
      <point x="80" y="249" type="line" smooth="yes"/>
      <point x="69" y="192"/>
      <point x="85" y="161"/>
      <point x="105" y="138" type="curve" smooth="yes"/>
      <point x="164" y="68"/>
      <point x="261" y="-20"/>
    </contour>
    <contour>
      <point x="279" y="0" type="move" name="top"/>
    </contour>
    <contour>
      <point x="279" y="-20" type="move" name="btm"/>
    </contour>
  </outline>
</glyph>
<glyph name="m" format="1">
  <advance width="1704"/>
  <unicode hex="006D"/>
  <outline>
    <contour>
      <point x="1186" y="224" type="curve" name="hr01" smooth="yes"/>
      <point x="1182" y="160"/>
      <point x="1201" y="121"/>
      <point x="1248" y="72" type="curve" smooth="yes"/>
      <point x="1297" y="20"/>
      <point x="1375" y="-20"/>
      <point x="1438" y="-20" type="curve" smooth="yes"/>
      <point x="1553" y="-20"/>
      <point x="1670" y="151"/>
      <point x="1713" y="279" type="curve"/>
      <point x="1624" y="400" type="line"/>
      <point x="1454" y="311" type="line"/>
      <point x="1573" y="622"/>
      <point x="1609" y="888"/>
      <point x="1616" y="1059" type="curve"/>
      <point x="1484" y="1167"/>
      <point x="1326" y="1184"/>
      <point x="1254" y="1183" type="curve" name="hr02" smooth="yes"/>
      <point x="1197" y="1182"/>
      <point x="1172" y="1172"/>
      <point x="1151" y="1166" type="curve"/>
      <point x="961" y="543" type="line"/>
      <point x="932" y="549" type="line"/>
      <point x="970" y="761"/>
      <point x="1015" y="915"/>
      <point x="1001" y="1106" type="curve"/>
      <point x="915" y="1160"/>
      <point x="803" y="1183"/>
      <point x="729" y="1183" type="curve" smooth="yes"/>
      <point x="672" y="1183"/>
      <point x="619" y="1188"/>
      <point x="573" y="1170" type="curve"/>
      <point x="408" y="514" type="line"/>
      <point x="382" y="517" type="line"/>
      <point x="455" y="1145" type="line" name="hr03"/>
      <point x="423" y="1173"/>
      <point x="371" y="1186"/>
      <point x="309" y="1186" type="curve" smooth="yes"/>
      <point x="201" y="1186"/>
      <point x="57" y="1141"/>
      <point x="9" y="1061" type="curve"/>
      <point x="1" y="1025"/>
      <point x="99" y="503"/>
      <point x="159" y="368" type="curve"/>
      <point x="128" y="256"/>
      <point x="118" y="230"/>
      <point x="89" y="69" type="curve"/>
      <point x="139" y="13"/>
      <point x="247" y="-20"/>
      <point x="350" y="-20" type="curve" smooth="yes"/>
      <point x="417" y="-20"/>
      <point x="483" y="-5"/>
      <point x="527" y="27" type="curve"/>
      <point x="512" y="161"/>
      <point x="476" y="263"/>
      <point x="443" y="360" type="curve"/>
      <point x="481" y="444"/>
      <point x="590" y="668"/>
      <point x="643" y="778" type="curve"/>
      <point x="667" y="774" type="line"/>
      <point x="698" y="366" type="line"/>
      <point x="682" y="286"/>
      <point x="654" y="248"/>
      <point x="637" y="65" type="curve"/>
      <point x="684" y="12"/>
      <point x="776" y="-20"/>
      <point x="867" y="-20" type="curve" smooth="yes"/>
      <point x="932" y="-20"/>
      <point x="997" y="-4"/>
      <point x="1043" y="31" type="curve"/>
      <point x="1034" y="153"/>
      <point x="1028" y="235"/>
      <point x="984" y="363" type="curve"/>
      <point x="1018" y="445"/>
      <point x="1131" y="637"/>
      <point x="1200" y="769" type="curve"/>
      <point x="1224" y="764" type="line"/>
      <point x="1210" y="598"/>
      <point x="1197" y="417"/>
    </contour>
    <contour>
      <point x="867" y="0" type="move" name="top"/>
    </contour>
  </outline>
</glyph>
<glyph name="n" format="1">
  <advance width="1192"/>
  <unicode hex="006E"/>
  <outline>
    <contour>
      <point x="691" y="772" type="line" name="hr00"/>
      <point x="666" y="221" type="line" smooth="yes"/>
      <point x="663" y="157"/>
      <point x="680" y="121"/>
      <point x="727" y="72" type="curve" smooth="yes"/>
      <point x="776" y="20"/>
      <point x="854" y="-20"/>
      <point x="917" y="-20" type="curve" smooth="yes"/>
      <point x="1032" y="-20"/>
      <point x="1149" y="151"/>
      <point x="1192" y="279" type="curve"/>
      <point x="1103" y="400" type="line"/>
      <point x="933" y="311" type="line"/>
      <point x="1024" y="533"/>
      <point x="1095" y="867"/>
      <point x="1095" y="1038" type="curve"/>
      <point x="1004" y="1144"/>
      <point x="873" y="1180"/>
      <point x="744" y="1180" type="curve" smooth="yes"/>
      <point x="696" y="1180"/>
      <point x="649" y="1177"/>
      <point x="611" y="1165" type="curve"/>
      <point x="522" y="953"/>
      <point x="481" y="733"/>
      <point x="415" y="514" type="curve"/>
      <point x="399" y="517" type="line"/>
      <point x="472" y="1143" type="line"/>
      <point x="441" y="1171"/>
      <point x="389" y="1180"/>
      <point x="327" y="1180" type="curve" smooth="yes"/>
      <point x="219" y="1180"/>
      <point x="74" y="1141"/>
      <point x="27" y="1061" type="curve"/>
      <point x="27" y="1059"/>
      <point x="26" y="1057"/>
      <point x="26" y="1054" type="curve" smooth="yes"/>
      <point x="26" y="983"/>
      <point x="127" y="485"/>
      <point x="177" y="368" type="curve"/>
      <point x="151" y="288"/>
      <point x="135" y="227"/>
      <point x="107" y="66" type="curve"/>
      <point x="158" y="9"/>
      <point x="273" y="-20"/>
      <point x="358" y="-20" type="curve" smooth="yes"/>
      <point x="437" y="-20"/>
      <point x="500" y="-8"/>
      <point x="545" y="24" type="curve"/>
      <point x="521" y="160"/>
      <point x="494" y="263"/>
      <point x="461" y="360" type="curve"/>
      <point x="536" y="506"/>
      <point x="597" y="638"/>
      <point x="662" y="781" type="curve"/>
    </contour>
    <contour>
      <point x="600" y="0" type="move" name="top"/>
    </contour>
    <contour>
      <point x="575" y="-20" type="move" name="btm"/>
    </contour>
  </outline>
</glyph>
<glyph name="o" format="1">
  <advance width="1083"/>
  <unicode hex="006F"/>
  <outline>
    <contour>
      <point x="526" y="1204" type="curve" name="hr00"/>
      <point x="424" y="1190"/>
      <point x="139" y="1080"/>
      <point x="80" y="1006" type="curve"/>
      <point x="38" y="730"/>
      <point x="78" y="441"/>
      <point x="126" y="136" type="curve"/>
      <point x="199" y="63"/>
      <point x="439" y="-8"/>
      <point x="572" y="-20" type="curve"/>
      <point x="637" y="-13"/>
      <point x="697" y="9"/>
      <point x="782" y="52" type="curve" smooth="yes"/>
      <point x="839" y="81"/>
      <point x="921" y="130"/>
      <point x="946" y="160" type="curve"/>
      <point x="980" y="284"/>
      <point x="1023" y="560"/>
      <point x="1023" y="759" type="curve" smooth="yes"/>
      <point x="1023" y="871"/>
      <point x="1020" y="927"/>
      <point x="1007" y="987" type="curve"/>
      <point x="919" y="1092"/>
      <point x="693" y="1188"/>
    </contour>
    <contour>
      <point x="486" y="863" type="line"/>
      <point x="640" y="800" type="line"/>
      <point x="652" y="685"/>
      <point x="657" y="581"/>
      <point x="657" y="480" type="curve" smooth="yes"/>
      <point x="657" y="405"/>
      <point x="656" y="331"/>
      <point x="649" y="258" type="curve"/>
      <point x="594" y="220" type="line"/>
      <point x="524" y="235"/>
      <point x="469" y="265"/>
      <point x="428" y="292" type="curve"/>
      <point x="418" y="393"/>
      <point x="414" y="494"/>
      <point x="414" y="593" type="curve" smooth="yes"/>
      <point x="414" y="674"/>
      <point x="418" y="754"/>
      <point x="426" y="834" type="curve"/>
    </contour>
    <contour>
      <point x="534" y="0" type="move" name="top"/>
    </contour>
  </outline>
</glyph>
<glyph name="q" format="1">
  <advance width="1134"/>
  <unicode hex="0071"/>
  <outline>
    <contour>
      <point x="1108" y="1061" type="curve" name="hr01"/>
      <point x="1037" y="1145"/>
      <point x="953" y="1182"/>
      <point x="831" y="1182" type="curve" smooth="yes" name="hr02"/>
      <point x="754" y="1182"/>
      <point x="684" y="1168"/>
      <point x="663" y="1154" type="curve"/>
      <point x="663" y="1122"/>
      <point x="669" y="1026"/>
      <point x="671" y="908" type="curve"/>
      <point x="611" y="1011"/>
      <point x="542" y="1124"/>
      <point x="436" y="1198" type="curve" name="hr03"/>
      <point x="397" y="1193"/>
      <point x="195" y="1162"/>
      <point x="71" y="1005" type="curve" smooth="yes"/>
      <point x="52" y="980"/>
      <point x="45" y="966"/>
      <point x="45" y="950" type="curve" smooth="yes"/>
      <point x="45" y="937"/>
      <point x="48" y="922"/>
      <point x="56" y="895" type="curve" smooth="yes"/>
      <point x="102" y="738"/>
      <point x="122" y="478"/>
      <point x="122" y="320" type="curve" smooth="yes"/>
      <point x="122" y="266"/>
      <point x="116" y="175"/>
      <point x="116" y="147" type="curve" smooth="yes"/>
      <point x="116" y="94"/>
      <point x="198" y="66"/>
      <point x="247" y="31" type="curve" smooth="yes"/>
      <point x="286" y="3"/>
      <point x="321" y="-22"/>
      <point x="357" y="-20" type="curve" smooth="yes"/>
      <point x="375" y="-19"/>
      <point x="393" y="-11"/>
      <point x="413" y="5" type="curve" smooth="yes"/>
      <point x="509" y="87"/>
      <point x="628" y="356"/>
      <point x="683" y="497" type="curve"/>
      <point x="703" y="495" type="line"/>
      <point x="645" y="-208" type="line" smooth="yes"/>
      <point x="639" y="-271"/>
      <point x="669" y="-317"/>
      <point x="729" y="-360" type="curve" smooth="yes"/>
      <point x="796" y="-408"/>
      <point x="870" y="-441"/>
      <point x="950" y="-438" type="curve" smooth="yes"/>
      <point x="988" y="-437"/>
      <point x="1027" y="-418"/>
      <point x="1068" y="-376" type="curve" smooth="yes"/>
      <point x="1125" y="-319"/>
      <point x="1169" y="-227"/>
      <point x="1206" y="-127" type="curve"/>
      <point x="1118" y="-27" type="line"/>
      <point x="994" y="-97" type="line"/>
      <point x="938" y="313" type="line"/>
      <point x="1036" y="548"/>
      <point x="1116" y="997"/>
    </contour>
    <contour>
      <point x="420" y="353" type="line"/>
      <point x="446" y="474"/>
      <point x="462" y="591"/>
      <point x="462" y="713" type="curve" smooth="yes"/>
      <point x="462" y="820" type="line"/>
      <point x="526" y="805"/>
      <point x="592" y="794"/>
      <point x="672" y="774" type="curve"/>
      <point x="672" y="690"/>
      <point x="673" y="734"/>
      <point x="670" y="694" type="curve"/>
      <point x="637" y="624"/>
      <point x="525" y="412"/>
      <point x="450" y="339" type="curve"/>
    </contour>
  </outline>
</glyph>
<glyph name="r" format="1">
  <advance width="1027"/>
  <unicode hex="0072"/>
  <outline>
    <contour>
      <point x="401" y="547" type="line" name="hr00"/>
      <point x="408" y="1149" type="line"/>
      <point x="365" y="1170"/>
      <point x="314" y="1180"/>
      <point x="263" y="1180" type="curve" smooth="yes"/>
      <point x="163" y="1180"/>
      <point x="61" y="1140"/>
      <point x="8" y="1063" type="curve"/>
      <point x="187" y="455" type="line"/>
      <point x="107" y="257" type="line" smooth="yes"/>
      <point x="73" y="173"/>
      <point x="167" y="56"/>
      <point x="197" y="28" type="curve" smooth="yes"/>
      <point x="240" y="-12"/>
      <point x="305" y="-20"/>
      <point x="369" y="-20" type="curve" smooth="yes"/>
      <point x="495" y="-20"/>
      <point x="613" y="36"/>
      <point x="694" y="164" type="curve"/>
      <point x="637" y="298" type="line"/>
      <point x="454" y="274" type="line"/>
      <point x="502" y="453"/>
      <point x="558" y="677"/>
      <point x="599" y="796" type="curve"/>
      <point x="648" y="788" type="line"/>
      <point x="650" y="703"/>
      <point x="649" y="551"/>
      <point x="648" y="490" type="curve"/>
      <point x="736" y="469"/>
      <point x="823" y="464"/>
      <point x="918" y="517" type="curve"/>
      <point x="951" y="648"/>
      <point x="998" y="899"/>
      <point x="970" y="1096" type="curve"/>
      <point x="915" y="1133"/>
      <point x="807" y="1181"/>
      <point x="671" y="1180" type="curve" smooth="yes"/>
      <point x="632" y="1180"/>
      <point x="590" y="1176"/>
      <point x="547" y="1166" type="curve"/>
      <point x="478" y="1016"/>
      <point x="439" y="667"/>
      <point x="412" y="545" type="curve"/>
    </contour>
    <contour>
      <point x="481" y="0" type="move" name="top"/>
    </contour>
    <contour>
      <point x="372" y="-20" type="move" name="btm"/>
    </contour>
  </outline>
</glyph>
<glyph name="u" format="1">
  <advance width="1164"/>
  <unicode hex="0075"/>
  <outline>
    <contour>
      <point x="460" y="1174" type="curve" name="hr01"/>
      <point x="437" y="1185"/>
      <point x="400" y="1191"/>
      <point x="356" y="1191" type="curve" smooth="yes"/>
      <point x="234" y="1191"/>
      <point x="62" y="1141"/>
      <point x="7" y="1004" type="curve"/>
      <point x="162" y="573" type="line"/>
      <point x="78" y="162" type="line"/>
      <point x="78" y="109"/>
      <point x="168" y="66"/>
      <point x="217" y="31" type="curve" smooth="yes"/>
      <point x="257" y="2"/>
      <point x="290" y="-20"/>
      <point x="327" y="-20" type="curve" smooth="yes"/>
      <point x="435" y="-20"/>
      <point x="585" y="324"/>
      <point x="653" y="497" type="curve"/>
      <point x="668" y="490" type="line"/>
      <point x="654" y="400"/>
      <point x="644" y="322"/>
      <point x="634" y="221" type="curve" smooth="yes"/>
      <point x="633" y="211"/>
      <point x="632" y="202"/>
      <point x="632" y="193" type="curve" smooth="yes"/>
      <point x="632" y="126"/>
      <point x="662" y="104"/>
      <point x="684" y="80" type="curve" smooth="yes"/>
      <point x="739" y="20"/>
      <point x="816" y="-20"/>
      <point x="879" y="-20" type="curve" smooth="yes"/>
      <point x="995" y="-20"/>
      <point x="1095" y="120"/>
      <point x="1164" y="279" type="curve"/>
      <point x="1079" y="400" type="line"/>
      <point x="906" y="308" type="line"/>
      <point x="1000" y="531"/>
      <point x="1078" y="956"/>
      <point x="1078" y="1050" type="curve" smooth="yes"/>
      <point x="1078" y="1061" type="line"/>
      <point x="1007" y="1145"/>
      <point x="923" y="1182"/>
      <point x="801" y="1182" type="curve" name="hr02" smooth="yes"/>
      <point x="724" y="1182"/>
      <point x="654" y="1168"/>
      <point x="633" y="1154" type="curve"/>
      <point x="633" y="1122"/>
      <point x="638" y="1050"/>
      <point x="662" y="764" type="curve"/>
      <point x="642" y="689"/>
      <point x="524" y="434"/>
      <point x="449" y="361" type="curve"/>
      <point x="419" y="375" type="line"/>
      <point x="458" y="557"/>
      <point x="470" y="735"/>
      <point x="470" y="931" type="curve" smooth="yes"/>
      <point x="470" y="1017"/>
      <point x="467" y="1100"/>
    </contour>
    <contour>
      <point x="555" y="0" type="move" name="top"/>
    </contour>
    <contour>
      <point x="878" y="-20" type="move" name="btm"/>
    </contour>
  </outline>
</glyph>
<glyph name="v" format="1">
  <advance width="1062"/>
  <unicode hex="0076"/>
  <outline>
    <contour>
      <point x="245" y="47" type="curve" name="hr00"/>
      <point x="291" y="3"/>
      <point x="404" y="-21"/>
      <point x="517" y="-21" type="curve" smooth="yes"/>
      <point x="624" y="-21"/>
      <point x="731" y="0"/>
      <point x="784" y="44" type="curve"/>
      <point x="770" y="123"/>
      <point x="752" y="176"/>
      <point x="731" y="219" type="curve"/>
      <point x="870" y="451"/>
      <point x="1000" y="738"/>
      <point x="1045" y="830" type="curve"/>
      <point x="1040" y="965"/>
      <point x="983" y="1125"/>
      <point x="888" y="1204" type="curve"/>
      <point x="760" y="1188"/>
      <point x="594" y="1069"/>
      <point x="537" y="932" type="curve"/>
      <point x="581" y="835"/>
      <point x="639" y="790"/>
      <point x="698" y="739" type="curve"/>
      <point x="679" y="635"/>
      <point x="630" y="439"/>
      <point x="577" y="304" type="curve"/>
      <point x="564" y="305" type="line"/>
      <point x="549" y="558"/>
      <point x="458" y="1028"/>
      <point x="434" y="1079" type="curve"/>
      <point x="433" y="1079" type="line"/>
      <point x="377" y="1194"/>
      <point x="214" y="1194"/>
      <point x="101" y="1109" type="curve" smooth="yes"/>
      <point x="41" y="1064"/>
      <point x="13" y="975"/>
      <point x="0" y="889" type="curve"/>
      <point x="165" y="693" type="line"/>
      <point x="297" y="283" type="line"/>
      <point x="273" y="233"/>
      <point x="260" y="178"/>
    </contour>
  </outline>
</glyph>
<glyph name="w" format="1">
  <advance width="1636"/>
  <unicode hex="0077"/>
  <outline>
    <contour>
      <point x="1093" y="932" type="curve" name="hr01"/>
      <point x="1140" y="835"/>
      <point x="1201" y="790"/>
      <point x="1263" y="739" type="curve"/>
      <point x="1250" y="635"/>
      <point x="1202" y="441"/>
      <point x="1153" y="306" type="curve"/>
      <point x="1138" y="306" type="line"/>
      <point x="1124" y="450"/>
      <point x="1079" y="663"/>
      <point x="1039" y="829" type="curve"/>
      <point x="1041" y="830" type="line"/>
      <point x="1030" y="965"/>
      <point x="964" y="1125"/>
      <point x="866" y="1204" type="curve"/>
      <point x="738" y="1188"/>
      <point x="578" y="1069"/>
      <point x="530" y="932" type="curve"/>
      <point x="577" y="835"/>
      <point x="638" y="790"/>
      <point x="700" y="739" type="curve"/>
      <point x="687" y="635"/>
      <point x="639" y="439"/>
      <point x="592" y="304" type="curve"/>
      <point x="579" y="305" type="line"/>
      <point x="549" y="558"/>
      <point x="450" y="1024"/>
      <point x="440" y="1093" type="curve"/>
      <point x="408" y="1152"/>
      <point x="339" y="1179"/>
      <point x="265" y="1179" type="curve" smooth="yes"/>
      <point x="153" y="1179"/>
      <point x="5" y="1078"/>
      <point x="5" y="968" type="curve"/>
      <point x="159" y="693" type="line"/>
      <point x="312" y="283" type="line"/>
      <point x="291" y="232"/>
      <point x="283" y="184"/>
      <point x="273" y="47" type="curve"/>
      <point x="321" y="3"/>
      <point x="426" y="-20"/>
      <point x="526" y="-20" type="curve" smooth="yes"/>
      <point x="622" y="-20"/>
      <point x="714" y="1"/>
      <point x="740" y="43" type="curve"/>
      <point x="740" y="84"/>
      <point x="736" y="119"/>
      <point x="725" y="150" type="curve"/>
      <point x="767" y="252"/>
      <point x="803" y="375"/>
      <point x="836" y="489" type="curve"/>
      <point x="901" y="256" type="line"/>
      <point x="885" y="213"/>
      <point x="871" y="160"/>
      <point x="864" y="47" type="curve" name="hr02"/>
      <point x="913" y="3"/>
      <point x="1016" y="-21"/>
      <point x="1122" y="-21" type="curve" smooth="yes"/>
      <point x="1223" y="-21"/>
      <point x="1325" y="0"/>
      <point x="1375" y="44" type="curve"/>
      <point x="1358" y="122"/>
      <point x="1337" y="175"/>
      <point x="1313" y="219" type="curve"/>
      <point x="1442" y="450"/>
      <point x="1565" y="738"/>
      <point x="1604" y="830" type="curve"/>
      <point x="1593" y="965"/>
      <point x="1527" y="1125"/>
      <point x="1429" y="1204" type="curve"/>
      <point x="1301" y="1188"/>
      <point x="1141" y="1069"/>
    </contour>
    <contour>
      <point x="800" y="0" type="move" name="top"/>
    </contour>
  </outline>
</glyph>
<glyph name="x" format="1">
  <advance width="1139"/>
  <unicode hex="0078"/>
  <outline>
    <contour>
      <point x="547" y="1082" type="curve" smooth="yes" name="hr01"/>
      <point x="519" y="1176"/>
      <point x="385" y="1228"/>
      <point x="252" y="1195" type="curve"/>
      <point x="111" y="1146"/>
      <point x="58" y="949"/>
      <point x="35" y="851" type="curve"/>
      <point x="126" y="738" type="line"/>
      <point x="269" y="804" type="line"/>
      <point x="425" y="553" type="line"/>
      <point x="265" y="332" type="line"/>
      <point x="239" y="396"/>
      <point x="189" y="485"/>
      <point x="160" y="510" type="curve"/>
      <point x="123" y="500"/>
      <point x="44" y="465"/>
      <point x="10" y="417" type="curve"/>
      <point x="10" y="282"/>
      <point x="104" y="52"/>
      <point x="188" y="-20" type="curve"/>
      <point x="355" y="-28"/>
      <point x="418" y="36"/>
      <point x="458" y="85" type="curve" smooth="yes"/>
      <point x="477" y="107"/>
      <point x="497" y="288"/>
      <point x="517" y="475" type="curve"/>
      <point x="538" y="475" type="line"/>
      <point x="551" y="395"/>
      <point x="571" y="262"/>
      <point x="621" y="100" type="curve" smooth="yes"/>
      <point x="644" y="25"/>
      <point x="714" y="-21"/>
      <point x="817" y="-21" type="curve" smooth="yes" name="hr02"/>
      <point x="843" y="-21"/>
      <point x="870" y="-18"/>
      <point x="897" y="-11" type="curve"/>
      <point x="1039" y="38"/>
      <point x="1092" y="233"/>
      <point x="1115" y="331" type="curve"/>
      <point x="1033" y="429" type="line"/>
      <point x="900" y="358" type="line"/>
      <point x="712" y="659" type="line"/>
      <point x="873" y="848" type="line"/>
      <point x="900" y="784"/>
      <point x="950" y="695"/>
      <point x="979" y="670" type="curve"/>
      <point x="1017" y="680"/>
      <point x="1096" y="715"/>
      <point x="1128" y="763" type="curve"/>
      <point x="1128" y="898"/>
      <point x="1039" y="1132"/>
      <point x="955" y="1204" type="curve"/>
      <point x="840" y="1204"/>
      <point x="745" y="1187"/>
      <point x="687" y="1098" type="curve" smooth="yes"/>
      <point x="670" y="1072"/>
      <point x="657" y="941"/>
      <point x="620" y="729" type="curve"/>
      <point x="608" y="726" type="line"/>
      <point x="594" y="806"/>
      <point x="595" y="920"/>
    </contour>
  </outline>
</glyph>
<glyph name="y" format="1">
  <advance width="1115"/>
  <unicode hex="0079"/>
  <outline>
    <contour>
      <point x="1078" y="1061" type="curve" name="hr01"/>
      <point x="1007" y="1145"/>
      <point x="923" y="1182"/>
      <point x="801" y="1182" type="curve" name="hr02" smooth="yes"/>
      <point x="724" y="1182"/>
      <point x="654" y="1168"/>
      <point x="633" y="1154" type="curve"/>
      <point x="633" y="1122"/>
      <point x="638" y="1025"/>
      <point x="662" y="739" type="curve"/>
      <point x="642" y="664"/>
      <point x="524" y="434"/>
      <point x="449" y="361" type="curve"/>
      <point x="419" y="375" type="line"/>
      <point x="445" y="496"/>
      <point x="457" y="591"/>
      <point x="464" y="713" type="curve" smooth="yes"/>
      <point x="473" y="873"/>
      <point x="473" y="1039"/>
      <point x="460" y="1174" type="curve"/>
      <point x="371" y="1215"/>
      <point x="81" y="1190"/>
      <point x="7" y="1004" type="curve" name="hr03"/>
      <point x="162" y="573" type="line"/>
      <point x="78" y="162" type="line"/>
      <point x="78" y="109"/>
      <point x="168" y="66"/>
      <point x="217" y="31" type="curve" smooth="yes"/>
      <point x="256" y="3"/>
      <point x="301" y="-22"/>
      <point x="337" y="-20" type="curve" smooth="yes"/>
      <point x="355" y="-19"/>
      <point x="373" y="-11"/>
      <point x="393" y="5" type="curve" smooth="yes"/>
      <point x="489" y="87"/>
      <point x="650" y="394"/>
      <point x="705" y="535" type="curve"/>
      <point x="715" y="532" type="line"/>
      <point x="713" y="344"/>
      <point x="735" y="40"/>
      <point x="726" y="-154" type="curve"/>
      <point x="633" y="-154"/>
      <point x="428" y="-128"/>
      <point x="330" y="-106" type="curve"/>
      <point x="312" y="-166"/>
      <point x="299" y="-202"/>
      <point x="305" y="-278" type="curve"/>
      <point x="349" y="-336"/>
      <point x="531" y="-437"/>
      <point x="681" y="-438" type="curve" smooth="yes"/>
      <point x="696" y="-438"/>
      <point x="710" y="-437"/>
      <point x="724" y="-435" type="curve"/>
      <point x="900" y="-375"/>
      <point x="1056" y="-228"/>
      <point x="1099" y="-62" type="curve"/>
      <point x="961" y="731" type="line"/>
      <point x="1057" y="906"/>
      <point x="1065" y="977"/>
      <point x="1080" y="1049" type="curve"/>
      <point x="1075" y="1045" type="line"/>
      <point x="1077" y="1051"/>
      <point x="1078" y="1056"/>
    </contour>
    <contour>
      <point x="555" y="0" type="move" name="top"/>
    </contour>
  </outline>
</glyph>
<glyph name="z" format="1">
  <advance width="1027"/>
  <unicode hex="007A"/>
  <outline>
    <contour>
      <point x="243" y="1180" type="curve" name="hr01" smooth="yes"/>
      <point x="124" y="1180"/>
      <point x="24" y="1101"/>
      <point x="24" y="941" type="curve" name="hr02" smooth="yes"/>
      <point x="24" y="805"/>
      <point x="104" y="643"/>
      <point x="163" y="581" type="curve"/>
      <point x="329" y="617" type="line"/>
      <point x="329" y="833" type="line"/>
      <point x="516" y="810" type="line"/>
      <point x="331" y="404" type="line"/>
      <point x="269" y="457"/>
      <point x="228" y="490"/>
      <point x="186" y="502" type="curve"/>
      <point x="144" y="488"/>
      <point x="69" y="450"/>
      <point x="35" y="406" type="curve"/>
      <point x="35" y="269"/>
      <point x="102" y="35"/>
      <point x="188" y="-17" type="curve"/>
      <point x="286" y="-14"/>
      <point x="322" y="43"/>
      <point x="384" y="150" type="curve"/>
      <point x="452" y="80"/>
      <point x="620" y="-20"/>
      <point x="744" y="-20" type="curve" name="hr03" smooth="yes"/>
      <point x="814" y="-20"/>
      <point x="878" y="12"/>
      <point x="929" y="80" type="curve" smooth="yes"/>
      <point x="975" y="142"/>
      <point x="991" y="238"/>
      <point x="991" y="328" type="curve" smooth="yes"/>
      <point x="991" y="410"/>
      <point x="978" y="488"/>
      <point x="961" y="533" type="curve"/>
      <point x="813" y="561" type="line"/>
      <point x="713" y="327" type="line"/>
      <point x="529" y="358" type="line"/>
      <point x="869" y="794" type="line"/>
      <point x="889" y="790"/>
      <point x="904" y="787"/>
      <point x="918" y="787" type="curve" smooth="yes"/>
      <point x="937" y="787"/>
      <point x="954" y="792"/>
      <point x="974" y="805" type="curve"/>
      <point x="985" y="835"/>
      <point x="990" y="871"/>
      <point x="990" y="908" type="curve" smooth="yes"/>
      <point x="990" y="1022"/>
      <point x="941" y="1153"/>
      <point x="865" y="1206" type="curve"/>
      <point x="764" y="1202"/>
      <point x="698" y="1108"/>
      <point x="660" y="1051" type="curve"/>
      <point x="567" y="1112"/>
      <point x="358" y="1180"/>
    </contour>
    <contour>
      <point x="511" y="0" type="move" name="top"/>
    </contour>
  </outline>
</glyph>
<glyph name="braceleft" format="1">
  <advance width="852"/>
  <unicode hex="007B"/>
  <outline>
    <contour>
      <point x="386" y="766" type="line" name="hr01"/>
      <point x="387" y="759" type="line"/>
      <point x="317" y="-232" type="line"/>
      <point x="458" y="-284"/>
      <point x="568" y="-304"/>
      <point x="738" y="-282" type="curve"/>
      <point x="776" y="-96" type="line"/>
      <point x="597" y="-29" type="line"/>
      <point x="597" y="-29" type="line"/>
      <point x="620" y="486" type="line"/>
    </contour>
    <contour>
      <point x="425" y="807" type="line"/>
      <point x="394" y="831"/>
      <point x="259" y="941"/>
      <point x="224" y="965" type="curve"/>
      <point x="81" y="911"/>
      <point x="60" y="694"/>
      <point x="140" y="579" type="curve"/>
      <point x="230" y="550"/>
      <point x="308" y="571"/>
      <point x="377" y="624" type="curve"/>
    </contour>
    <contour>
      <point x="271" y="644" type="line"/>
      <point x="496" y="428" type="line"/>
      <point x="421" y="655" type="line" name="hr02"/>
    </contour>
    <contour>
      <point x="439" y="816" type="line"/>
      <point x="471" y="1049" type="line"/>
      <point x="289" y="827" type="line"/>
    </contour>
    <contour>
      <point x="641" y="960" type="line"/>
      <point x="641" y="1578" type="line"/>
      <point x="698" y="1540"/>
      <point x="762" y="1531"/>
      <point x="827" y="1544" type="curve"/>
      <point x="850" y="1632"/>
      <point x="856" y="1715"/>
      <point x="852" y="1803" type="curve"/>
      <point x="720" y="1803"/>
      <point x="618" y="1817"/>
      <point x="488" y="1849" type="curve" name="hr03"/>
      <point x="436" y="1839"/>
      <point x="333" y="1768"/>
      <point x="298" y="1697" type="curve"/>
      <point x="386" y="895" type="line"/>
      <point x="372" y="788" type="line"/>
      <point x="382" y="663" type="line" name="hr04"/>
      <point x="403" y="-31" type="line"/>
      <point x="597" y="-29" type="line"/>
      <point x="652" y="573" type="line" name="hr05"/>
      <point x="631" y="632"/>
      <point x="559" y="697"/>
      <point x="471" y="765" type="curve"/>
      <point x="471" y="780" type="line" name="hr06"/>
      <point x="528" y="829"/>
      <point x="581" y="876"/>
      <point x="640" y="959" type="curve" name="hr07"/>
      <point x="640" y="960" type="line"/>
    </contour>
  </outline>
</glyph>
<glyph name="bar" format="1">
  <advance width="649"/>
  <unicode hex="007C"/>
  <outline>
    <contour>
      <point x="480" y="1838" type="line" name="hr00"/>
      <point x="391" y="1864"/>
      <point x="207" y="1841"/>
      <point x="142" y="1796" type="curve"/>
      <point x="200" y="-293" type="line"/>
      <point x="288" y="-323"/>
      <point x="372" y="-320"/>
      <point x="470" y="-289" type="curve"/>
    </contour>
  </outline>
</glyph>
<glyph name="braceright" format="1">
  <advance width="852"/>
  <unicode hex="007D"/>
  <outline>
    <contour>
      <point x="218" y="597" type="line" name="hr00"/>
      <point x="263" y="-48" type="line"/>
      <point x="206" y="-17"/>
      <point x="148" y="-7"/>
      <point x="83" y="-13" type="curve"/>
      <point x="60" y="-101"/>
      <point x="54" y="-154"/>
      <point x="58" y="-245" type="curve"/>
      <point x="349" y="-292" type="line"/>
      <point x="401" y="-282"/>
      <point x="504" y="-211"/>
      <point x="539" y="-140" type="curve"/>
      <point x="478" y="617" type="line"/>
      <point x="526" y="676" type="line"/>
      <point x="635" y="592" type="line"/>
      <point x="778" y="646"/>
      <point x="799" y="863"/>
      <point x="719" y="978" type="curve"/>
      <point x="650" y="1000"/>
      <point x="589" y="993"/>
      <point x="533" y="965" type="curve"/>
      <point x="487" y="1010" type="line"/>
      <point x="564" y="1789" type="line"/>
      <point x="423" y="1841"/>
      <point x="235" y="1861"/>
      <point x="65" y="1839" type="curve"/>
      <point x="27" y="1653" type="line"/>
      <point x="229" y="1586" type="line"/>
      <point x="219" y="972" type="line"/>
      <point x="243" y="920"/>
      <point x="300" y="860"/>
      <point x="388" y="792" type="curve"/>
      <point x="388" y="777" type="line"/>
      <point x="331" y="728"/>
      <point x="263" y="667"/>
      <point x="219" y="598" type="curve"/>
      <point x="219" y="597" type="line"/>
    </contour>
  </outline>
</glyph>
<glyph name="asciitilde" format="1">
  <advance width="1160"/>
  <unicode hex="007E"/>
  <outline>
    <contour>
      <point x="340" y="509" type="line" name="hr00"/>
      <point x="432" y="454"/>
      <point x="704" y="374"/>
      <point x="779" y="374" type="curve" smooth="yes"/>
      <point x="931" y="374"/>
      <point x="1097" y="590"/>
      <point x="1123" y="709" type="curve"/>
      <point x="1002" y="821" type="line"/>
      <point x="827" y="692" type="line"/>
      <point x="736" y="730"/>
      <point x="476" y="829"/>
      <point x="390" y="829" type="curve" smooth="yes"/>
      <point x="238" y="829"/>
      <point x="63" y="606"/>
      <point x="37" y="488" type="curve"/>
      <point x="158" y="377" type="line"/>
    </contour>
  </outline>
</glyph>
<glyph name="cent" format="1">
  <advance width="962"/>
  <unicode hex="00A2"/>
  <outline>
    <contour>
      <point x="626" y="1004" type="line" name="hr01"/>
      <point x="743" y="1508" type="line"/>
      <point x="717" y="1533"/>
      <point x="652" y="1544"/>
      <point x="598" y="1544" type="curve" smooth="yes"/>
      <point x="503" y="1544"/>
      <point x="445" y="1517"/>
      <point x="401" y="1447" type="curve" name="hr02"/>
      <point x="442" y="1059" type="line"/>
    </contour>
    <contour>
      <point x="307" y="70" type="line"/>
      <point x="249" y="-264" type="line"/>
      <point x="319" y="-345"/>
      <point x="479" y="-371"/>
      <point x="581" y="-300" type="curve"/>
      <point x="571" y="-184"/>
      <point x="555" y="-14"/>
      <point x="519" y="88" type="curve"/>
    </contour>
    <contour>
      <point x="115" y="319" type="curve" smooth="yes"/>
      <point x="115" y="215"/>
      <point x="77" y="199"/>
      <point x="161" y="127" type="curve" smooth="yes"/>
      <point x="188" y="105"/>
      <point x="342" y="-20"/>
      <point x="430" y="-20" type="curve" smooth="yes"/>
      <point x="587" y="-20"/>
      <point x="861" y="204"/>
      <point x="908" y="290" type="curve"/>
      <point x="807" y="443" type="line"/>
      <point x="695" y="383"/>
      <point x="507" y="304"/>
      <point x="459" y="284" type="curve" name="hr03"/>
      <point x="440" y="300" type="line"/>
      <point x="477" y="475"/>
      <point x="452" y="755"/>
      <point x="436" y="899" type="curve"/>
      <point x="498" y="815"/>
      <point x="628" y="713"/>
      <point x="730" y="653" type="curve"/>
      <point x="781" y="668"/>
      <point x="946" y="848"/>
      <point x="911" y="1079" type="curve"/>
      <point x="705" y="1127" type="line"/>
      <point x="655" y="1150"/>
      <point x="515" y="1204"/>
      <point x="455" y="1204" type="curve" smooth="yes"/>
      <point x="392" y="1204"/>
      <point x="270" y="1143"/>
      <point x="218" y="1112" type="curve" smooth="yes"/>
      <point x="166" y="1081"/>
      <point x="39" y="987"/>
      <point x="39" y="930" type="curve" smooth="yes"/>
      <point x="39" y="917"/>
      <point x="46" y="897"/>
      <point x="55" y="869" type="curve" smooth="yes"/>
      <point x="94" y="755"/>
      <point x="115" y="504"/>
    </contour>
  </outline>
</glyph>
<glyph name="currency" format="1">
  <advance width="1183"/>
  <unicode hex="00A4"/>
  <outline>
    <contour>
      <point x="769" y="964" type="line" name="hr01"/>
      <point x="710" y="998"/>
      <point x="645" y="1002"/>
      <point x="591" y="1002" type="curve" smooth="yes"/>
      <point x="358" y="1002"/>
      <point x="169" y="816"/>
      <point x="169" y="582" type="curve" smooth="yes"/>
      <point x="169" y="533"/>
      <point x="181" y="451"/>
      <point x="207" y="406" type="curve"/>
      <point x="379" y="215" type="line"/>
      <point x="431" y="183"/>
      <point x="531" y="160"/>
      <point x="591" y="160" type="curve" smooth="yes"/>
      <point x="817" y="160"/>
      <point x="1011" y="362"/>
      <point x="1011" y="582" type="curve" smooth="yes"/>
      <point x="1011" y="636"/>
      <point x="996" y="715"/>
      <point x="971" y="779" type="curve"/>
    </contour>
    <contour>
      <point x="218" y="425" type="line"/>
      <point x="21" y="281" type="line"/>
      <point x="21" y="200"/>
      <point x="153" y="42"/>
      <point x="237" y="38" type="curve"/>
      <point x="282" y="60"/>
      <point x="338" y="124"/>
      <point x="408" y="237" type="curve"/>
    </contour>
    <contour>
      <point x="961" y="772" type="line"/>
      <point x="1150" y="912" type="line"/>
      <point x="1150" y="993"/>
      <point x="1018" y="1151"/>
      <point x="934" y="1155" type="curve"/>
      <point x="891" y="1134"/>
      <point x="826" y="1064"/>
      <point x="765" y="956" type="curve"/>
    </contour>
    <contour>
      <point x="414" y="963" type="line"/>
      <point x="270" y="1160" type="line"/>
      <point x="189" y="1160"/>
      <point x="31" y="1028"/>
      <point x="27" y="944" type="curve"/>
      <point x="49" y="899"/>
      <point x="113" y="843"/>
      <point x="226" y="773" type="curve"/>
    </contour>
    <contour>
      <point x="761" y="220" type="line"/>
      <point x="901" y="31" type="line"/>
      <point x="982" y="31"/>
      <point x="1140" y="163"/>
      <point x="1144" y="247" type="curve"/>
      <point x="1123" y="290"/>
      <point x="1053" y="355"/>
      <point x="945" y="416" type="curve"/>
    </contour>
    <contour>
      <point x="691" y="438" type="line"/>
      <point x="677" y="431"/>
      <point x="659" y="428"/>
      <point x="637" y="428" type="curve" smooth="yes"/>
      <point x="580" y="428"/>
      <point x="507" y="450"/>
      <point x="476" y="476" type="curve"/>
      <point x="463" y="511"/>
      <point x="456" y="544"/>
      <point x="456" y="577" type="curve" smooth="yes"/>
      <point x="456" y="618"/>
      <point x="467" y="659"/>
      <point x="491" y="704" type="curve"/>
      <point x="506" y="712"/>
      <point x="526" y="715"/>
      <point x="549" y="715" type="curve" smooth="yes"/>
      <point x="605" y="715"/>
      <point x="674" y="694"/>
      <point x="707" y="668" type="curve"/>
      <point x="718" y="634"/>
      <point x="725" y="601"/>
      <point x="725" y="568" type="curve" smooth="yes"/>
      <point x="725" y="526"/>
      <point x="715" y="485"/>
      <point x="693" y="441" type="curve" smooth="yes"/>
    </contour>
  </outline>
</glyph>
<glyph name="yen" format="1">
  <advance width="1268"/>
  <unicode hex="00A5"/>
  <outline>
    <contour>
      <point x="571" y="804" type="line" name="hr01"/>
      <point x="145" y="794" type="line"/>
      <point x="119" y="759"/>
      <point x="103" y="708"/>
      <point x="103" y="653" type="curve" smooth="yes"/>
      <point x="103" y="640"/>
      <point x="104" y="627"/>
      <point x="106" y="612" type="curve"/>
      <point x="571" y="613" type="line"/>
    </contour>
    <contour>
      <point x="719" y="613" type="line"/>
      <point x="1134" y="613" type="line"/>
      <point x="1166" y="658"/>
      <point x="1177" y="720"/>
      <point x="1177" y="770" type="curve" smooth="yes" name="hr02"/>
      <point x="1177" y="788"/>
      <point x="1175" y="814"/>
      <point x="1171" y="832" type="curve"/>
      <point x="719" y="810" type="line"/>
    </contour>
    <contour>
      <point x="1105" y="309" type="line"/>
      <point x="1137" y="348"/>
      <point x="1149" y="410"/>
      <point x="1149" y="460" type="curve" smooth="yes"/>
      <point x="1149" y="480"/>
      <point x="1146" y="512"/>
      <point x="1142" y="532" type="curve"/>
      <point x="156" y="489" type="line"/>
      <point x="128" y="448"/>
      <point x="114" y="403"/>
      <point x="114" y="348" type="curve" smooth="yes"/>
      <point x="114" y="335"/>
      <point x="115" y="322"/>
      <point x="117" y="307" type="curve"/>
    </contour>
    <contour>
      <point x="2" y="1234" type="curve"/>
      <point x="170" y="1088" type="line"/>
      <point x="364" y="796" type="line"/>
      <point x="451" y="685" type="line" name="hr03"/>
      <point x="723" y="685" type="line"/>
      <point x="858" y="754" type="line"/>
      <point x="1011" y="894"/>
      <point x="1160" y="1049"/>
      <point x="1208" y="1165" type="curve"/>
      <point x="1199" y="1317"/>
      <point x="1146" y="1459"/>
      <point x="1036" y="1549" type="curve"/>
      <point x="887" y="1549"/>
      <point x="729" y="1438"/>
      <point x="667" y="1283" type="curve"/>
      <point x="715" y="1184"/>
      <point x="759" y="1137"/>
      <point x="827" y="1078" type="curve"/>
      <point x="659" y="752" type="line"/>
      <point x="642" y="752" type="line"/>
      <point x="441" y="1498" type="line"/>
      <point x="396" y="1520"/>
      <point x="348" y="1531"/>
      <point x="300" y="1531" type="curve" smooth="yes"/>
      <point x="154" y="1531"/>
      <point x="12" y="1429"/>
    </contour>
    <contour>
      <point x="471" y="750" type="line" name="hr05"/>
      <point x="423" y="62" type="line"/>
      <point x="477" y="12"/>
      <point x="546" y="-20"/>
      <point x="665" y="-20" type="curve" smooth="yes"/>
      <point x="729" y="-20"/>
      <point x="779" y="-9"/>
      <point x="822" y="19" type="curve"/>
      <point x="810" y="168"/>
      <point x="787" y="544"/>
      <point x="759" y="750" type="curve"/>
    </contour>
  </outline>
</glyph>
<glyph name="section" format="1">
  <advance width="900"/>
  <unicode hex="00A7"/>
  <outline>
    <contour>
      <point x="809" y="570" type="line" name="hr00"/>
      <point x="833" y="640"/>
      <point x="846" y="736"/>
      <point x="841" y="819" type="curve"/>
      <point x="764" y="916"/>
      <point x="488" y="1060"/>
      <point x="396" y="1109" type="curve"/>
      <point x="405" y="1325" type="line"/>
      <point x="431" y="1334" type="line"/>
      <point x="499" y="1241"/>
      <point x="625" y="1130"/>
      <point x="707" y="1096" type="curve"/>
      <point x="823" y="1216"/>
      <point x="881" y="1359"/>
      <point x="846" y="1480" type="curve"/>
      <point x="685" y="1534" type="line"/>
      <point x="626" y="1558"/>
      <point x="541" y="1616"/>
      <point x="482" y="1616" type="curve" smooth="yes"/>
      <point x="406" y="1616"/>
      <point x="283" y="1559"/>
      <point x="221" y="1522" type="curve" smooth="yes"/>
      <point x="176" y="1495"/>
      <point x="43" y="1396"/>
      <point x="43" y="1337" type="curve" smooth="yes"/>
      <point x="43" y="1295"/>
      <point x="44" y="1075"/>
      <point x="65" y="996" type="curve"/>
      <point x="90" y="964"/>
      <point x="140" y="929"/>
      <point x="199" y="897" type="curve"/>
      <point x="144" y="860"/>
      <point x="39" y="776"/>
      <point x="39" y="724" type="curve" smooth="yes"/>
      <point x="39" y="682"/>
      <point x="44" y="634"/>
      <point x="65" y="555" type="curve"/>
      <point x="157" y="467"/>
      <point x="397" y="360"/>
      <point x="531" y="321" type="curve"/>
      <point x="534" y="284"/>
      <point x="532" y="208"/>
      <point x="525" y="170" type="curve"/>
      <point x="476" y="146" type="line"/>
      <point x="367" y="226"/>
      <point x="240" y="311"/>
      <point x="99" y="315" type="curve"/>
      <point x="83" y="281"/>
      <point x="-3" y="178"/>
      <point x="97" y="-4" type="curve"/>
      <point x="179" y="-17"/>
      <point x="359" y="-72"/>
      <point x="539" y="-79" type="curve"/>
      <point x="646" y="-35"/>
      <point x="731" y="33"/>
      <point x="809" y="109" type="curve"/>
      <point x="833" y="179"/>
      <point x="846" y="275"/>
      <point x="841" y="358" type="curve"/>
      <point x="813" y="393"/>
      <point x="758" y="427"/>
      <point x="696" y="472" type="curve"/>
    </contour>
    <contour>
      <point x="540" y="769" type="line"/>
      <point x="542" y="747"/>
      <point x="542" y="737"/>
      <point x="542" y="725" type="curve" smooth="yes"/>
      <point x="542" y="692"/>
      <point x="540" y="656"/>
      <point x="534" y="625" type="curve"/>
      <point x="481" y="598" type="line"/>
      <point x="386" y="658" type="line"/>
      <point x="394" y="818" type="line"/>
    </contour>
  </outline>
</glyph>
<glyph name="dieresis" format="1">
  <advance width="1010"/>
  <unicode hex="00A8"/>
  <outline>
    <contour>
      <point x="199" y="1681" type="curve" name="hr00"/>
      <point x="322" y="1681"/>
      <point x="474" y="1633"/>
      <point x="510" y="1464" type="curve"/>
      <point x="471" y="1372"/>
      <point x="390" y="1283"/>
      <point x="307" y="1247" type="curve"/>
      <point x="210" y="1253"/>
      <point x="108" y="1331"/>
      <point x="90" y="1392" type="curve"/>
      <point x="147" y="1534"/>
      <point x="168" y="1580"/>
    </contour>
    <contour>
      <point x="667" y="1681" type="curve"/>
      <point x="789" y="1681"/>
      <point x="942" y="1633"/>
      <point x="978" y="1464" type="curve"/>
      <point x="939" y="1372"/>
      <point x="858" y="1283"/>
      <point x="775" y="1247" type="curve"/>
      <point x="678" y="1253"/>
      <point x="576" y="1331"/>
      <point x="558" y="1392" type="curve"/>
      <point x="615" y="1534"/>
      <point x="636" y="1580"/>
    </contour>
    <contour>
      <point x="507" y="0" type="move" name="_top"/>
    </contour>
  </outline>
</glyph>
<glyph name="copyright" format="1">
  <advance width="1433"/>
  <unicode hex="00A9"/>
  <outline>
    <contour>
      <point x="692" y="1042" type="line" name="hr01"/>
      <point x="703" y="931"/>
      <point x="712" y="813"/>
      <point x="684" y="679" type="curve"/>
      <point x="699" y="667" type="line"/>
      <point x="739" y="683"/>
      <point x="867" y="747"/>
      <point x="957" y="795" type="curve"/>
      <point x="1038" y="671" type="line"/>
      <point x="1001" y="602"/>
      <point x="804" y="420"/>
      <point x="676" y="420" type="curve" smooth="yes"/>
      <point x="605" y="420"/>
      <point x="488" y="522"/>
      <point x="466" y="539" type="curve"/>
      <point x="399" y="597"/>
      <point x="429" y="611"/>
      <point x="429" y="695" type="curve" smooth="yes"/>
      <point x="429" y="845"/>
      <point x="412" y="958"/>
      <point x="381" y="1050" type="curve" smooth="yes"/>
      <point x="373" y="1073"/>
      <point x="367" y="1089"/>
      <point x="367" y="1100" type="curve" smooth="yes"/>
      <point x="367" y="1145"/>
      <point x="471" y="1222"/>
      <point x="512" y="1247" type="curve" smooth="yes" name="hr02"/>
      <point x="554" y="1272"/>
      <point x="653" y="1322"/>
      <point x="705" y="1322" type="curve" smooth="yes"/>
      <point x="753" y="1322"/>
      <point x="850" y="1262"/>
      <point x="891" y="1243" type="curve"/>
      <point x="1041" y="1204" type="line"/>
      <point x="1070" y="1017"/>
      <point x="936" y="871"/>
      <point x="894" y="859" type="curve"/>
      <point x="818" y="905"/>
      <point x="764" y="987"/>
      <point x="716" y="1052" type="curve"/>
    </contour>
    <contour>
      <point x="705" y="1564" type="curve" smooth="yes"/>
      <point x="639" y="1564"/>
      <point x="226" y="1454"/>
      <point x="154" y="1360" type="curve" smooth="yes"/>
      <point x="118" y="1314"/>
      <point x="119" y="1186"/>
      <point x="119" y="1114" type="curve" smooth="yes"/>
      <point x="119" y="921"/>
      <point x="147" y="634"/>
      <point x="183" y="405" type="curve" smooth="yes"/>
      <point x="199" y="294"/>
      <point x="614" y="189"/>
      <point x="754" y="176" type="curve"/>
      <point x="830" y="188"/>
      <point x="1208" y="304"/>
      <point x="1239" y="410" type="curve"/>
      <point x="1275" y="541"/>
      <point x="1315" y="884"/>
      <point x="1315" y="1094" type="curve" smooth="yes"/>
      <point x="1315" y="1212"/>
      <point x="1310" y="1302"/>
      <point x="1264" y="1357" type="curve" smooth="yes"/>
      <point x="1171" y="1468"/>
      <point x="801" y="1564"/>
    </contour>
  </outline>
</glyph>
<glyph name="macron" format="1">
  <advance width="749"/>
  <unicode hex="00AF"/>
  <outline>
    <contour>
      <point x="23" y="1337" type="curve" name="hr00"/>
      <point x="337" y="1325"/>
      <point x="610" y="1331"/>
      <point x="680" y="1337" type="curve"/>
      <point x="725" y="1425"/>
      <point x="739" y="1528"/>
      <point x="720" y="1608" type="curve"/>
      <point x="69" y="1594" type="line"/>
      <point x="31" y="1529"/>
      <point x="13" y="1431"/>
    </contour>
    <contour>
      <point x="359" y="0" type="move" name="_top"/>
    </contour>
  </outline>
</glyph>
<glyph name="degree" format="1">
  <advance width="978"/>
  <unicode hex="00B0"/>
  <outline>
    <contour>
      <point x="57" y="1046" type="curve" name="hr01" smooth="yes"/>
      <point x="57" y="792"/>
      <point x="187" y="584"/>
      <point x="479" y="584" type="curve" smooth="yes"/>
      <point x="770" y="584"/>
      <point x="921" y="804"/>
      <point x="921" y="1063" type="curve" smooth="yes"/>
      <point x="921" y="1312"/>
      <point x="797" y="1510"/>
      <point x="496" y="1510" type="curve" smooth="yes"/>
      <point x="206" y="1510"/>
      <point x="57" y="1302"/>
    </contour>
    <contour>
      <point x="560" y="1202" type="curve"/>
      <point x="591" y="1153"/>
      <point x="612" y="1085"/>
      <point x="612" y="1015" type="curve" smooth="yes"/>
      <point x="612" y="951"/>
      <point x="594" y="886"/>
      <point x="564" y="835" type="curve"/>
      <point x="544" y="831"/>
      <point x="523" y="829"/>
      <point x="504" y="829" type="curve" smooth="yes"/>
      <point x="461" y="829"/>
      <point x="424" y="838"/>
      <point x="404" y="852" type="curve"/>
      <point x="374" y="907"/>
      <point x="352" y="977"/>
      <point x="352" y="1046" type="curve" smooth="yes"/>
      <point x="352" y="1108"/>
      <point x="371" y="1169"/>
      <point x="404" y="1216" type="curve"/>
      <point x="420" y="1219"/>
      <point x="435" y="1220"/>
      <point x="451" y="1220" type="curve" smooth="yes"/>
      <point x="487" y="1220"/>
      <point x="524" y="1213"/>
    </contour>
  </outline>
</glyph>
<glyph name="plusminus" format="1">
  <advance width="1069"/>
  <unicode hex="00B1"/>
  <outline>
    <contour>
      <point x="646" y="725" type="line" name="hr00"/>
      <point x="699" y="1093" type="line"/>
      <point x="673" y="1118"/>
      <point x="628" y="1129"/>
      <point x="574" y="1129" type="curve" smooth="yes"/>
      <point x="479" y="1129"/>
      <point x="401" y="1092"/>
      <point x="357" y="1022" type="curve"/>
      <point x="428" y="770" type="line"/>
    </contour>
    <contour>
      <point x="424" y="658" type="line"/>
      <point x="402" y="333" type="line"/>
      <point x="500" y="295"/>
      <point x="587" y="298"/>
      <point x="657" y="379" type="curve"/>
      <point x="657" y="598" type="line"/>
    </contour>
    <contour>
      <point x="907" y="585" type="line"/>
      <point x="961" y="691"/>
      <point x="998" y="782"/>
      <point x="975" y="878" type="curve"/>
      <point x="147" y="813" type="line"/>
      <point x="101" y="735"/>
      <point x="79" y="697"/>
      <point x="91" y="584" type="curve"/>
    </contour>
    <contour>
      <point x="907" y="0" type="line"/>
      <point x="961" y="106"/>
      <point x="998" y="197"/>
      <point x="975" y="293" type="curve"/>
      <point x="147" y="228" type="line"/>
      <point x="101" y="150"/>
      <point x="79" y="113"/>
      <point x="91" y="0" type="curve"/>
    </contour>
  </outline>
</glyph>
<glyph name="threesuperior" format="1">
  <advance width="949"/>
  <unicode hex="00B3"/>
  <outline>
    <contour>
      <point x="375" y="1119" type="line" name="hr00"/>
      <point x="259" y="1154" type="line"/>
      <point x="185" y="1126" type="line"/>
      <point x="165" y="1093"/>
      <point x="156" y="1059"/>
      <point x="156" y="1029" type="curve" smooth="yes"/>
      <point x="156" y="947"/>
      <point x="213" y="869"/>
      <point x="269" y="856" type="curve"/>
      <point x="322" y="867"/>
      <point x="395" y="918"/>
      <point x="427" y="971" type="curve"/>
      <point x="442" y="985"/>
      <point x="442" y="991"/>
      <point x="442" y="997" type="curve" smooth="yes"/>
      <point x="442" y="996"/>
      <point x="444" y="996"/>
      <point x="461" y="1015" type="curve"/>
    </contour>
    <contour>
      <point x="333" y="1356" type="line"/>
      <point x="513" y="1300" type="line"/>
      <point x="469" y="1239"/>
      <point x="314" y="1074"/>
      <point x="227" y="992" type="curve"/>
      <point x="384" y="1022" type="line"/>
      <point x="394" y="1027"/>
      <point x="409" y="1034"/>
      <point x="426" y="1040" type="curve"/>
      <point x="487" y="1057" type="line"/>
      <point x="557" y="1095"/>
      <point x="677" y="1166"/>
      <point x="793" y="1267" type="curve"/>
      <point x="799" y="1301"/>
      <point x="802" y="1331"/>
      <point x="802" y="1358" type="curve" smooth="yes"/>
      <point x="802" y="1399"/>
      <point x="796" y="1456"/>
      <point x="785" y="1491" type="curve"/>
      <point x="721" y="1558"/>
      <point x="466" y="1614"/>
      <point x="401" y="1614" type="curve" smooth="yes"/>
      <point x="384" y="1614"/>
      <point x="339" y="1603"/>
      <point x="296" y="1589" type="curve"/>
      <point x="224" y="1566"/>
      <point x="138" y="1530"/>
      <point x="98" y="1483" type="curve"/>
      <point x="82" y="1454"/>
      <point x="75" y="1425"/>
      <point x="75" y="1397" type="curve" smooth="yes"/>
      <point x="75" y="1349"/>
      <point x="91" y="1311"/>
      <point x="106" y="1269" type="curve"/>
      <point x="106" y="1271" type="line"/>
      <point x="116" y="1239" type="line"/>
      <point x="152" y="1223"/>
      <point x="182" y="1217"/>
      <point x="209" y="1217" type="curve" smooth="yes"/>
      <point x="240" y="1217"/>
      <point x="273" y="1224"/>
      <point x="309" y="1237" type="curve"/>
      <point x="315" y="1276"/>
      <point x="323" y="1315"/>
      <point x="329" y="1355" type="curve"/>
    </contour>
    <contour>
      <point x="695" y="575" type="curve" smooth="yes"/>
      <point x="796" y="633"/>
      <point x="860" y="742"/>
      <point x="861" y="913" type="curve"/>
      <point x="863" y="991"/>
      <point x="721" y="1066"/>
      <point x="571" y="1084" type="curve"/>
      <point x="529" y="1084"/>
      <point x="408" y="1103"/>
      <point x="373" y="1093" type="curve"/>
      <point x="329" y="1081" type="line"/>
      <point x="297" y="993"/>
      <point x="304" y="992"/>
      <point x="342" y="985" type="curve" smooth="yes"/>
      <point x="346" y="984"/>
      <point x="351" y="983"/>
      <point x="358" y="979" type="curve"/>
      <point x="375" y="971" type="line"/>
      <point x="374" y="972" type="line"/>
      <point x="426" y="949"/>
      <point x="568" y="900"/>
      <point x="599" y="852" type="curve"/>
      <point x="594" y="820"/>
      <point x="584" y="782"/>
      <point x="572" y="753" type="curve"/>
      <point x="550" y="749"/>
      <point x="529" y="746"/>
      <point x="511" y="746" type="curve" smooth="yes"/>
      <point x="417" y="748"/>
      <point x="242" y="773"/>
      <point x="154" y="817" type="curve"/>
      <point x="113" y="782"/>
      <point x="90" y="770"/>
      <point x="90" y="724" type="curve" smooth="yes"/>
      <point x="90" y="710"/>
      <point x="91" y="664"/>
      <point x="94" y="651" type="curve"/>
      <point x="157" y="561"/>
      <point x="323" y="522"/>
      <point x="470" y="522" type="curve" smooth="yes"/>
      <point x="540" y="522"/>
      <point x="637" y="541"/>
    </contour>
  </outline>
</glyph>
<glyph name="micro" format="1">
  <advance width="1214"/>
  <unicode hex="00B5"/>
  <outline>
    <contour>
      <point x="369" y="77" type="line" name="hr01"/>
      <point x="419" y="42"/>
      <point x="494" y="0"/>
      <point x="510" y="0" type="curve" smooth="yes"/>
      <point x="568" y="1"/>
      <point x="602" y="98"/>
      <point x="703" y="497" type="curve"/>
      <point x="718" y="490" type="line"/>
      <point x="704" y="400"/>
      <point x="694" y="322"/>
      <point x="684" y="221" type="curve" smooth="yes"/>
      <point x="683" y="211"/>
      <point x="682" y="202"/>
      <point x="682" y="193" type="curve" smooth="yes"/>
      <point x="682" y="126"/>
      <point x="712" y="104"/>
      <point x="734" y="80" type="curve" name="hr02" smooth="yes"/>
      <point x="789" y="20"/>
      <point x="866" y="-20"/>
      <point x="929" y="-20" type="curve" smooth="yes"/>
      <point x="1045" y="-20"/>
      <point x="1145" y="120"/>
      <point x="1214" y="279" type="curve"/>
      <point x="1129" y="400" type="line"/>
      <point x="956" y="308" type="line"/>
      <point x="1050" y="531"/>
      <point x="1128" y="956"/>
      <point x="1128" y="1050" type="curve" smooth="yes"/>
      <point x="1128" y="1061" type="line"/>
      <point x="1057" y="1145"/>
      <point x="973" y="1182"/>
      <point x="851" y="1182" type="curve" smooth="yes"/>
      <point x="774" y="1182"/>
      <point x="704" y="1168"/>
      <point x="683" y="1154" type="curve"/>
      <point x="683" y="1122"/>
      <point x="688" y="1050"/>
      <point x="712" y="764" type="curve"/>
      <point x="692" y="689"/>
      <point x="541" y="434"/>
      <point x="470" y="361" type="curve"/>
      <point x="439" y="375" type="line"/>
      <point x="469" y="557"/>
      <point x="472" y="735"/>
      <point x="461" y="931" type="curve"/>
      <point x="457" y="1017"/>
      <point x="449" y="1100"/>
      <point x="439" y="1174" type="curve" name="hr03"/>
      <point x="415" y="1185"/>
      <point x="378" y="1191"/>
      <point x="334" y="1191" type="curve" smooth="yes"/>
      <point x="212" y="1191"/>
      <point x="42" y="1141"/>
      <point x="-5" y="1004" type="curve"/>
      <point x="180" y="666" type="line"/>
      <point x="91" y="291"/>
      <point x="84" y="-192"/>
      <point x="84" y="-365" type="curve"/>
      <point x="135" y="-410"/>
      <point x="223" y="-439"/>
      <point x="330" y="-439" type="curve" smooth="yes"/>
      <point x="394" y="-439"/>
      <point x="443" y="-427"/>
      <point x="473" y="-403" type="curve"/>
      <point x="460" y="-269"/>
      <point x="444" y="-119"/>
      <point x="360" y="70" type="curve"/>
    </contour>
  </outline>
</glyph>
<glyph name="paragraph" format="1">
  <advance width="1617"/>
  <unicode hex="00B6"/>
  <outline>
    <contour>
      <point x="1243" y="237" type="curve" name="hr00"/>
      <point x="1301" y="351"/>
      <point x="1365" y="880"/>
      <point x="1356" y="919" type="curve"/>
      <point x="1329" y="981"/>
      <point x="1117" y="1060"/>
      <point x="971" y="999" type="curve"/>
      <point x="1026" y="271" type="line"/>
      <point x="985" y="181"/>
      <point x="948" y="-13"/>
      <point x="937" y="-147" type="curve"/>
      <point x="1012" y="-206"/>
      <point x="1243" y="-198"/>
      <point x="1323" y="-105" type="curve"/>
      <point x="1290" y="56"/>
      <point x="1272" y="157"/>
    </contour>
    <contour>
      <point x="764" y="631" type="line"/>
      <point x="756" y="1160" type="line"/>
      <point x="850" y="1156"/>
      <point x="1157" y="1108"/>
      <point x="1457" y="1204" type="curve"/>
      <point x="1481" y="1308"/>
      <point x="1488" y="1524"/>
      <point x="1398" y="1608" type="curve"/>
      <point x="796" y="1479" type="line"/>
      <point x="162" y="1315" type="line"/>
      <point x="147" y="1110"/>
      <point x="157" y="714"/>
      <point x="233" y="507" type="curve"/>
      <point x="302" y="449"/>
      <point x="530" y="416"/>
      <point x="664" y="360" type="curve"/>
    </contour>
    <contour>
      <point x="765" y="632" type="line"/>
      <point x="679" y="713"/>
      <point x="594" y="505"/>
      <point x="544" y="460" type="curve"/>
      <point x="388" y="-147" type="line"/>
      <point x="505" y="-228"/>
      <point x="717" y="-170"/>
      <point x="741" y="-105" type="curve"/>
    </contour>
  </outline>
</glyph>
<glyph name="onequarter" format="1">
  <advance width="2198"/>
  <unicode hex="00BC"/>
  <outline>
    <contour>
      <point x="1729" y="1017" type="line" name="hr00"/>
      <point x="1698" y="1056"/>
      <point x="1614" y="1062"/>
      <point x="1580" y="1062" type="curve" smooth="yes"/>
      <point x="1494" y="1062"/>
      <point x="1404" y="1034"/>
      <point x="1353" y="967" type="curve"/>
      <point x="1295" y="354" type="line"/>
      <point x="1297" y="352" type="line"/>
      <point x="1295" y="349" type="line"/>
      <point x="1298" y="346" type="line"/>
      <point x="1814" y="257" type="line"/>
      <point x="1901" y="477" type="line"/>
      <point x="1521" y="504" type="line"/>
    </contour>
    <contour>
      <point x="1419" y="508" type="line"/>
      <point x="1219" y="532" type="line"/>
      <point x="1150" y="419"/>
      <point x="1227" y="252"/>
      <point x="1304" y="235" type="curve"/>
      <point x="1362" y="247"/>
      <point x="1444" y="305"/>
      <point x="1476" y="365" type="curve"/>
      <point x="1505" y="391"/>
      <point x="1475" y="368"/>
      <point x="1505" y="401" type="curve"/>
    </contour>
    <contour>
      <point x="2057" y="14" type="curve"/>
      <point x="2040" y="146"/>
      <point x="2003" y="334"/>
      <point x="1988" y="381" type="curve"/>
      <point x="2040" y="609"/>
      <point x="2066" y="840"/>
      <point x="2058" y="901" type="curve"/>
      <point x="2039" y="909"/>
      <point x="2018" y="913"/>
      <point x="1997" y="913" type="curve" smooth="yes"/>
      <point x="1812" y="913"/>
      <point x="1723" y="810"/>
      <point x="1705" y="773" type="curve"/>
      <point x="1782" y="461" type="line"/>
      <point x="1719" y="14" type="line"/>
      <point x="1752" y="-9"/>
      <point x="1853" y="-21"/>
      <point x="1911" y="-20" type="curve" smooth="yes"/>
      <point x="1963" y="-19"/>
      <point x="2024" y="-10"/>
    </contour>
    <component base="one" xScale="0.875598" yScale="0.875104" xOffset="145" yOffset="781"/>
    <component base="fraction" xOffset="264" yOffset="93"/>
  </outline>
</glyph>
<glyph name="threequarters" format="1">
  <advance width="2478"/>
  <unicode hex="00BE"/>
  <outline>
    <contour>
      <point x="1814" y="1017" type="line" name="hr00"/>
      <point x="1783" y="1056"/>
      <point x="1699" y="1062"/>
      <point x="1665" y="1062" type="curve" smooth="yes"/>
      <point x="1579" y="1062"/>
      <point x="1489" y="1034"/>
      <point x="1438" y="967" type="curve"/>
      <point x="1380" y="354" type="line"/>
      <point x="1382" y="352" type="line"/>
      <point x="1380" y="349" type="line"/>
      <point x="1383" y="346" type="line"/>
      <point x="1899" y="257" type="line"/>
      <point x="1986" y="477" type="line"/>
      <point x="1606" y="504" type="line"/>
    </contour>
    <contour>
      <point x="1504" y="508" type="line"/>
      <point x="1304" y="532" type="line"/>
      <point x="1235" y="419"/>
      <point x="1312" y="252"/>
      <point x="1389" y="235" type="curve"/>
      <point x="1447" y="247"/>
      <point x="1529" y="305"/>
      <point x="1561" y="365" type="curve"/>
      <point x="1590" y="391"/>
      <point x="1560" y="368"/>
      <point x="1590" y="401" type="curve"/>
    </contour>
    <contour>
      <point x="2142" y="14" type="curve"/>
      <point x="2125" y="146"/>
      <point x="2088" y="334"/>
      <point x="2073" y="381" type="curve"/>
      <point x="2125" y="609"/>
      <point x="2151" y="840"/>
      <point x="2143" y="901" type="curve"/>
      <point x="2124" y="909"/>
      <point x="2103" y="913"/>
      <point x="2082" y="913" type="curve" smooth="yes"/>
      <point x="1897" y="913"/>
      <point x="1808" y="810"/>
      <point x="1790" y="773" type="curve"/>
      <point x="1867" y="461" type="line"/>
      <point x="1804" y="14" type="line"/>
      <point x="1837" y="-9"/>
      <point x="1938" y="-21"/>
      <point x="1996" y="-20" type="curve" smooth="yes"/>
      <point x="2048" y="-19"/>
      <point x="2109" y="-10"/>
    </contour>
    <component base="threesuperior" yOffset="199"/>
    <component base="fraction" xOffset="354" yOffset="93"/>
  </outline>
</glyph>
<glyph name="AE" format="1">
  <advance width="1744"/>
  <unicode hex="00C6"/>
  <outline>
    <contour>
      <point x="1055" y="284" type="line" name="hr00"/>
      <point x="1034" y="423"/>
      <point x="1159" y="701"/>
      <point x="1025" y="1366" type="curve"/>
      <point x="702" y="1158" type="line"/>
      <point x="883" y="333" type="line"/>
      <point x="802" y="139" type="line"/>
      <point x="850" y="88"/>
      <point x="938" y="57"/>
      <point x="1041" y="58" type="curve" smooth="yes"/>
      <point x="1112" y="59"/>
      <point x="1185" y="75"/>
      <point x="1245" y="112" type="curve"/>
      <point x="1247" y="149"/>
      <point x="1249" y="175"/>
      <point x="1239" y="246" type="curve"/>
    </contour>
    <contour>
      <point x="1012" y="674" type="line"/>
      <point x="918" y="664"/>
      <point x="524" y="633"/>
      <point x="437" y="617" type="curve"/>
      <point x="419" y="453" type="line"/>
      <point x="492" y="440"/>
      <point x="690" y="427"/>
      <point x="800" y="420" type="curve"/>
      <point x="1027" y="420" type="line"/>
    </contour>
    <contour>
      <point x="361" y="1187" type="line"/>
      <point x="183" y="292" type="line"/>
      <point x="51" y="303" type="line"/>
      <point x="6" y="140" type="line"/>
      <point x="44" y="41"/>
      <point x="154" y="-18"/>
      <point x="266" y="-20" type="curve" smooth="yes"/>
      <point x="515" y="-24"/>
      <point x="524" y="272"/>
      <point x="555" y="517" type="curve" smooth="yes"/>
      <point x="589" y="783"/>
      <point x="611" y="1095"/>
      <point x="613" y="1167" type="curve"/>
    </contour>
    <contour>
      <point x="1025" y="1366" type="line"/>
      <point x="759" y="1409" type="line"/>
      <point x="255" y="1549" type="line"/>
      <point x="172" y="1474"/>
      <point x="130" y="1309"/>
      <point x="127" y="1206" type="curve"/>
      <point x="248" y="1160"/>
      <point x="581" y="1131"/>
      <point x="756" y="1119" type="curve"/>
    </contour>
    <contour>
      <point x="1168" y="1455" type="line"/>
      <point x="824" y="1529" type="line"/>
      <point x="741" y="1471"/>
      <point x="661" y="1354"/>
      <point x="661" y="1265" type="curve"/>
      <point x="882" y="681" type="line"/>
      <point x="849" y="595" type="line"/>
      <point x="762" y="191" type="line"/>
      <point x="777" y="149"/>
      <point x="797" y="107"/>
      <point x="836" y="68" type="curve"/>
      <point x="973" y="22"/>
      <point x="1281" y="-20"/>
      <point x="1427" y="-20" type="curve" smooth="yes"/>
      <point x="1591" y="-20"/>
      <point x="1678" y="84"/>
      <point x="1678" y="238" type="curve" smooth="yes"/>
      <point x="1678" y="327"/>
      <point x="1661" y="418"/>
      <point x="1640" y="474" type="curve"/>
      <point x="1460" y="489" type="line"/>
      <point x="1378" y="299" type="line"/>
      <point x="1091" y="319" type="line"/>
      <point x="1105" y="664" type="line"/>
      <point x="1212" y="604"/>
      <point x="1350" y="581"/>
      <point x="1479" y="581" type="curve" smooth="yes"/>
      <point x="1499" y="581"/>
      <point x="1519" y="582"/>
      <point x="1539" y="584" type="curve"/>
      <point x="1562" y="609"/>
      <point x="1590" y="692"/>
      <point x="1590" y="778" type="curve" smooth="yes"/>
      <point x="1590" y="832"/>
      <point x="1579" y="886"/>
      <point x="1550" y="930" type="curve"/>
      <point x="1400" y="899"/>
      <point x="1307" y="874"/>
      <point x="1097" y="851" type="curve"/>
      <point x="1080" y="1174" type="line"/>
      <point x="1259" y="1123"/>
      <point x="1407" y="1089"/>
      <point x="1525" y="1075" type="curve"/>
      <point x="1591" y="1125"/>
      <point x="1632" y="1225"/>
      <point x="1632" y="1331" type="curve" smooth="yes"/>
      <point x="1632" y="1423"/>
      <point x="1603" y="1511"/>
      <point x="1537" y="1549" type="curve"/>
    </contour>
  </outline>
</glyph>
<glyph name="Oslash" format="1">
  <advance width="1297"/>
  <unicode hex="00D8"/>
  <outline>
    <contour>
      <point x="931" y="1159" type="line" name="hr00"/>
      <point x="1187" y="1655" type="line"/>
      <point x="1137" y="1757"/>
      <point x="1079" y="1789"/>
      <point x="980" y="1817" type="curve"/>
      <point x="766" y="1358" type="line"/>
    </contour>
    <contour>
      <point x="375" y="346" type="line"/>
      <point x="178" y="-190" type="line"/>
      <point x="227" y="-271"/>
      <point x="304" y="-253"/>
      <point x="383" y="-257" type="curve"/>
      <point x="556" y="150" type="line"/>
    </contour>
    <component base="O"/>
  </outline>
</glyph>
<glyph name="germandbls" format="1">
  <advance width="1249"/>
  <unicode hex="00DF"/>
  <outline>
    <contour>
      <point x="541" y="654" type="line" name="hr00"/>
      <point x="599" y="579"/>
      <point x="816" y="477"/>
      <point x="918" y="432" type="curve"/>
      <point x="911" y="379"/>
      <point x="891" y="295"/>
      <point x="868" y="234" type="curve"/>
      <point x="845" y="227" type="line"/>
      <point x="786" y="303"/>
      <point x="744" y="375"/>
      <point x="621" y="391" type="curve"/>
      <point x="603" y="361"/>
      <point x="494" y="236"/>
      <point x="577" y="54" type="curve"/>
      <point x="653" y="35"/>
      <point x="699" y="21"/>
      <point x="851" y="-21" type="curve"/>
      <point x="959" y="19"/>
      <point x="1064" y="94"/>
      <point x="1139" y="167" type="curve"/>
      <point x="1175" y="233"/>
      <point x="1251" y="403"/>
      <point x="1254" y="486" type="curve"/>
      <point x="1188" y="582"/>
      <point x="929" y="763"/>
      <point x="838" y="814" type="curve"/>
    </contour>
    <contour>
      <point x="464" y="1311" type="line"/>
      <point x="514" y="1278"/>
      <point x="619" y="1214"/>
      <point x="685" y="1187" type="curve"/>
      <point x="541" y="654" type="line"/>
      <point x="768" y="635" type="line"/>
      <point x="890" y="816"/>
      <point x="1091" y="1167"/>
      <point x="1122" y="1380" type="curve"/>
      <point x="941" y="1518"/>
      <point x="645" y="1601"/>
      <point x="484" y="1613" type="curve"/>
      <point x="313" y="1564"/>
      <point x="169" y="1438"/>
      <point x="65" y="1295" type="curve"/>
      <point x="56" y="1111"/>
      <point x="137" y="185"/>
      <point x="205" y="-137" type="curve"/>
      <point x="39" y="-116"/>
      <point x="-7" y="-107"/>
      <point x="-43" y="-99" type="curve"/>
      <point x="-67" y="-159"/>
      <point x="-84" y="-205"/>
      <point x="-85" y="-281" type="curve"/>
      <point x="-57" y="-327"/>
      <point x="51" y="-416"/>
      <point x="168" y="-438" type="curve"/>
      <point x="273" y="-438"/>
      <point x="395" y="-343"/>
      <point x="437" y="-281" type="curve" smooth="yes"/>
      <point x="452" y="-260"/>
      <point x="464" y="-238"/>
      <point x="467" y="-214" type="curve"/>
      <point x="448" y="1297" type="line"/>
    </contour>
  </outline>
</glyph>
<glyph name="ae" format="1">
  <advance width="1533"/>
  <unicode hex="00E6"/>
  <outline>
    <contour>
      <point x="1472" y="770" type="curve" name="hr00" smooth="yes"/>
      <point x="1486" y="798"/>
      <point x="1493" y="843"/>
      <point x="1493" y="889" type="curve" smooth="yes"/>
      <point x="1493" y="1016"/>
      <point x="1469" y="1031"/>
      <point x="1451" y="1038" type="curve" smooth="yes"/>
      <point x="1388" y="1061"/>
      <point x="1342" y="1075"/>
      <point x="1276" y="1110" type="curve" smooth="yes"/>
      <point x="1200" y="1151"/>
      <point x="1115" y="1224"/>
      <point x="1061" y="1224" type="curve" smooth="yes"/>
      <point x="988" y="1224"/>
      <point x="865" y="1164"/>
      <point x="804" y="1129" type="curve" smooth="yes"/>
      <point x="695" y="1066"/>
      <point x="688" y="967"/>
      <point x="671" y="907" type="curve"/>
      <point x="619" y="993"/>
      <point x="521" y="1143"/>
      <point x="436" y="1203" type="curve"/>
      <point x="397" y="1198"/>
      <point x="194" y="1161"/>
      <point x="71" y="1004" type="curve" smooth="yes"/>
      <point x="51" y="979"/>
      <point x="45" y="965"/>
      <point x="45" y="949" type="curve" smooth="yes"/>
      <point x="45" y="936"/>
      <point x="48" y="921"/>
      <point x="56" y="894" type="curve" smooth="yes"/>
      <point x="102" y="737"/>
      <point x="122" y="477"/>
      <point x="122" y="319" type="curve" smooth="yes"/>
      <point x="122" y="265"/>
      <point x="116" y="174"/>
      <point x="116" y="146" type="curve" smooth="yes"/>
      <point x="116" y="93"/>
      <point x="198" y="65"/>
      <point x="247" y="30" type="curve" smooth="yes"/>
      <point x="287" y="1"/>
      <point x="320" y="-20"/>
      <point x="357" y="-20" type="curve" smooth="yes"/>
      <point x="466" y="-20"/>
      <point x="616" y="324"/>
      <point x="683" y="496" type="curve"/>
      <point x="698" y="492" type="line"/>
      <point x="709" y="414"/>
      <point x="700" y="311"/>
      <point x="694" y="227" type="curve" smooth="yes"/>
      <point x="691" y="191"/>
      <point x="705" y="164"/>
      <point x="801" y="82" type="curve" smooth="yes"/>
      <point x="870" y="23"/>
      <point x="911" y="-20"/>
      <point x="956" y="-20" type="curve" smooth="yes"/>
      <point x="1134" y="-20"/>
      <point x="1387" y="192"/>
      <point x="1467" y="299" type="curve"/>
      <point x="1382" y="438" type="line"/>
      <point x="1253" y="376"/>
      <point x="1124" y="297"/>
      <point x="1056" y="284" type="curve"/>
      <point x="1027" y="284" type="line"/>
      <point x="1205" y="444"/>
      <point x="1456" y="741"/>
    </contour>
    <contour>
      <point x="420" y="352" type="line"/>
      <point x="446" y="473"/>
      <point x="462" y="590"/>
      <point x="462" y="712" type="curve" smooth="yes"/>
      <point x="462" y="819" type="line"/>
      <point x="531" y="812"/>
      <point x="592" y="793"/>
      <point x="672" y="773" type="curve"/>
      <point x="672" y="720" type="line" smooth="yes"/>
      <point x="672" y="711"/>
      <point x="672" y="717"/>
      <point x="670" y="693" type="curve"/>
      <point x="637" y="623"/>
      <point x="525" y="411"/>
      <point x="450" y="338" type="curve"/>
    </contour>
    <contour>
      <point x="1009" y="417" type="curve"/>
      <point x="1009" y="418"/>
      <point x="1010" y="419"/>
      <point x="1010" y="420" type="curve" smooth="yes"/>
      <point x="1023" y="521"/>
      <point x="1033" y="795"/>
      <point x="1033" y="851" type="curve"/>
      <point x="1124" y="822"/>
      <point x="1192" y="802"/>
      <point x="1227" y="794" type="curve"/>
      <point x="1169" y="658"/>
      <point x="1055" y="485"/>
    </contour>
  </outline>
</glyph>
<glyph name="eth" format="1">
  <advance width="1073"/>
  <unicode hex="00F0"/>
  <outline>
    <contour>
      <point x="486" y="1014" type="curve" name="hr00"/>
      <point x="384" y="1000"/>
      <point x="139" y="910"/>
      <point x="80" y="836" type="curve"/>
      <point x="67" y="752"/>
      <point x="62" y="654"/>
      <point x="62" y="580" type="curve" smooth="yes"/>
      <point x="62" y="411"/>
      <point x="90" y="266"/>
      <point x="126" y="136" type="curve"/>
      <point x="218" y="63"/>
      <point x="429" y="-8"/>
      <point x="562" y="-20" type="curve"/>
      <point x="627" y="-13"/>
      <point x="687" y="9"/>
      <point x="772" y="52" type="curve" smooth="yes"/>
      <point x="829" y="81"/>
      <point x="911" y="130"/>
      <point x="936" y="160" type="curve"/>
      <point x="970" y="284"/>
      <point x="1013" y="560"/>
      <point x="1013" y="759" type="curve"/>
      <point x="996" y="824" type="line"/>
      <point x="908" y="929"/>
      <point x="653" y="998"/>
    </contour>
    <contour>
      <point x="630" y="852" type="line"/>
      <point x="641" y="738"/>
      <point x="648" y="611"/>
      <point x="648" y="489" type="curve" smooth="yes"/>
      <point x="648" y="412"/>
      <point x="645" y="336"/>
      <point x="639" y="268" type="curve"/>
      <point x="584" y="230" type="line"/>
      <point x="521" y="249"/>
      <point x="469" y="275"/>
      <point x="428" y="302" type="curve"/>
      <point x="420" y="366"/>
      <point x="417" y="451"/>
      <point x="417" y="506" type="curve" smooth="yes"/>
      <point x="417" y="555"/>
      <point x="420" y="604"/>
      <point x="426" y="678" type="curve"/>
    </contour>
    <contour>
      <point x="994" y="1058" type="curve"/>
      <point x="789" y="1273"/>
      <point x="492" y="1511"/>
      <point x="156" y="1613" type="curve"/>
      <point x="106" y="1591"/>
      <point x="39" y="1470"/>
      <point x="39" y="1419" type="curve"/>
      <point x="373" y="1215" type="line"/>
      <point x="538" y="1083"/>
      <point x="669" y="932"/>
      <point x="783" y="743" type="curve"/>
      <point x="1013" y="759" type="line"/>
      <point x="1013" y="777"/>
      <point x="1013" y="797"/>
      <point x="1013" y="819" type="curve" smooth="yes"/>
      <point x="1013" y="897"/>
      <point x="1010" y="989"/>
    </contour>
    <contour>
      <point x="739" y="1538" type="line"/>
      <point x="702" y="1629"/>
      <point x="578" y="1664"/>
      <point x="519" y="1671" type="curve"/>
      <point x="105" y="1168" type="line"/>
      <point x="130" y="1097"/>
      <point x="211" y="1070"/>
      <point x="278" y="1059" type="curve"/>
    </contour>
    <contour>
      <point x="836" y="786" type="line"/>
      <point x="621" y="1059" type="line"/>
      <point x="564" y="956" type="line"/>
      <point x="564" y="852" type="line"/>
    </contour>
  </outline>
</glyph>
<glyph name="divide" format="1">
  <advance width="999"/>
  <unicode hex="00F7"/>
  <outline>
    <contour>
      <point x="698" y="1023" type="curve" name="hr00"/>
      <point x="675" y="922"/>
      <point x="543" y="827"/>
      <point x="473" y="805" type="curve"/>
      <point x="394" y="839"/>
      <point x="322" y="894"/>
      <point x="293" y="980" type="curve"/>
      <point x="304" y="1017"/>
      <point x="428" y="1168"/>
      <point x="467" y="1194" type="curve"/>
      <point x="565" y="1167"/>
      <point x="646" y="1096"/>
    </contour>
    <contour>
      <point x="698" y="198" type="curve"/>
      <point x="675" y="97"/>
      <point x="543" y="3"/>
      <point x="473" y="-20" type="curve"/>
      <point x="394" y="14"/>
      <point x="322" y="69"/>
      <point x="293" y="155" type="curve"/>
      <point x="304" y="193"/>
      <point x="428" y="343"/>
      <point x="467" y="369" type="curve"/>
      <point x="565" y="342"/>
      <point x="646" y="271"/>
    </contour>
    <component base="minus"/>
  </outline>
</glyph>
<glyph name="oslash" format="1">
  <advance width="1083"/>
  <unicode hex="00F8"/>
  <outline>
    <contour>
      <point x="756" y="813" type="line" name="hr00"/>
      <point x="977" y="1291" type="line"/>
      <point x="928" y="1389"/>
      <point x="882" y="1421"/>
      <point x="786" y="1448" type="curve"/>
      <point x="607" y="996" type="line"/>
    </contour>
    <contour>
      <point x="319" y="337" type="line"/>
      <point x="142" y="-130" type="line"/>
      <point x="189" y="-208"/>
      <point x="244" y="-228"/>
      <point x="319" y="-232" type="curve"/>
      <point x="492" y="149" type="line"/>
    </contour>
    <component base="o"/>
  </outline>
</glyph>
<glyph name="Aogonek" format="1">
  <advance width="1272"/>
  <unicode hex="0104"/>
  <outline>
    <contour>
      <point x="987" y="-170" type="line" name="hr00"/>
      <point x="1026" y="-97"/>
      <point x="1174" y="-18"/>
      <point x="1245" y="34" type="curve"/>
      <point x="1023" y="46" type="line"/>
      <point x="928" y="-9"/>
      <point x="735" y="-114"/>
      <point x="735" y="-225" type="curve" smooth="yes"/>
      <point x="735" y="-320"/>
      <point x="885" y="-438"/>
      <point x="982" y="-438" type="curve" smooth="yes"/>
      <point x="1098" y="-438"/>
      <point x="1177" y="-374"/>
      <point x="1244" y="-243" type="curve"/>
      <point x="1197" y="-116" type="line"/>
      <point x="1001" y="-183" type="line"/>
    </contour>
    <component base="A"/>
  </outline>
</glyph>
<glyph name="dcaron" format="1">
  <advance width="1444"/>
  <unicode hex="010F"/>
  <outline>
    <contour>
      <point x="947" y="308" type="line" name="hr00"/>
      <point x="1034" y="599"/>
      <point x="1077" y="1463"/>
      <point x="1068" y="1524" type="curve"/>
      <point x="997" y="1590"/>
      <point x="894" y="1613"/>
      <point x="802" y="1613" type="curve" smooth="yes"/>
      <point x="706" y="1613"/>
      <point x="622" y="1587"/>
      <point x="599" y="1559" type="curve"/>
      <point x="602" y="1519"/>
      <point x="660" y="1108"/>
      <point x="677" y="910" type="curve"/>
      <point x="672" y="908" type="line"/>
      <point x="610" y="1011"/>
      <point x="539" y="1130"/>
      <point x="431" y="1204" type="curve"/>
      <point x="392" y="1199"/>
      <point x="191" y="1162"/>
      <point x="70" y="1005" type="curve" smooth="yes"/>
      <point x="51" y="980"/>
      <point x="45" y="966"/>
      <point x="45" y="950" type="curve" smooth="yes"/>
      <point x="45" y="937"/>
      <point x="49" y="922"/>
      <point x="57" y="895" type="curve" smooth="yes"/>
      <point x="133" y="634"/>
      <point x="126" y="372"/>
      <point x="130" y="147" type="curve" smooth="yes"/>
      <point x="131" y="94"/>
      <point x="213" y="66"/>
      <point x="263" y="31" type="curve" smooth="yes"/>
      <point x="302" y="3"/>
      <point x="338" y="-22"/>
      <point x="374" y="-20" type="curve" smooth="yes"/>
      <point x="392" y="-19"/>
      <point x="410" y="-11"/>
      <point x="429" y="5" type="curve" smooth="yes"/>
      <point x="524" y="87"/>
      <point x="638" y="356"/>
      <point x="691" y="497" type="curve"/>
      <point x="696" y="495" type="line"/>
      <point x="690" y="403"/>
      <point x="685" y="322"/>
      <point x="677" y="221" type="curve" smooth="yes"/>
      <point x="669" y="132"/>
      <point x="704" y="107"/>
      <point x="729" y="80" type="curve" smooth="yes"/>
      <point x="785" y="21"/>
      <point x="864" y="-21"/>
      <point x="926" y="-20" type="curve" smooth="yes"/>
      <point x="1042" y="-18"/>
      <point x="1195" y="150"/>
      <point x="1262" y="310" type="curve"/>
      <point x="1174" y="431" type="line"/>
    </contour>
    <contour>
      <point x="430" y="353" type="line"/>
      <point x="454" y="474"/>
      <point x="468" y="591"/>
      <point x="466" y="713" type="curve" smooth="yes"/>
      <point x="464" y="820" type="line"/>
      <point x="528" y="805"/>
      <point x="595" y="794"/>
      <point x="675" y="774" type="curve"/>
      <point x="676" y="690"/>
      <point x="677" y="734"/>
      <point x="674" y="694" type="curve"/>
      <point x="642" y="624"/>
      <point x="534" y="412"/>
      <point x="460" y="339" type="curve"/>
    </contour>
    <component base="quoteright" xOffset="1100" yOffset="28"/>
  </outline>
</glyph>
<glyph name="dcroat" format="1">
  <advance width="1211"/>
  <unicode hex="0111"/>
  <outline>
    <contour>
      <point x="454" y="1148" type="curve" name="hr00"/>
      <point x="768" y="1136"/>
      <point x="1083" y="1138"/>
      <point x="1153" y="1144" type="curve"/>
      <point x="1198" y="1208"/>
      <point x="1210" y="1334"/>
      <point x="1169" y="1411" type="curve"/>
      <point x="793" y="1373" type="line"/>
      <point x="440" y="1343" type="line"/>
      <point x="426" y="1284"/>
      <point x="430" y="1213"/>
    </contour>
    <contour>
      <point x="947" y="308" type="line"/>
      <point x="1034" y="599"/>
      <point x="1057" y="1463"/>
      <point x="1048" y="1524" type="curve"/>
      <point x="977" y="1590"/>
      <point x="894" y="1613"/>
      <point x="802" y="1613" type="curve" smooth="yes"/>
      <point x="706" y="1613"/>
      <point x="629" y="1587"/>
      <point x="606" y="1559" type="curve"/>
      <point x="609" y="1519"/>
      <point x="676" y="1024"/>
      <point x="693" y="826" type="curve"/>
      <point x="672" y="824" type="line"/>
      <point x="610" y="927"/>
      <point x="539" y="1046"/>
      <point x="431" y="1120" type="curve"/>
      <point x="392" y="1115"/>
      <point x="191" y="1078"/>
      <point x="70" y="921" type="curve" smooth="yes"/>
      <point x="51" y="896"/>
      <point x="45" y="882"/>
      <point x="45" y="866" type="curve" smooth="yes"/>
      <point x="45" y="853"/>
      <point x="49" y="838"/>
      <point x="57" y="811" type="curve" smooth="yes"/>
      <point x="133" y="550"/>
      <point x="126" y="372"/>
      <point x="130" y="147" type="curve" smooth="yes"/>
      <point x="131" y="94"/>
      <point x="213" y="66"/>
      <point x="263" y="31" type="curve" smooth="yes"/>
      <point x="302" y="3"/>
      <point x="338" y="-22"/>
      <point x="374" y="-20" type="curve" smooth="yes"/>
      <point x="392" y="-19"/>
      <point x="410" y="-11"/>
      <point x="429" y="5" type="curve" smooth="yes"/>
      <point x="524" y="87"/>
      <point x="638" y="356"/>
      <point x="691" y="497" type="curve"/>
      <point x="696" y="495" type="line"/>
      <point x="690" y="403"/>
      <point x="685" y="322"/>
      <point x="677" y="221" type="curve" smooth="yes"/>
      <point x="669" y="132"/>
      <point x="704" y="107"/>
      <point x="729" y="80" type="curve" smooth="yes"/>
      <point x="785" y="21"/>
      <point x="864" y="-21"/>
      <point x="926" y="-20" type="curve" smooth="yes"/>
      <point x="1042" y="-18"/>
      <point x="1139" y="119"/>
      <point x="1206" y="279" type="curve"/>
      <point x="1118" y="400" type="line"/>
    </contour>
    <contour>
      <point x="430" y="353" type="line"/>
      <point x="454" y="474"/>
      <point x="468" y="591"/>
      <point x="466" y="713" type="curve" smooth="yes"/>
      <point x="464" y="736" type="line"/>
      <point x="528" y="721"/>
      <point x="595" y="710"/>
      <point x="675" y="690" type="curve"/>
      <point x="674" y="684" type="line"/>
      <point x="642" y="614"/>
      <point x="534" y="412"/>
      <point x="460" y="339" type="curve"/>
    </contour>
  </outline>
</glyph>
<glyph name="Eogonek" format="1">
  <advance width="1110"/>
  <unicode hex="0118"/>
  <outline>
    <contour>
      <point x="643" y="-170" type="line" name="hr00"/>
      <point x="672" y="-117"/>
      <point x="796" y="-38"/>
      <point x="872" y="13" type="curve"/>
      <point x="679" y="46" type="line"/>
      <point x="584" y="-9"/>
      <point x="391" y="-114"/>
      <point x="391" y="-225" type="curve" smooth="yes"/>
      <point x="391" y="-320"/>
      <point x="541" y="-438"/>
      <point x="638" y="-438" type="curve" smooth="yes"/>
      <point x="754" y="-438"/>
      <point x="833" y="-374"/>
      <point x="900" y="-243" type="curve"/>
      <point x="853" y="-116" type="line"/>
      <point x="657" y="-183" type="line"/>
    </contour>
    <component base="E"/>
  </outline>
</glyph>
<glyph name="eogonek" format="1">
  <advance width="949"/>
  <unicode hex="0119"/>
  <outline>
    <contour>
      <point x="610" y="-170" type="line" name="hr00"/>
      <point x="691" y="-14"/>
      <point x="792" y="143"/>
      <point x="883" y="299" type="curve"/>
      <point x="792" y="209" type="line"/>
      <point x="758" y="187"/>
      <point x="579" y="179"/>
      <point x="510" y="116" type="curve"/>
      <point x="616" y="55" type="line"/>
      <point x="516" y="-27"/>
      <point x="358" y="-143"/>
      <point x="358" y="-235" type="curve" smooth="yes"/>
      <point x="358" y="-316"/>
      <point x="508" y="-438"/>
      <point x="605" y="-438" type="curve" smooth="yes"/>
      <point x="721" y="-438"/>
      <point x="800" y="-374"/>
      <point x="867" y="-243" type="curve"/>
      <point x="820" y="-116" type="line"/>
      <point x="624" y="-183" type="line"/>
    </contour>
    <component base="e"/>
  </outline>
</glyph>
<glyph name="hcircumflex" format="1">
  <advance width="1199"/>
  <unicode hex="0125"/>
  <outline>
    <contour>
      <point x="924" y="-20" type="curve" name="hr00"/>
      <point x="1040" y="-18"/>
      <point x="1164" y="140"/>
      <point x="1199" y="279" type="curve"/>
      <point x="1108" y="400" type="line"/>
      <point x="939" y="311" type="line"/>
      <point x="1030" y="533"/>
      <point x="1101" y="867"/>
      <point x="1101" y="1038" type="curve"/>
      <point x="966" y="1146"/>
      <point x="822" y="1182"/>
      <point x="748" y="1182" type="curve" smooth="yes"/>
      <point x="691" y="1182"/>
      <point x="639" y="1170"/>
      <point x="618" y="1165" type="curve"/>
      <point x="530" y="953"/>
      <point x="484" y="733"/>
      <point x="416" y="514" type="curve"/>
      <point x="412" y="515" type="line"/>
      <point x="399" y="518" type="line"/>
      <point x="431" y="875"/>
      <point x="476" y="1144"/>
      <point x="482" y="1481" type="curve"/>
      <point x="436" y="1516"/>
      <point x="383" y="1529"/>
      <point x="324" y="1529" type="curve" smooth="yes"/>
      <point x="204" y="1529"/>
      <point x="73" y="1460"/>
      <point x="12" y="1381" type="curve"/>
      <point x="12" y="1379"/>
      <point x="11" y="1377"/>
      <point x="11" y="1373" type="curve" smooth="yes"/>
      <point x="11" y="1277"/>
      <point x="127" y="486"/>
      <point x="184" y="370" type="curve"/>
      <point x="184" y="369"/>
      <point x="183" y="369"/>
      <point x="183" y="368" type="curve" smooth="yes"/>
      <point x="156" y="288"/>
      <point x="140" y="227"/>
      <point x="113" y="66" type="curve"/>
      <point x="164" y="9"/>
      <point x="280" y="-20"/>
      <point x="379" y="-20" type="curve" smooth="yes"/>
      <point x="444" y="-20"/>
      <point x="507" y="-8"/>
      <point x="551" y="24" type="curve"/>
      <point x="536" y="158"/>
      <point x="500" y="263"/>
      <point x="467" y="360" type="curve"/>
      <point x="543" y="506"/>
      <point x="604" y="638"/>
      <point x="670" y="781" type="curve"/>
      <point x="697" y="772" type="line"/>
      <point x="671" y="206" type="line" smooth="yes"/>
      <point x="667" y="128"/>
      <point x="702" y="104"/>
      <point x="725" y="80" type="curve" smooth="yes"/>
      <point x="782" y="20"/>
      <point x="862" y="-20"/>
    </contour>
    <component base="circumflex.cap" xOffset="-211"/>
  </outline>
</glyph>
<glyph name="Hbar" format="1">
  <advance width="1348"/>
  <unicode hex="0126"/>
  <outline>
    <contour>
      <point x="31" y="993" type="curve" name="hr00"/>
      <point x="345" y="981"/>
      <point x="1239" y="1003"/>
      <point x="1309" y="1009" type="curve"/>
      <point x="1354" y="1097"/>
      <point x="1376" y="1204"/>
      <point x="1328" y="1280" type="curve"/>
      <point x="296" y="1198" type="line"/>
      <point x="17" y="1148" type="line"/>
      <point x="-2" y="1083"/>
      <point x="7" y="1058"/>
    </contour>
    <component base="H"/>
  </outline>
</glyph>
<glyph name="hbar" format="1">
  <advance width="1198"/>
  <unicode hex="0127"/>
  <outline>
    <contour>
      <point x="-74" y="1105" type="curve" name="hr00"/>
      <point x="240" y="1093"/>
      <point x="760" y="1104"/>
      <point x="830" y="1110" type="curve"/>
      <point x="875" y="1198"/>
      <point x="907" y="1338"/>
      <point x="859" y="1414" type="curve"/>
      <point x="181" y="1333" type="line"/>
      <point x="-88" y="1283" type="line"/>
      <point x="-107" y="1218"/>
      <point x="-98" y="1170"/>
    </contour>
    <contour>
      <point x="923" y="-20" type="curve" smooth="yes"/>
      <point x="1039" y="-18"/>
      <point x="1163" y="140"/>
      <point x="1198" y="279" type="curve"/>
      <point x="1107" y="400" type="line"/>
      <point x="938" y="311" type="line"/>
      <point x="1029" y="533"/>
      <point x="1074" y="741"/>
      <point x="1094" y="897" type="curve"/>
      <point x="960" y="1005"/>
      <point x="815" y="1042"/>
      <point x="741" y="1041" type="curve" smooth="yes"/>
      <point x="684" y="1040"/>
      <point x="632" y="1030"/>
      <point x="611" y="1024" type="curve"/>
      <point x="533" y="850"/>
      <point x="483" y="733"/>
      <point x="415" y="514" type="curve"/>
      <point x="412" y="515" type="line"/>
      <point x="411" y="515" type="line"/>
      <point x="398" y="518" type="line"/>
      <point x="471" y="1566" type="line"/>
      <point x="426" y="1601"/>
      <point x="381" y="1615"/>
      <point x="323" y="1614" type="curve" smooth="yes"/>
      <point x="203" y="1612"/>
      <point x="91" y="1547"/>
      <point x="30" y="1466" type="curve"/>
      <point x="21" y="1427"/>
      <point x="124" y="490"/>
      <point x="183" y="370" type="curve"/>
      <point x="183" y="369"/>
      <point x="182" y="369"/>
      <point x="182" y="368" type="curve" smooth="yes"/>
      <point x="155" y="288"/>
      <point x="139" y="227"/>
      <point x="112" y="66" type="curve"/>
      <point x="160" y="12"/>
      <point x="268" y="-18"/>
      <point x="364" y="-20" type="curve" smooth="yes"/>
      <point x="433" y="-22"/>
      <point x="503" y="-10"/>
      <point x="550" y="24" type="curve"/>
      <point x="535" y="158"/>
      <point x="499" y="263"/>
      <point x="466" y="360" type="curve"/>
      <point x="546" y="495"/>
      <point x="617" y="584"/>
      <point x="663" y="640" type="curve"/>
      <point x="690" y="631" type="line"/>
      <point x="681" y="438"/>
      <point x="671" y="403"/>
      <point x="670" y="221" type="curve" smooth="yes"/>
      <point x="670" y="132"/>
      <point x="699" y="107"/>
      <point x="724" y="80" type="curve" smooth="yes"/>
      <point x="781" y="21"/>
      <point x="861" y="-21"/>
    </contour>
  </outline>
</glyph>
<glyph name="Iogonek" format="1">
  <advance width="666"/>
  <unicode hex="012E"/>
  <outline>
    <contour>
      <point x="328" y="-170" type="line" name="hr00"/>
      <point x="367" y="-97"/>
      <point x="499" y="-19"/>
      <point x="558" y="19" type="curve"/>
      <point x="364" y="46" type="line"/>
      <point x="269" y="-9"/>
      <point x="76" y="-114"/>
      <point x="76" y="-225" type="curve" smooth="yes"/>
      <point x="76" y="-320"/>
      <point x="226" y="-438"/>
      <point x="323" y="-438" type="curve" smooth="yes"/>
      <point x="439" y="-438"/>
      <point x="518" y="-374"/>
      <point x="585" y="-243" type="curve"/>
      <point x="538" y="-116" type="line"/>
      <point x="342" y="-183" type="line"/>
    </contour>
    <component base="I"/>
  </outline>
</glyph>
<glyph name="iogonek" format="1">
  <advance width="615"/>
  <unicode hex="012F"/>
  <outline>
    <contour>
      <point x="349" y="-176" type="line" name="hr00"/>
      <point x="541" y="114" type="line"/>
      <point x="464" y="195" type="line"/>
    </contour>
    <component base="i"/>
    <component base="ogonek" xOffset="74"/>
  </outline>
</glyph>
<glyph name="idotless" format="1">
  <advance width="615"/>
  <unicode hex="0131"/>
  <outline>
    <contour>
      <point x="345" y="-20" type="curve" name="hr00" smooth="yes"/>
      <point x="476" y="-20"/>
      <point x="578" y="158"/>
      <point x="620" y="256" type="curve"/>
      <point x="541" y="381" type="line"/>
      <point x="391" y="314" type="line"/>
      <point x="410" y="392" type="line" smooth="yes"/>
      <point x="464" y="613"/>
      <point x="502" y="1056"/>
      <point x="511" y="1105" type="curve"/>
      <point x="464" y="1146"/>
      <point x="407" y="1163"/>
      <point x="346" y="1163" type="curve" smooth="yes"/>
      <point x="221" y="1163"/>
      <point x="86" y="1091"/>
      <point x="26" y="1018" type="curve"/>
      <point x="157" y="497" type="line"/>
      <point x="64" y="235"/>
      <point x="63" y="249"/>
      <point x="63" y="212" type="curve" smooth="yes"/>
      <point x="63" y="104"/>
      <point x="251" y="-20"/>
    </contour>
    <contour>
      <point x="268" y="0" type="move" name="top"/>
    </contour>
  </outline>
</glyph>
<glyph name="kgreenlandic" format="1">
  <advance width="1089"/>
  <unicode hex="0138"/>
  <outline>
    <contour>
      <point x="52" y="105" type="curve" name="hr00"/>
      <point x="96" y="45"/>
      <point x="215" y="-14"/>
      <point x="258" y="-20" type="curve"/>
      <point x="363" y="49"/>
      <point x="456" y="148"/>
      <point x="554" y="250" type="curve"/>
      <point x="583" y="138"/>
      <point x="634" y="26"/>
      <point x="727" y="-3" type="curve" smooth="yes"/>
      <point x="761" y="-14"/>
      <point x="795" y="-20"/>
      <point x="827" y="-20" type="curve" smooth="yes"/>
      <point x="915" y="-21"/>
      <point x="991" y="21"/>
      <point x="1039" y="117" type="curve" smooth="yes"/>
      <point x="1074" y="188"/>
      <point x="1084" y="242"/>
      <point x="1088" y="347" type="curve"/>
      <point x="973" y="438" type="line"/>
      <point x="933" y="396"/>
      <point x="892" y="365"/>
      <point x="852" y="345" type="curve"/>
      <point x="821" y="377"/>
      <point x="774" y="431"/>
      <point x="755" y="460" type="curve"/>
      <point x="881" y="599"/>
      <point x="981" y="743"/>
      <point x="1020" y="807" type="curve"/>
      <point x="1026" y="942"/>
      <point x="951" y="1118"/>
      <point x="864" y="1204" type="curve"/>
      <point x="735" y="1199"/>
      <point x="558" y="1096"/>
      <point x="490" y="965" type="curve"/>
      <point x="524" y="864"/>
      <point x="579" y="817"/>
      <point x="634" y="760" type="curve"/>
      <point x="557" y="594"/>
      <point x="470" y="415"/>
      <point x="372" y="260" type="curve"/>
      <point x="361" y="265" type="line"/>
      <point x="401" y="496"/>
      <point x="451" y="854"/>
      <point x="477" y="1170" type="curve"/>
      <point x="447" y="1198"/>
      <point x="393" y="1212"/>
      <point x="331" y="1212" type="curve" smooth="yes"/>
      <point x="223" y="1212"/>
      <point x="77" y="1169"/>
      <point x="27" y="1089" type="curve"/>
      <point x="17" y="1053"/>
      <point x="105" y="518"/>
      <point x="153" y="396" type="curve"/>
      <point x="120" y="324"/>
      <point x="68" y="211"/>
    </contour>
  </outline>
</glyph>
<glyph name="lacute" format="1">
  <advance width="626"/>
  <unicode hex="013A"/>
  <outline>
    <contour>
      <point x="353" y="-20" type="curve" name="hr00" smooth="yes"/>
      <point x="479" y="-20"/>
      <point x="594" y="138"/>
      <point x="632" y="254" type="curve"/>
      <point x="552" y="381" type="line"/>
      <point x="409" y="314" type="line"/>
      <point x="468" y="919"/>
      <point x="494" y="1209"/>
      <point x="505" y="1525" type="curve"/>
      <point x="462" y="1560"/>
      <point x="407" y="1573"/>
      <point x="350" y="1572" type="curve" smooth="yes"/>
      <point x="231" y="1571"/>
      <point x="101" y="1506"/>
      <point x="37" y="1425" type="curve"/>
      <point x="32" y="1396"/>
      <point x="89" y="921"/>
      <point x="149" y="606" type="curve"/>
      <point x="80" y="249" type="line" smooth="yes"/>
      <point x="69" y="192"/>
      <point x="85" y="161"/>
      <point x="105" y="138" type="curve" smooth="yes"/>
      <point x="164" y="68"/>
      <point x="261" y="-20"/>
    </contour>
    <component base="acute.cap" xOffset="-17"/>
  </outline>
</glyph>
<glyph name="lcaron" format="1">
  <advance width="877"/>
  <unicode hex="013E"/>
  <outline>
    <contour>
      <point x="353" y="-20" type="curve" smooth="yes" name="hr00"/>
      <point x="479" y="-20"/>
      <point x="674" y="198"/>
      <point x="712" y="314" type="curve"/>
      <point x="625" y="438" type="line"/>
      <point x="409" y="314" type="line"/>
      <point x="468" y="919"/>
      <point x="494" y="1250"/>
      <point x="505" y="1566" type="curve"/>
      <point x="461" y="1601"/>
      <point x="407" y="1613"/>
      <point x="350" y="1613" type="curve" smooth="yes"/>
      <point x="231" y="1613"/>
      <point x="101" y="1546"/>
      <point x="37" y="1466" type="curve"/>
      <point x="37" y="1465"/>
      <point x="37" y="1463"/>
      <point x="37" y="1460" type="curve" smooth="yes"/>
      <point x="37" y="1395"/>
      <point x="91" y="908"/>
      <point x="149" y="606" type="curve"/>
      <point x="80" y="249" type="line" smooth="yes"/>
      <point x="77" y="236"/>
      <point x="76" y="225"/>
      <point x="76" y="214" type="curve" smooth="yes"/>
      <point x="76" y="178"/>
      <point x="90" y="156"/>
      <point x="105" y="138" type="curve" smooth="yes"/>
      <point x="164" y="68"/>
      <point x="261" y="-20"/>
    </contour>
    <component base="caronvertical" xOffset="563" yOffset="10"/>
  </outline>
</glyph>
<glyph name="Lslash" format="1">
  <advance width="1142"/>
  <unicode hex="0141"/>
  <outline>
    <contour>
      <point x="61" y="713" type="line" name="hr00"/>
      <point x="67" y="651"/>
      <point x="92" y="566"/>
      <point x="135" y="542" type="curve"/>
      <point x="891" y="866" type="line"/>
      <point x="906" y="958"/>
      <point x="899" y="1083"/>
      <point x="851" y="1112" type="curve"/>
    </contour>
    <component base="L"/>
  </outline>
</glyph>
<glyph name="eng" format="1">
  <advance width="1108"/>
  <unicode hex="014B"/>
  <outline>
    <contour>
      <point x="681" y="772" type="line" name="hr00"/>
      <point x="654" y="394" type="line"/>
      <point x="659" y="-134" type="line"/>
      <point x="603" y="-126"/>
      <point x="551" y="-117"/>
      <point x="514" y="-109" type="curve"/>
      <point x="498" y="-169"/>
      <point x="486" y="-205"/>
      <point x="495" y="-281" type="curve"/>
      <point x="531" y="-327"/>
      <point x="652" y="-416"/>
      <point x="773" y="-438" type="curve"/>
      <point x="895" y="-438"/>
      <point x="1025" y="-310"/>
      <point x="1031" y="-254" type="curve"/>
      <point x="1040" y="-62"/>
      <point x="956" y="263"/>
      <point x="930" y="365" type="curve"/>
      <point x="1018" y="584"/>
      <point x="1090" y="881"/>
      <point x="1095" y="1038" type="curve"/>
      <point x="1007" y="1144"/>
      <point x="876" y="1180"/>
      <point x="747" y="1180" type="curve" smooth="yes"/>
      <point x="699" y="1180"/>
      <point x="653" y="1177"/>
      <point x="615" y="1165" type="curve"/>
      <point x="519" y="953"/>
      <point x="470" y="733"/>
      <point x="396" y="514" type="curve"/>
      <point x="380" y="517" type="line"/>
      <point x="475" y="1143" type="line"/>
      <point x="445" y="1171"/>
      <point x="393" y="1180"/>
      <point x="331" y="1180" type="curve" smooth="yes"/>
      <point x="223" y="1180"/>
      <point x="77" y="1141"/>
      <point x="27" y="1061" type="curve"/>
      <point x="17" y="1025"/>
      <point x="105" y="490"/>
      <point x="153" y="368" type="curve"/>
      <point x="124" y="288"/>
      <point x="106" y="227"/>
      <point x="73" y="66" type="curve"/>
      <point x="119" y="12"/>
      <point x="225" y="-18"/>
      <point x="321" y="-20" type="curve" smooth="yes"/>
      <point x="390" y="-22"/>
      <point x="460" y="-10"/>
      <point x="509" y="24" type="curve"/>
      <point x="498" y="158"/>
      <point x="466" y="263"/>
      <point x="437" y="360" type="curve"/>
      <point x="517" y="506"/>
      <point x="583" y="638"/>
      <point x="653" y="781" type="curve"/>
    </contour>
  </outline>
</glyph>
<glyph name="OE" format="1">
  <advance width="1797"/>
  <unicode hex="0152"/>
  <outline>
    <contour>
      <point x="1158" y="654" type="line" name="hr01"/>
      <point x="1262" y="601"/>
      <point x="1411" y="581"/>
      <point x="1533" y="581" type="curve" smooth="yes"/>
      <point x="1553" y="581"/>
      <point x="1573" y="582"/>
      <point x="1593" y="584" type="curve"/>
      <point x="1616" y="609"/>
      <point x="1644" y="692"/>
      <point x="1644" y="778" type="curve" smooth="yes"/>
      <point x="1644" y="832"/>
      <point x="1633" y="886"/>
      <point x="1604" y="930" type="curve"/>
      <point x="1460" y="900"/>
      <point x="1349" y="876"/>
      <point x="1156" y="854" type="curve"/>
    </contour>
    <contour>
      <point x="1156" y="1168" type="line"/>
      <point x="1325" y="1120"/>
      <point x="1466" y="1088"/>
      <point x="1579" y="1075" type="curve"/>
      <point x="1645" y="1125"/>
      <point x="1686" y="1225"/>
      <point x="1686" y="1331" type="curve" smooth="yes"/>
      <point x="1686" y="1423"/>
      <point x="1657" y="1511"/>
      <point x="1591" y="1549" type="curve"/>
      <point x="1222" y="1455" type="line"/>
      <point x="757" y="1366" type="line"/>
    </contour>
    <contour>
      <point x="823" y="272" type="line"/>
      <point x="833" y="201"/>
      <point x="814" y="164"/>
      <point x="864" y="104" type="curve"/>
      <point x="1064" y="25"/>
      <point x="1269" y="-19"/>
      <point x="1480" y="-19" type="curve" smooth="yes"/>
      <point x="1644" y="-19"/>
      <point x="1731" y="85"/>
      <point x="1731" y="239" type="curve" smooth="yes"/>
      <point x="1731" y="328"/>
      <point x="1714" y="419"/>
      <point x="1693" y="475" type="curve"/>
      <point x="1513" y="490" type="line"/>
      <point x="1431" y="300" type="line"/>
      <point x="1088" y="322" type="line"/>
    </contour>
    <contour>
      <point x="631" y="1549" type="curve" smooth="yes"/>
      <point x="562" y="1549"/>
      <point x="207" y="1435"/>
      <point x="132" y="1337" type="curve" smooth="yes"/>
      <point x="95" y="1288"/>
      <point x="96" y="1154"/>
      <point x="96" y="1081" type="curve" smooth="yes"/>
      <point x="96" y="879"/>
      <point x="136" y="386"/>
      <point x="173" y="147" type="curve"/>
      <point x="262" y="67"/>
      <point x="554" y="-12"/>
      <point x="703" y="-21" type="curve" name="hr02"/>
      <point x="775" y="-14"/>
      <point x="841" y="11"/>
      <point x="934" y="58" type="curve" smooth="yes"/>
      <point x="996" y="90"/>
      <point x="1082" y="132"/>
      <point x="1098" y="190" type="curve" smooth="yes"/>
      <point x="1136" y="325"/>
      <point x="1186" y="841"/>
      <point x="1186" y="1060" type="curve" smooth="yes"/>
      <point x="1186" y="1183"/>
      <point x="1179" y="1240"/>
      <point x="1170" y="1321" type="curve"/>
      <point x="1074" y="1436"/>
      <point x="730" y="1549"/>
    </contour>
    <contour>
      <point x="569" y="1209" type="line"/>
      <point x="783" y="1118" type="line"/>
      <point x="795" y="991"/>
      <point x="803" y="782"/>
      <point x="803" y="586" type="curve" smooth="yes"/>
      <point x="803" y="466"/>
      <point x="799" y="302"/>
      <point x="791" y="228" type="curve"/>
      <point x="729" y="238" type="line"/>
      <point x="658" y="253"/>
      <point x="556" y="299"/>
      <point x="501" y="331" type="curve"/>
      <point x="490" y="444"/>
      <point x="486" y="612"/>
      <point x="486" y="786" type="curve" smooth="yes"/>
      <point x="486" y="935"/>
      <point x="490" y="1085"/>
      <point x="498" y="1174" type="curve"/>
    </contour>
  </outline>
</glyph>
<glyph name="oe" format="1">
  <advance width="1488"/>
  <unicode hex="0153"/>
  <outline>
    <contour>
      <point x="1427" y="768" type="curve" name="hr00" smooth="yes"/>
      <point x="1450" y="812"/>
      <point x="1452" y="899"/>
      <point x="1442" y="964" type="curve" smooth="yes"/>
      <point x="1432" y="1025"/>
      <point x="1426" y="1028"/>
      <point x="1406" y="1036" type="curve" smooth="yes"/>
      <point x="1307" y="1072"/>
      <point x="1253" y="1086"/>
      <point x="1094" y="1192" type="curve" smooth="yes"/>
      <point x="1059" y="1215"/>
      <point x="1035" y="1221"/>
      <point x="1016" y="1222" type="curve"/>
      <point x="943" y="1222"/>
      <point x="819" y="1164"/>
      <point x="759" y="1127" type="curve" smooth="yes"/>
      <point x="752" y="1122" type="line"/>
      <point x="672" y="1172"/>
      <point x="582" y="1204"/>
      <point x="526" y="1204" type="curve" smooth="yes"/>
      <point x="463" y="1204"/>
      <point x="162" y="1100"/>
      <point x="94" y="1011" type="curve" smooth="yes"/>
      <point x="60" y="967"/>
      <point x="61" y="846"/>
      <point x="61" y="778" type="curve" smooth="yes"/>
      <point x="61" y="595"/>
      <point x="87" y="384"/>
      <point x="121" y="167" type="curve" smooth="yes"/>
      <point x="137" y="62"/>
      <point x="439" y="-8"/>
      <point x="572" y="-20" type="curve"/>
      <point x="630" y="-14"/>
      <point x="703" y="28"/>
      <point x="765" y="73" type="curve"/>
      <point x="766" y="73" type="line"/>
      <point x="779" y="62"/>
      <point x="792" y="49"/>
      <point x="805" y="36" type="curve" smooth="yes"/>
      <point x="846" y="-7"/>
      <point x="878" y="-22"/>
      <point x="911" y="-22" type="curve" smooth="yes"/>
      <point x="1089" y="-22"/>
      <point x="1342" y="190"/>
      <point x="1422" y="297" type="curve"/>
      <point x="1337" y="436" type="line"/>
      <point x="1208" y="374"/>
      <point x="1079" y="295"/>
      <point x="1011" y="282" type="curve"/>
      <point x="982" y="282" type="line"/>
      <point x="1160" y="442"/>
      <point x="1411" y="739"/>
    </contour>
    <contour>
      <point x="486" y="863" type="line"/>
      <point x="640" y="800" type="line"/>
      <point x="652" y="685"/>
      <point x="657" y="581"/>
      <point x="657" y="480" type="curve" smooth="yes"/>
      <point x="657" y="405"/>
      <point x="656" y="331"/>
      <point x="649" y="258" type="curve"/>
      <point x="594" y="220" type="line"/>
      <point x="524" y="235"/>
      <point x="469" y="265"/>
      <point x="428" y="292" type="curve"/>
      <point x="418" y="393"/>
      <point x="414" y="494"/>
      <point x="414" y="593" type="curve" smooth="yes"/>
      <point x="414" y="674"/>
      <point x="418" y="754"/>
      <point x="426" y="834" type="curve"/>
    </contour>
    <contour>
      <point x="964" y="415" type="curve"/>
      <point x="964" y="416"/>
      <point x="965" y="417"/>
      <point x="965" y="418" type="curve" smooth="yes"/>
      <point x="978" y="519"/>
      <point x="988" y="793"/>
      <point x="988" y="849" type="curve"/>
      <point x="1079" y="820"/>
      <point x="1147" y="800"/>
      <point x="1182" y="792" type="curve"/>
      <point x="1124" y="656"/>
      <point x="1010" y="483"/>
    </contour>
  </outline>
</glyph>
<glyph name="tcaron" format="1">
  <advance width="857"/>
  <unicode hex="0165"/>
  <outline>
    <contour>
      <point x="951" y="1839" type="curve" name="hr00"/>
      <point x="892" y="1659"/>
      <point x="800" y="1404"/>
      <point x="709" y="1280" type="curve"/>
      <point x="559" y="1320" type="line"/>
      <point x="610" y="1926" type="line"/>
      <point x="641" y="1935"/>
      <point x="677" y="1940"/>
      <point x="714" y="1940" type="curve" smooth="yes"/>
      <point x="806" y="1940"/>
      <point x="886" y="1909"/>
    </contour>
    <contour>
      <point x="484" y="312" type="line"/>
      <point x="482" y="841" type="line"/>
      <point x="559" y="844"/>
      <point x="704" y="850"/>
      <point x="765" y="855" type="curve"/>
      <point x="786" y="912"/>
      <point x="845" y="1044"/>
      <point x="764" y="1182" type="curve"/>
      <point x="482" y="1137" type="line"/>
      <point x="473" y="1418" type="line"/>
      <point x="376" y="1470"/>
      <point x="246" y="1464"/>
      <point x="199" y="1439" type="curve"/>
      <point x="138" y="1076" type="line"/>
      <point x="26" y="1037" type="line"/>
      <point x="23" y="1000"/>
      <point x="26" y="914"/>
      <point x="46" y="860" type="curve"/>
      <point x="142" y="854" type="line"/>
      <point x="192" y="496" type="line"/>
      <point x="135" y="313"/>
      <point x="127" y="265"/>
      <point x="127" y="240" type="curve"/>
      <point x="131" y="117"/>
      <point x="338" y="-20"/>
      <point x="460" y="-20" type="curve" smooth="yes"/>
      <point x="591" y="-20"/>
      <point x="809" y="251"/>
      <point x="847" y="349" type="curve"/>
      <point x="720" y="490" type="line"/>
    </contour>
  </outline>
</glyph>
<glyph name="Tbar" format="1">
  <advance width="1103"/>
  <unicode hex="0166"/>
  <outline>
    <contour>
      <point x="252" y="585" type="curve" name="hr01"/>
      <point x="629" y="571"/>
      <point x="850" y="564"/>
      <point x="934" y="571" type="curve"/>
      <point x="988" y="677"/>
      <point x="1025" y="790"/>
      <point x="1002" y="886" type="curve"/>
      <point x="308" y="837" type="line"/>
      <point x="262" y="759"/>
      <point x="240" y="698"/>
    </contour>
    <contour>
      <point x="722" y="1438" type="line"/>
      <point x="283" y="1549" type="line"/>
      <point x="188" y="1540"/>
      <point x="70" y="1480"/>
      <point x="-1" y="1393" type="curve"/>
      <point x="-60" y="1288"/>
      <point x="-8" y="1070"/>
      <point x="26" y="967" type="curve"/>
      <point x="105" y="933"/>
      <point x="180" y="939"/>
      <point x="259" y="966" type="curve"/>
      <point x="300" y="1247" type="line"/>
      <point x="589" y="1174" type="line"/>
      <point x="775" y="1162" type="line"/>
      <point x="841" y="1119"/>
      <point x="993" y="1084"/>
      <point x="1061" y="1084" type="curve"/>
      <point x="1193" y="1174"/>
      <point x="1202" y="1480"/>
      <point x="1070" y="1549" type="curve"/>
    </contour>
    <contour>
      <point x="754" y="580" type="line" name="hr02"/>
      <point x="820" y="1204" type="line"/>
      <point x="720" y="1255"/>
      <point x="638" y="1318"/>
      <point x="427" y="1245" type="curve" name="hr03"/>
      <point x="489" y="579" type="line"/>
    </contour>
    <contour>
      <point x="754" y="598" type="line" name="hr04"/>
      <point x="487" y="580" type="line" name="hr05"/>
      <point x="466" y="455"/>
      <point x="417" y="344"/>
      <point x="427" y="227" type="curve" smooth="yes"/>
      <point x="441" y="72"/>
      <point x="627" y="-21"/>
      <point x="768" y="-21" type="curve" smooth="yes"/>
      <point x="899" y="-21"/>
      <point x="1050" y="189"/>
      <point x="1071" y="283" type="curve"/>
      <point x="993" y="415" type="line"/>
      <point x="773" y="314" type="line"/>
    </contour>
  </outline>
</glyph>
<glyph name="tbar" format="1">
  <advance width="847"/>
  <unicode hex="0167"/>
  <outline>
    <contour>
      <point x="78" y="501" type="curve" name="hr01"/>
      <point x="392" y="489"/>
      <point x="636" y="501"/>
      <point x="706" y="507" type="curve"/>
      <point x="751" y="571"/>
      <point x="763" y="697"/>
      <point x="722" y="774" type="curve"/>
      <point x="323" y="736" type="line"/>
      <point x="64" y="686" type="line"/>
      <point x="49" y="618"/>
      <point x="54" y="566"/>
    </contour>
    <contour>
      <point x="494" y="312" type="line"/>
      <point x="492" y="861" type="line"/>
      <point x="569" y="864"/>
      <point x="664" y="870"/>
      <point x="725" y="875" type="curve" name="hr02"/>
      <point x="746" y="932"/>
      <point x="805" y="1044"/>
      <point x="724" y="1182" type="curve"/>
      <point x="502" y="1137" type="line"/>
      <point x="513" y="1418" type="line"/>
      <point x="416" y="1470"/>
      <point x="256" y="1464"/>
      <point x="209" y="1439" type="curve"/>
      <point x="158" y="1076" type="line"/>
      <point x="36" y="1037" type="line"/>
      <point x="33" y="1000"/>
      <point x="36" y="923"/>
      <point x="56" y="869" type="curve"/>
      <point x="162" y="863" type="line"/>
      <point x="202" y="496" type="line"/>
      <point x="145" y="313"/>
      <point x="137" y="265"/>
      <point x="137" y="240" type="curve" smooth="yes"/>
      <point x="137" y="119"/>
      <point x="348" y="-20"/>
      <point x="470" y="-20" type="curve" smooth="yes"/>
      <point x="601" y="-20"/>
      <point x="770" y="185"/>
      <point x="828" y="289" type="curve"/>
      <point x="715" y="433" type="line"/>
    </contour>
  </outline>
</glyph>
